<?xml version="1.0" encoding="UTF-8"?>
<svg version="1.1" xmlns="http://www.w3.org/2000/svg" width="225" height="225">
<path d="M0 0 C5.61 0 11.22 0 17 0 C15.06692503 1.28871665 13.1095313 2.54202443 11.125 3.75 C6.22262095 7.27971292 2.89540546 11.14147404 1 17 C0.67 17 0.34 17 0 17 C0 11.39 0 5.78 0 0 Z " fill="#000000" transform="translate(0,0)"/>
<path d="M0 0 C5.61 0 11.22 0 17 0 C17 5.61 17 11.22 17 17 C15.71128335 15.06692503 14.45797557 13.1095313 13.25 11.125 C9.72028708 6.22262095 5.85852596 2.89540546 0 1 C0 0.67 0 0.34 0 0 Z " fill="#000000" transform="translate(208,0)"/>
<path d="M0 0 C3.53001117 1.23597983 5.82152979 4.10575544 8.3793335 6.73304749 C8.97296692 7.33092575 9.56660034 7.92880402 10.17822266 8.5447998 C12.07013044 10.45348225 13.95133348 12.37233663 15.8324585 14.29164124 C17.11431851 15.5885496 18.39686279 16.88478202 19.68011475 18.18031311 C22.82221922 21.35547081 25.95476388 24.53979069 29.0824585 27.72914124 C26.67347553 34.95609012 15.71826695 40.14122345 9.2699585 43.54164124 C-1.98364 48.88927183 -12.42256011 50.68789279 -24.9175415 51.72914124 C-24.9175415 37.86914124 -24.9175415 24.00914124 -24.9175415 9.72914124 C-19.9675415 8.40914124 -15.0175415 7.08914124 -9.9175415 5.72914124 C-5.60488042 2.84994308 -5.60488042 2.84994308 -3.53082275 0.80335999 C-1.9175415 -0.27085876 -1.9175415 -0.27085876 0 0 Z " fill="#000000" transform="translate(137.91754150390625,138.27085876464844)"/>
<path d="M0 0 C1.28871665 1.93307497 2.54202443 3.8904687 3.75 5.875 C7.27971292 10.77737905 11.14147404 14.10459454 17 16 C17 16.33 17 16.66 17 17 C11.39 17 5.78 17 0 17 C0 11.39 0 5.78 0 0 Z " fill="#000000" transform="translate(0,208)"/>
<path d="M0 0 C0.33 0 0.66 0 1 0 C1 5.61 1 11.22 1 17 C-4.61 17 -10.22 17 -16 17 C-14.06692503 15.71128335 -12.1095313 14.45797557 -10.125 13.25 C-5.22262095 9.72028708 -1.89540546 5.85852596 0 0 Z " fill="#000000" transform="translate(224,208)"/>
</svg>
