<?xml version="1.0" encoding="UTF-8"?>
<svg version="1.1" xmlns="http://www.w3.org/2000/svg" width="219" height="230">
<path d="M0 0 C1.23943359 0.99580078 1.23943359 0.99580078 2.50390625 2.01171875 C15.0049597 12.59555274 24.80084182 26.40252547 30 42 C30.61307894 50.94492231 31.05778514 59.23160546 26 67 C25.54882812 67.73347656 25.09765625 68.46695313 24.6328125 69.22265625 C18.18009539 78.58070121 8.03246552 85.59549087 -3.15234375 87.76171875 C-12.6037823 88.55257986 -19.39620856 84.86600435 -26.4375 78.953125 C-30.45171182 75.40397431 -34.28383948 71.73351344 -38 67.875 C-47.65417046 58.18221286 -58.21774922 52.69713048 -72.0625 52.5 C-83.7814837 52.65365074 -92.64881096 56.72689935 -100.90625 64.8828125 C-108.15861215 72.71905126 -111.90705583 81.19268951 -112.03515625 91.953125 C-111.36949917 104.61684514 -106.3650737 114.15628785 -97.1875 122.75 C-87.75187714 130.68244302 -76.9470863 132.03078693 -65 131 C-50.7544653 128.4954659 -41.79498737 120.0136176 -32.07080078 110.02099609 C-24.74808903 102.56436941 -16.80081363 96.51432446 -6 96 C4.63849757 97.1716407 13.65206957 102.45476728 21.01171875 110.0859375 C28.75442763 119.95447829 31.13605724 129.52948663 30 142 C24.09696766 163.67974658 5.81983408 181.94773194 -13.09960938 192.94775391 C-41.54578553 208.69839872 -77.13716134 211.17203876 -108.171875 202.2578125 C-136.15458439 193.34361258 -159.58216073 175.14966082 -173.36450195 148.95019531 C-188.31895649 119.16413027 -191.61029647 86.44214052 -181.8125 54.5 C-171.4618179 25.14731943 -151.62494172 1.34097195 -123.625 -12.69140625 C-85.32948751 -30.05493975 -33.05338158 -27.309508 0 0 Z M-147.4921875 26.8359375 C-165.60655081 49.7139396 -171.8302737 76.23472038 -170 105 C-167.21642881 127.96340308 -155.02528901 153.07172011 -137 168 C-113.28613662 186.0570523 -85.37028753 193.11296864 -55.80175781 189.17724609 C-38.1177591 186.51930906 -22.83954579 180.54542289 -9 169 C-8.02675781 168.22914063 -7.05351562 167.45828125 -6.05078125 166.6640625 C2.41766688 159.58055988 11.08005848 147.62473732 13.5 136.75390625 C13.82628005 131.52322917 11.9960275 127.1495782 9 123 C4.42458054 118.00060345 -0.07303346 113.65348741 -7 113 C-11.25782079 114.79126063 -14.43556862 117.00007843 -17.8125 120.125 C-18.68003906 120.92164063 -19.54757813 121.71828125 -20.44140625 122.5390625 C-22.78929109 124.79733341 -25.0167817 127.12954482 -27.25 129.5 C-35.83569665 138.14626594 -46.17910856 144.04037293 -58 147 C-58.75925781 147.19078125 -59.51851563 147.3815625 -60.30078125 147.578125 C-77.81189212 150.315028 -93.67201569 146.15039494 -108.3515625 136.4453125 C-120.3180022 126.86262573 -127.26446915 111.97763126 -129 97 C-130.32188201 81.51872797 -125.11579214 67.33324458 -115.75 55.1875 C-107.13505851 45.17515162 -94.34392383 37.3570092 -81 36 C-62.22842587 34.8349974 -46.34417601 38.3083698 -31.57421875 50.65234375 C-28.55478948 53.40602659 -25.67933528 56.27661432 -22.8125 59.1875 C-15.7985609 66.79125827 -15.7985609 66.79125827 -6.5 70.5625 C1.00314903 69.35663676 6.2546585 64.70943462 11 59 C13.74060709 54.45370865 13.80133099 50.16964862 13 45 C10.08762131 37.02982486 5.43290855 30.43206415 0 24 C-0.44730469 23.40832031 -0.89460937 22.81664063 -1.35546875 22.20703125 C-13.9870068 6.01940037 -36.10820826 -2.59828372 -55.8125 -5.25 C-90.80650723 -9.27623311 -123.85139298 -0.06565627 -147.4921875 26.8359375 Z " fill="#000000" transform="translate(188,23)"/>
</svg>
