<?xml version="1.0" encoding="UTF-8"?>
<svg version="1.1" xmlns="http://www.w3.org/2000/svg" width="225" height="225">
<path d="M0 0 C1.61743822 1.35936356 3.22228228 2.73389134 4.8125 4.125 C5.51246094 4.71796875 6.21242187 5.3109375 6.93359375 5.921875 C21.54267913 19.24946166 26.8463819 40.1096242 28.8125 59.125 C28.85457264 61.12455742 28.87250457 63.12590034 28.8125 65.125 C29.823125 65.0425 30.83375 64.96 31.875 64.875 C37.02039028 65.20169145 40.79726618 66.96087034 44.29614258 70.71826172 C45.66899067 72.49932083 46.94021811 74.31657717 48.1875 76.1875 C48.62449219 76.81205078 49.06148437 77.43660156 49.51171875 78.08007812 C54.33443188 85.07525181 54.03050157 91.13591042 54.05273438 99.32128906 C54.06243464 101.48541785 54.09346767 103.64859419 54.125 105.8125 C54.13153127 107.19530688 54.13678126 108.57812053 54.140625 109.9609375 C54.1499707 111.21438965 54.15931641 112.4678418 54.16894531 113.75927734 C53.67918011 118.38386849 52.0717441 120.93215672 48.73828125 124.08984375 C14.01224742 150.30306809 -30.30401702 168.78484796 -74.42333984 163.3515625 C-107.37625085 158.74365884 -146.00261278 143.73405657 -170.1875 120.125 C-171.90377818 114.97616546 -171.45252076 109.48335534 -171.48266602 104.09350586 C-171.49415085 102.6650194 -171.51454736 101.23657467 -171.54418945 99.80834961 C-171.85905698 84.62610598 -171.85905698 84.62610598 -167.1875 78.125 C-166.23230469 76.70767578 -166.23230469 76.70767578 -165.2578125 75.26171875 C-158.45220196 66.69320909 -158.45220196 66.69320909 -153.1875 65.125 C-149.3125 64.9375 -149.3125 64.9375 -146.1875 65.125 C-146.15011719 64.36058594 -146.11273438 63.59617187 -146.07421875 62.80859375 C-144.71114334 40.5984827 -138.79577109 19.43317128 -122.27734375 3.73046875 C-89.05320109 -25.23444422 -34.86720061 -27.08953977 0 0 Z M-122.1875 14.125 C-128.6254068 24.64376575 -129.81126056 36.02716512 -127.65625 48.1015625 C-126.35665985 52.3252305 -124.85182203 55.4785452 -121.1875 58.125 C-111.38253495 62.93834648 -102.63837598 63.04446897 -92.22265625 60.2265625 C-84.90391175 57.57033863 -78.83021307 53.11520675 -75.08203125 46.21484375 C-70.88118398 36.40063725 -71.12831624 25.60946409 -74.2109375 15.51171875 C-75.59511236 12.1287954 -77.23203084 10.25568707 -80.1875 8.125 C-85.11958877 6.06568805 -89.55003437 5.73885543 -94.8125 5.75 C-96.00020996 5.75241699 -96.00020996 5.75241699 -97.21191406 5.75488281 C-106.05405368 5.93797218 -115.53431204 7.95863067 -122.1875 14.125 Z M-41.5625 11.75 C-46.46297481 21.92790923 -46.39960003 33.01156156 -43.08203125 43.69140625 C-40.30960454 51.23385969 -35.10392388 55.37307691 -28.1875 59.125 C-16.47902522 63.39904478 -6.57413279 62.87221891 4.75 57.8125 C8.78807463 54.50862076 10.02989544 50.11150692 10.8125 45.125 C11.50983775 33.9447325 11.68780062 23.48997581 4.5625 14.1875 C-3.52567704 8.12136722 -12.0891123 5.77015448 -22.125 5.8125 C-23.26485352 5.78833008 -23.26485352 5.78833008 -24.42773438 5.76367188 C-30.96694675 5.75808758 -36.98637449 6.69217707 -41.5625 11.75 Z M-66.1875 31.125 C-66.1875 34.095 -66.1875 37.065 -66.1875 40.125 C-61.2375 40.125 -56.2875 40.125 -51.1875 40.125 C-51.1875 37.155 -51.1875 34.185 -51.1875 31.125 C-53.99977622 30.18757459 -55.77496844 29.99029156 -58.6875 30 C-59.4609375 29.99742188 -60.234375 29.99484375 -61.03125 29.9921875 C-63.37197017 30.04354187 -63.37197017 30.04354187 -66.1875 31.125 Z M-68.1875 51.125 C-69.36482414 53.25329241 -69.36482414 53.25329241 -70.375 55.8125 C-74.29403016 63.98880994 -80.57821264 67.3308487 -88.875 70.37890625 C-99.64357485 73.85322685 -108.79363319 71.58962227 -119.1875 68.125 C-124.48700149 70.70084116 -124.48700149 70.70084116 -128.1875 75.125 C-129.89555936 85.28852221 -129.43795896 96.06917051 -129.48266602 106.34814453 C-129.49431189 108.2137808 -129.5149561 110.07938065 -129.54418945 111.94482422 C-129.5867312 114.67177428 -129.60299899 117.39776014 -129.61328125 120.125 C-129.63078934 120.95523682 -129.64829742 121.78547363 -129.66633606 122.64086914 C-129.65160861 126.55994216 -129.48354684 128.63386389 -127.41918945 132.05859375 C-125.2871832 134.03269953 -123.73417619 135.13021151 -121.0546875 136.1875 C-120.25788574 136.5069458 -119.46108398 136.8263916 -118.64013672 137.15551758 C-117.7895166 137.47544678 -116.93889648 137.79537598 -116.0625 138.125 C-115.17449707 138.46748779 -114.28649414 138.80997559 -113.37158203 139.1628418 C-74.71629198 153.74877124 -37.99640571 152.7655545 0.375 137.5625 C1.41926147 137.1598291 1.41926147 137.1598291 2.48461914 136.74902344 C6.88050778 134.91717465 9.32799261 133.18211572 11.8125 129.125 C12.35890281 126.03265775 12.30240897 123.00365072 12.23828125 119.87109375 C12.23334908 118.52604515 12.23334908 118.52604515 12.22831726 117.15382385 C12.21260403 114.28955564 12.16863814 111.42646391 12.125 108.5625 C12.11350025 106.66342117 12.10371757 104.76433111 12.09570312 102.86523438 C13.0953216 86.63524621 13.0953216 86.63524621 8.5625 72 C4.95027454 69.4287555 4.95027454 69.4287555 0.8125 68.125 C-1.96273357 68.87674351 -4.54281706 70.00859696 -7.1875 71.125 C-16.52885646 73.69387303 -26.40861476 71.87986584 -35.0390625 67.765625 C-41.11416742 64.28901629 -45.11330492 60.99243342 -47.6875 54.375 C-48.76388228 51.06914428 -48.76388228 51.06914428 -50.90234375 50.4296875 C-53.70574367 50.05590084 -56.4214854 49.99299005 -59.25 50 C-60.81427734 49.99613281 -60.81427734 49.99613281 -62.41015625 49.9921875 C-65.27430628 50.00362843 -65.27430628 50.00362843 -68.1875 51.125 Z " fill="#000000" transform="translate(171.1875,39.875)"/>
<path d="M0 0 C3.33761045 2.15090451 4.73470933 3.20412799 6 7 C6.25424949 10.45394084 6.23128473 13.91267423 6.25 17.375 C6.270625 18.32117188 6.29125 19.26734375 6.3125 20.2421875 C6.36201971 29.0566965 6.36201971 29.0566965 3 33 C-0.51253146 35.34168764 -1.86469356 35.49623677 -6 35 C-8.69990662 33.20006226 -10.5418865 31.916227 -12 29 C-12.29495558 25.23555311 -12.2779968 21.46215053 -12.3125 17.6875 C-12.34150391 16.64142578 -12.37050781 15.59535156 -12.40039062 14.51757812 C-12.46444683 6.77663172 -12.46444683 6.77663172 -10.10546875 2.83203125 C-6.68782922 -0.14175899 -4.50830239 -0.44199043 0 0 Z " fill="#000000" transform="translate(92,129)"/>
<path d="M0 0 C3.33761045 2.15090451 4.73470933 3.20412799 6 7 C6.25424949 10.45394084 6.23128473 13.91267423 6.25 17.375 C6.270625 18.32117188 6.29125 19.26734375 6.3125 20.2421875 C6.36140089 28.94654599 6.36140089 28.94654599 3 33 C0.3259797 35.10101595 -1.04284685 34.99846976 -4.5 34.875 C-8.41403624 33.89649094 -9.54247017 33.11886725 -12 30 C-12.51757812 27.31445312 -12.51757812 27.31445312 -12.53125 24.28125 C-12.53640625 23.18425781 -12.5415625 22.08726562 -12.546875 20.95703125 C-12.53140625 19.81621094 -12.5159375 18.67539063 -12.5 17.5 C-12.51546875 16.35917969 -12.5309375 15.21835938 -12.546875 14.04296875 C-12.54171875 12.94597656 -12.5365625 11.84898437 -12.53125 10.71875 C-12.52673828 9.71779297 -12.52222656 8.71683594 -12.51757812 7.68554688 C-11.8667096 4.30839888 -10.62977341 3.14359681 -8 1 C-5.14675563 -0.42662219 -3.16545451 -0.31033868 0 0 Z " fill="#000000" transform="translate(139,129)"/>
</svg>
