<?xml version="1.0" encoding="UTF-8"?>
<svg version="1.1" xmlns="http://www.w3.org/2000/svg" width="230" height="230">
<path d="M0 0 C75.9 0 151.8 0 230 0 C230 75.9 230 151.8 230 230 C154.1 230 78.2 230 0 230 C0 154.1 0 78.2 0 0 Z " fill="#FEFEFE" transform="translate(0,0)"/>
<path d="M0 0 C2.53125 -0.3984375 2.53125 -0.3984375 5.5 -0.375 C6.4796875 -0.38273437 7.459375 -0.39046875 8.46875 -0.3984375 C9.72171875 -0.20121094 9.72171875 -0.20121094 11 0 C13.56628339 3.84942509 13.29464462 7.04297887 13.25 11.5 C13.25773437 12.27214844 13.26546875 13.04429688 13.2734375 13.83984375 C13.25993153 17.73631468 13.20675169 19.68987247 11 23 C8.46875 23.3984375 8.46875 23.3984375 5.5 23.375 C4.5203125 23.38273437 3.540625 23.39046875 2.53125 23.3984375 C1.6959375 23.26695313 0.860625 23.13546875 0 23 C-2.56628339 19.15057491 -2.29464462 15.95702113 -2.25 11.5 C-2.25773437 10.72785156 -2.26546875 9.95570312 -2.2734375 9.16015625 C-2.25993153 5.26368532 -2.20675169 3.31012753 0 0 Z " fill="#F46B38" transform="translate(52,95)"/>
<path d="M0 0 C2.57385205 -0.2773676 4.87031753 -0.37287588 7.4375 -0.3125 C8.11876953 -0.31572266 8.80003906 -0.31894531 9.50195312 -0.32226562 C13.19980816 -0.28242585 14.85171631 -0.0988558 18 2 C18.66 1.34 19.32 0.68 20 0 C22.0625 0.25 22.0625 0.25 24 1 C25.38125018 3.76250036 25.19079306 5.94731099 25 9 C24.34 9.66 23.68 10.32 23 11 C21.68 11 20.36 11 19 11 C18.67 10.34 18.34 9.68 18 9 C17.67 9.99 17.34 10.98 17 12 C14.4375 13.1875 14.4375 13.1875 12 14 C12 13.34 12 12.68 12 12 C11.38125 12.185625 10.7625 12.37125 10.125 12.5625 C8 13 8 13 6 12 C6 12.66 6 13.32 6 14 C4.02 14.33 2.04 14.66 0 15 C0.33 14.34 0.66 13.68 1 13 C0.34 12.67 -0.32 12.34 -1 12 C-1.484375 10.0390625 -1.484375 10.0390625 -1.75 7.625 C-1.84796875 6.83351563 -1.9459375 6.04203125 -2.046875 5.2265625 C-2 3 -2 3 0 0 Z " fill="#F6EEE2" transform="translate(151,103)"/>
<path d="M0 0 C0.33 0 0.66 0 1 0 C1.33 2.31 1.66 4.62 2 7 C2.66 6.01 3.32 5.02 4 4 C4.66 4 5.32 4 6 4 C6.33 2.68 6.66 1.36 7 0 C8.99954746 -0.04254356 11.00041636 -0.04080783 13 0 C14 1 14 1 14.09765625 4.16015625 C14.08605469 5.44792969 14.07445312 6.73570313 14.0625 8.0625 C14.05347656 9.35285156 14.04445312 10.64320312 14.03515625 11.97265625 C14.02355469 12.97167969 14.01195312 13.97070312 14 15 C13.34 15 12.68 15 12 15 C11.67 14.01 11.34 13.02 11 12 C10.67 13.32 10.34 14.64 10 16 C7.69 16 5.38 16 3 16 C2.67 14.68 2.34 13.36 2 12 C1.34 12.99 0.68 13.98 0 15 C0 10.05 0 5.1 0 0 Z " fill="#F05824" transform="translate(134,99)"/>
<path d="M0 0 C0.66 0.66 1.32 1.32 2 2 C3.98821313 2.39764263 5.98944339 2.73775349 8 3 C7.67 6.96 7.34 10.92 7 15 C2 15 2 15 0.1875 13.5 C-0.204375 13.005 -0.59625 12.51 -1 12 C-1.99 13.485 -1.99 13.485 -3 15 C-3.99 14.67 -4.98 14.34 -6 14 C-6.33 10.7 -6.66 7.4 -7 4 C-5.68 3.34 -4.36 2.68 -3 2 C-2.01 2.33 -1.02 2.66 0 3 C0 2.01 0 1.02 0 0 Z " fill="#F6F2E8" transform="translate(184,99)"/>
<path d="M0 0 C2.97 0 5.94 0 9 0 C9 4.62 9 9.24 9 14 C7.68 12.35 6.36 10.7 5 9 C4.34 8.34 3.68 7.68 3 7 C3 8.65 3 10.3 3 12 C3.66 12 4.32 12 5 12 C5.66 13.65 6.32 15.3 7 17 C4.03 17 1.06 17 -2 17 C-2 12.38 -2 7.76 -2 3 C-1.01 3.495 -1.01 3.495 0 4 C0 2.68 0 1.36 0 0 Z " fill="#F7F5ED" transform="translate(54,98)"/>
<path d="M0 0 C0.66 0 1.32 0 2 0 C2.66 1.32 3.32 2.64 4 4 C4.33 2.68 4.66 1.36 5 0 C5.99 0 6.98 0 8 0 C8.33 1.65 8.66 3.3 9 5 C9.66 3.35 10.32 1.7 11 0 C11.66 0 12.32 0 13 0 C12.03644647 10.55808656 12.03644647 10.55808656 11 15 C10.01 15 9.02 15 8 15 C7.34 13.68 6.68 12.36 6 11 C5.67 12.32 5.34 13.64 5 15 C4.01 15 3.02 15 2 15 C1.34 10.05 0.68 5.1 0 0 Z " fill="#4F4E4D" transform="translate(68,99)"/>
<path d="M0 0 C0.639375 0.185625 1.27875 0.37125 1.9375 0.5625 C2.9584375 0.7790625 2.9584375 0.7790625 4 1 C4.33 0.67 4.66 0.34 5 0 C6.66617115 -0.04063832 8.33388095 -0.042721 10 0 C10 0.99 10 1.98 10 3 C9.34 3 8.68 3 8 3 C8 5.64 8 8.28 8 11 C7.443125 10.814375 6.88625 10.62875 6.3125 10.4375 C3.600867 9.92448835 1.65628961 10.3359276 -1 11 C-2.38550197 8.22899606 -2.1877467 6.0665294 -2 3 C-1.34 2.01 -0.68 1.02 0 0 Z " fill="#C9C7C8" transform="translate(97,103)"/>
<path d="M0 0 C0.33 0 0.66 0 1 0 C1.33 2.31 1.66 4.62 2 7 C2.66 6.01 3.32 5.02 4 4 C4.66 4 5.32 4 6 4 C7.28317892 7.84953676 7.06643637 10.94738135 7 15 C7.66 15 8.32 15 9 15 C9 13.02 9 11.04 9 9 C9.66 9 10.32 9 11 9 C10.67 11.31 10.34 13.62 10 16 C7.69 16 5.38 16 3 16 C2.67 14.68 2.34 13.36 2 12 C1.34 12.99 0.68 13.98 0 15 C0 10.05 0 5.1 0 0 Z " fill="#EFE5D7" transform="translate(134,99)"/>
<path d="M0 0 C0 3.63 0 7.26 0 11 C-1.99954746 11.04254356 -4.00041636 11.04080783 -6 11 C-7 10 -7 10 -7.09765625 7.93359375 C-7.08605469 7.10988281 -7.07445313 6.28617187 -7.0625 5.4375 C-7.05347656 4.61121094 -7.04445313 3.78492187 -7.03515625 2.93359375 C-7.02355469 2.29550781 -7.01195313 1.65742187 -7 1 C-5 0 -5 0 0 0 Z " fill="#383737" transform="translate(127,103)"/>
<path d="M0 0 C2.35513275 1.82965958 2.96057626 2.79978372 3.546875 5.77734375 C3.61390625 6.82019531 3.6809375 7.86304687 3.75 8.9375 C3.82734375 9.97777344 3.9046875 11.01804687 3.984375 12.08984375 C3.99810758 14.64753635 3.76937518 16.58113108 3 19 C2.34 19 1.68 19 1 19 C0.01 21.475 0.01 21.475 -1 24 C-1.66 24 -2.32 24 -3 24 C-3 23.34 -3 22.68 -3 22 C-3.66 21.67 -4.32 21.34 -5 21 C-5.33 21.33 -5.66 21.66 -6 22 C-8.0625 21.5625 -8.0625 21.5625 -10 21 C-10 20.34 -10 19.68 -10 19 C-7.36 19 -4.72 19 -2 19 C-2 17.35 -2 15.7 -2 14 C-1.34 14.33 -0.68 14.66 0 15 C0 15.99 0 16.98 0 18 C0.66 18 1.32 18 2 18 C1.835 16.989375 1.67 15.97875 1.5 14.9375 C1.0298192 11.2348262 1 7.7248588 1 4 C0.57145005 1.68963085 0.57145005 1.68963085 0 0 Z " fill="#F6F4ED" transform="translate(146,96)"/>
<path d="M0 0 C1.65 0 3.3 0 5 0 C5 3.63 5 7.26 5 11 C3.35 11 1.7 11 0 11 C-2 8 -2 8 -1.6875 4.375 C-1 1 -1 1 0 0 Z " fill="#2F2E2E" transform="translate(83,103)"/>
<path d="M0 0 C6.93359375 -0.09765625 6.93359375 -0.09765625 9 0 C10 1 10 1 10.09765625 3.28515625 C10.08605469 4.20167969 10.07445312 5.11820312 10.0625 6.0625 C10.05347656 6.98160156 10.04445312 7.90070313 10.03515625 8.84765625 C10.02355469 9.55792969 10.01195312 10.26820312 10 11 C9.67 11 9.34 11 9 11 C9 8.36 9 5.72 9 3 C8.01 3 7.02 3 6 3 C6 5.64 6 8.28 6 11 C5.34 11 4.68 11 4 11 C4 8.36 4 5.72 4 3 C3.34 3 2.68 3 2 3 C2 5.64 2 8.28 2 11 C1.34 11 0.68 11 0 11 C0 7.37 0 3.74 0 0 Z " fill="#F05E2B" transform="translate(157,103)"/>
<path d="M0 0 C2.0625 0.25 2.0625 0.25 4 1 C5.38125018 3.76250036 5.19079306 5.94731099 5 9 C4.34 9.66 3.68 10.32 3 11 C1.68 11 0.36 11 -1 11 C-2.50662097 7.98675805 -2.17770373 5.31713623 -2 2 C-1.34 1.34 -0.68 0.68 0 0 Z " fill="#EE6229" transform="translate(171,103)"/>
<path d="M0 0 C6.93359375 -0.09765625 6.93359375 -0.09765625 9 0 C10 1 10 1 10.09765625 3.28515625 C10.08605469 4.20167969 10.07445313 5.11820312 10.0625 6.0625 C10.05347656 6.98160156 10.04445313 7.90070313 10.03515625 8.84765625 C10.02355469 9.55792969 10.01195313 10.26820312 10 11 C9.67 11 9.34 11 9 11 C9 8.36 9 5.72 9 3 C8.01 3 7.02 3 6 3 C6 5.64 6 8.28 6 11 C5.67 11 5.34 11 5 11 C5 8.36 5 5.72 5 3 C4.01 3 3.02 3 2 3 C2 5.64 2 8.28 2 11 C1.34 11 0.68 11 0 11 C0 7.37 0 3.74 0 0 Z " fill="#282727" transform="translate(108,103)"/>
<path d="M0 0 C0.33 0.66 0.66 1.32 1 2 C1.66 2 2.32 2 3 2 C2.979375 3.2375 2.95875 4.475 2.9375 5.75 C2.90617949 11.44700936 2.90617949 11.44700936 6 16 C5.01 16 4.02 16 3 16 C2.34 17.32 1.68 18.64 1 20 C1.020625 19.21625 1.04125 18.4325 1.0625 17.625 C1.18684063 15.01885039 1.18684063 15.01885039 0 13 C0 11 0 9 0 7 C-0.33 6.34 -0.66 5.68 -1 5 C-3.52733235 4.34444881 -3.52733235 4.34444881 -6 4 C-5.67 3.01 -5.34 2.02 -5 1 C-3.35 0.67 -1.7 0.34 0 0 Z " fill="#F6F4EC" transform="translate(175,99)"/>
<path d="M0 0 C1.32 0.33 2.64 0.66 4 1 C4.33 2.65 4.66 4.3 5 6 C3.35 6 1.7 6 0 6 C0.33 6.66 0.66 7.32 1 8 C3.02463255 8.65213292 3.02463255 8.65213292 5 9 C4.67 9.66 4.34 10.32 4 11 C2.35 10.67 0.7 10.34 -1 10 C-2.25 3.375 -2.25 3.375 0 0 Z " fill="#EF5822" transform="translate(151,103)"/>
<path d="M0 0 C1.51400391 0.01740234 1.51400391 0.01740234 3.05859375 0.03515625 C4.07050781 0.04417969 5.08242188 0.05320312 6.125 0.0625 C7.29869141 0.07990234 7.29869141 0.07990234 8.49609375 0.09765625 C8.49609375 0.75765625 8.49609375 1.41765625 8.49609375 2.09765625 C5.19609375 2.09765625 1.89609375 2.09765625 -1.50390625 2.09765625 C-0.51390625 3.58265625 -0.51390625 3.58265625 0.49609375 5.09765625 C0.16609375 6.08765625 -0.16390625 7.07765625 -0.50390625 8.09765625 C-0.83390625 7.76765625 -1.16390625 7.43765625 -1.50390625 7.09765625 C-1.83390625 11.05765625 -2.16390625 15.01765625 -2.50390625 19.09765625 C-2.83390625 19.09765625 -3.16390625 19.09765625 -3.50390625 19.09765625 C-3.53074612 16.11843032 -3.55066662 13.1394433 -3.56640625 10.16015625 C-3.57478516 9.31001953 -3.58316406 8.45988281 -3.59179688 7.58398438 C-3.59501953 6.77509766 -3.59824219 5.96621094 -3.6015625 5.1328125 C-3.60679932 4.38394775 -3.61203613 3.63508301 -3.61743164 2.86352539 C-3.4339598 0.00965048 -2.85703563 0.11142885 0 0 Z " fill="#F35522" transform="translate(54.50390625,94.90234375)"/>
<path d="M0 0 C1.32 0.33 2.64 0.66 4 1 C4 2.65 4 4.3 4 6 C2.68 6 1.36 6 0 6 C0 6.99 0 7.98 0 9 C1.32 8.67 2.64 8.34 4 8 C3.67 8.99 3.34 9.98 3 11 C1.68 11 0.36 11 -1 11 C-2.38550197 8.22899606 -2.1877467 6.0665294 -2 3 C-1.34 2.01 -0.68 1.02 0 0 Z " fill="#3E3D3E" transform="translate(97,103)"/>
<path d="M0 0 C2.56687367 3.8503105 1.83288724 5.58569763 1 10 C-0.65 10.66 -2.3 11.32 -4 12 C-5.35015859 7.94952424 -4.62084998 5.2079832 -4 1 C-2.68 0.67 -1.36 0.34 0 0 Z " fill="#F3D9C3" transform="translate(167,105)"/>
<path d="M0 0 C5.57142857 5.14285714 5.57142857 5.14285714 6 9 C6.66 9 7.32 9 8 9 C7.67 10.32 7.34 11.64 7 13 C3.7 12.67 0.4 12.34 -3 12 C-3 11.67 -3 11.34 -3 11 C-0.36 11 2.28 11 5 11 C4.34 9.35 3.68 7.7 3 6 C2.34 6 1.68 6 1 6 C0.67 4.02 0.34 2.04 0 0 Z " fill="#F36124" transform="translate(56,104)"/>
<path d="M0 0 C0.33 0.66 0.66 1.32 1 2 C2.32 2 3.64 2 5 2 C5 3.65 5 5.3 5 7 C3.68 7 2.36 7 1 7 C1.33 7.66 1.66 8.32 2 9 C2.039992 10.99960012 2.04346799 13.00047242 2 15 C1.34 15 0.68 15 0 15 C0 10.05 0 5.1 0 0 Z " fill="#F39068" transform="translate(141,99)"/>
<path d="M0 0 C0.99 0.495 0.99 0.495 2 1 C2 2.32 2 3.64 2 5 C2.66 5 3.32 5 4 5 C4.33 3.35 4.66 1.7 5 0 C6.60080151 4.00200378 5.29279692 7.04556236 4 11 C3.01 10.67 2.02 10.34 1 10 C0.67 6.7 0.34 3.4 0 0 Z " fill="#EF6A38" transform="translate(177,103)"/>
<path d="M0 0 C0.66 0.66 1.32 1.32 2 2 C1.9765625 4.3828125 1.9765625 4.3828125 1.625 7.125 C1.51414063 8.03507812 1.40328125 8.94515625 1.2890625 9.8828125 C1.19367187 10.58148438 1.09828125 11.28015625 1 12 C1.99 12 2.98 12 4 12 C4.33 11.01 4.66 10.02 5 9 C5.66 9 6.32 9 7 9 C7.66 10.65 8.32 12.3 9 14 C6.03 14 3.06 14 0 14 C0 9.38 0 4.76 0 0 Z " fill="#F9F1E6" transform="translate(52,101)"/>
<path d="M0 0 C0.66 1.32 1.32 2.64 2 4 C3.65 3.67 5.3 3.34 7 3 C7 3.66 7 4.32 7 5 C6.01 5 5.02 5 4 5 C4 5.66 4 6.32 4 7 C4.66 7.33 5.32 7.66 6 8 C5.01 8 4.02 8 3 8 C1.9790625 8.2784375 1.9790625 8.2784375 0.9375 8.5625 C-1 9 -1 9 -3 8 C-2.67 7.01 -2.34 6.02 -2 5 C-1.34 5 -0.68 5 0 5 C0 3.35 0 1.7 0 0 Z " fill="#F7F4EA" transform="translate(168,110)"/>
<path d="M0 0 C0.66 0 1.32 0 2 0 C2 0.99 2 1.98 2 3 C2.66 3 3.32 3 4 3 C3.34 5.97 2.68 8.94 2 12 C2.66 12 3.32 12 4 12 C4 12.66 4 13.32 4 14 C2.68 13.67 1.36 13.34 0 13 C-0.19658808 11.58456585 -0.38187546 10.16755969 -0.5625 8.75 C-0.66691406 7.96109375 -0.77132812 7.1721875 -0.87890625 6.359375 C-1.00027349 3.99467126 -0.69633257 2.2488963 0 0 Z " fill="#3F3E3E" transform="translate(90,100)"/>
<path d="M0 0 C0.66 0 1.32 0 2 0 C1.03644647 10.55808656 1.03644647 10.55808656 0 15 C-0.99 15 -1.98 15 -3 15 C-3 13.02 -3 11.04 -3 9 C-2.67 9 -2.34 9 -2 9 C-1.34 6.03 -0.68 3.06 0 0 Z " fill="#444443" transform="translate(79,99)"/>
<path d="M0 0 C0.33 0 0.66 0 1 0 C1.33 2.31 1.66 4.62 2 7 C2.99 6.01 3.98 5.02 5 4 C4.79375 5.0725 4.5875 6.145 4.375 7.25 C4.0123809 10.87619096 4.01637931 12.08291076 6 15 C5.01 14.67 4.02 14.34 3 14 C2.67 13.34 2.34 12.68 2 12 C1.34 12.99 0.68 13.98 0 15 C0 10.05 0 5.1 0 0 Z " fill="#191919" transform="translate(134,99)"/>
<path d="M0 0 C0.99 0 1.98 0 3 0 C3 2 3 2 1.5 3.625 C1.005 4.07875 0.51 4.5325 0 5 C1.32 5.33 2.64 5.66 4 6 C2.68 6 1.36 6 0 6 C0 6.99 0 7.98 0 9 C1.32 8.67 2.64 8.34 4 8 C3.67 8.99 3.34 9.98 3 11 C-0.875 10.125 -0.875 10.125 -2 9 C-2.26293056 4.96839809 -2.29404844 3.44107266 0 0 Z " fill="#F2531B" transform="translate(186,103)"/>
<path d="M0 0 C0.99 0.33 1.98 0.66 3 1 C2.67 2.32 2.34 3.64 2 5 C1.01 5 0.02 5 -1 5 C-1 6.65 -1 8.3 -1 10 C-1.99 10.495 -1.99 10.495 -3 11 C-3.33 8.03 -3.66 5.06 -4 2 C-2.68 1.34 -1.36 0.68 0 0 Z " fill="#E0E0DF" transform="translate(138,96)"/>
<path d="M0 0 C0.66 0 1.32 0 2 0 C2.66 3.3 3.32 6.6 4 10 C4.33 10 4.66 10 5 10 C5 11.65 5 13.3 5 15 C4.01 15 3.02 15 2 15 C1.34 10.05 0.68 5.1 0 0 Z " fill="#313030" transform="translate(68,99)"/>
<path d="M0 0 C2 2 2 2 2.1953125 3.9453125 C2.13020833 5.96354167 2.06510417 7.98177083 2 10 C1.34 9.67 0.68 9.34 0 9 C-0.99 8.67 -1.98 8.34 -3 8 C-3.1875 5.125 -3.1875 5.125 -3 2 C-2.01 1.34 -1.02 0.68 0 0 Z " fill="#F5B897" transform="translate(189,104)"/>
<path d="M0 0 C0.99 0 1.98 0 3 0 C3 0.66 3 1.32 3 2 C4.32 1.67 5.64 1.34 7 1 C7 2.65 7 4.3 7 6 C6.67 5.01 6.34 4.02 6 3 C5.34 3 4.68 3 4 3 C4.33 4.98 4.66 6.96 5 9 C4.67 8.01 4.34 7.02 4 6 C3.34 6 2.68 6 2 6 C1.67 6.66 1.34 7.32 1 8 C0.67 5.36 0.34 2.72 0 0 Z " fill="#E9E9E7" transform="translate(64,96)"/>
<path d="M0 0 C0.66 0 1.32 0 2 0 C2 3.96 2 7.92 2 12 C1.01 12 0.02 12 -1 12 C-1 9.36 -1 6.72 -1 4 C-0.34 4 0.32 4 1 4 C0.67 2.68 0.34 1.36 0 0 Z " fill="#F4F3F4" transform="translate(106,102)"/>
<path d="M0 0 C1.32 0 2.64 0 4 0 C4 0.99 4 1.98 4 3 C3.34 3 2.68 3 2 3 C2 5.64 2 8.28 2 11 C1.34 11 0.68 11 0 11 C0 7.37 0 3.74 0 0 Z " fill="#333231" transform="translate(128,103)"/>
<path d="M0 0 C0.33 0.99 0.66 1.98 1 3 C1.99 3.33 2.98 3.66 4 4 C3.67 5.98 3.34 7.96 3 10 C2.01 10 1.02 10 0 10 C0 6.7 0 3.4 0 0 Z " fill="#F9FBF9" transform="translate(53,103)"/>
<path d="M0 0 C1.32 0 2.64 0 4 0 C4 0.99 4 1.98 4 3 C3.34 3 2.68 3 2 3 C2 5.64 2 8.28 2 11 C1.34 11 0.68 11 0 11 C0 7.37 0 3.74 0 0 Z " fill="#363535" transform="translate(103,103)"/>
<path d="M0 0 C2.0625 0.4375 2.0625 0.4375 4 1 C4.33 2.65 4.66 4.3 5 6 C3.35 5.67 1.7 5.34 0 5 C-0.5625 3.0625 -0.5625 3.0625 -1 1 C-0.67 0.67 -0.34 0.34 0 0 Z " fill="#F0865B" transform="translate(151,103)"/>
<path d="M0 0 C0.99 0.33 1.98 0.66 3 1 C3 2.98 3 4.96 3 7 C2.01 7 1.02 7 0 7 C0 4.69 0 2.38 0 0 Z " fill="#F6E7D9" transform="translate(171,105)"/>
<path d="M0 0 C4.875 4.75 4.875 4.75 6 7 C5.01 7.33 4.02 7.66 3 8 C3 7.34 3 6.68 3 6 C2.34 6 1.68 6 1 6 C0.67 4.02 0.34 2.04 0 0 Z " fill="#ED9971" transform="translate(56,104)"/>
<path d="M0 0 C2.125 0.375 2.125 0.375 4 1 C3.67 1.99 3.34 2.98 3 4 C2.01 3.34 1.02 2.68 0 2 C-0.33 4.31 -0.66 6.62 -1 9 C-1.33 9 -1.66 9 -2 9 C-2.125 5.625 -2.125 5.625 -2 2 C-1.34 1.34 -0.68 0.68 0 0 Z " fill="#F1501B" transform="translate(171,103)"/>
<path d="M0 0 C0.99 0.33 1.98 0.66 3 1 C3 2.65 3 4.3 3 6 C2.01 6.33 1.02 6.66 0 7 C0 4.69 0 2.38 0 0 Z " fill="#E6E4E5" transform="translate(122,105)"/>
<path d="M0 0 C0 2.31 0 4.62 0 7 C-0.99 7 -1.98 7 -3 7 C-3 5.02 -3 3.04 -3 1 C-1 0 -1 0 0 0 Z " fill="#252524" transform="translate(79,107)"/>
<path d="M0 0 C0.33 0 0.66 0 1 0 C1 3.3 1 6.6 1 10 C0.01 9.01 -0.98 8.02 -2 7 C-1.75 5 -1.75 5 -1 3 C-0.67 2.01 -0.34 1.02 0 0 Z " fill="#D9DDDC" transform="translate(139,103)"/>
<path d="M0 0 C0.99 0 1.98 0 3 0 C3 1.98 3 3.96 3 6 C2.01 5.67 1.02 5.34 0 5 C0 3.35 0 1.7 0 0 Z " fill="#EEECED" transform="translate(83,106)"/>
</svg>
