<?xml version="1.0" encoding="UTF-8"?>
<svg version="1.1" xmlns="http://www.w3.org/2000/svg" width="230" height="230">
<path d="M0 0 C0.33 0 0.66 0 1 0 C1.33 2.64 1.66 5.28 2 8 C2.99 7.01 3.98 6.02 5 5 C4.79375 5.886875 4.5875 6.77375 4.375 7.6875 C3.97449761 11.2252711 4.43316484 12.86632967 6 16 C5.01 15.67 4.02 15.34 3 15 C2.67 14.34 2.34 13.68 2 13 C1.34 13.99 0.68 14.98 0 16 C0 10.72 0 5.44 0 0 Z " fill="#000000" transform="translate(134,98)"/>
<path d="M0 0 C0.66 0 1.32 0 2 0 C2.66 2.31 3.32 4.62 4 7 C4.66 4.69 5.32 2.38 6 0 C6.66 0 7.32 0 8 0 C8.33 1.98 8.66 3.96 9 6 C9.66 4.02 10.32 2.04 11 0 C11.66 0 12.32 0 13 0 C12.34 4.95 11.68 9.9 11 15 C10.01 15 9.02 15 8 15 C7.67 13.35 7.34 11.7 7 10 C6.34 11.65 5.68 13.3 5 15 C4.01 15 3.02 15 2 15 C1.34 10.05 0.68 5.1 0 0 Z " fill="#000000" transform="translate(68,99)"/>
<path d="M0 0 C0.66 0 1.32 0 2 0 C3.125 1.5625 3.125 1.5625 4 4 C3.125 7.75 3.125 7.75 2 11 C2.66 11 3.32 11 4 11 C4 11.66 4 12.32 4 13 C3.01 13 2.02 13 1 13 C0.63631108 11.39796533 0.28438048 9.79325797 -0.0625 8.1875 C-0.25972656 7.29417969 -0.45695312 6.40085937 -0.66015625 5.48046875 C-1 3 -1 3 0 0 Z " fill="#000000" transform="translate(90,101)"/>
<path d="M0 0 C1.65 0 3.3 0 5 0 C5 3.63 5 7.26 5 11 C3.35 11 1.7 11 0 11 C-2 8 -2 8 -1.6875 4.375 C-1 1 -1 1 0 0 Z M1 2 C-0.29633621 3.06645115 -0.29633621 3.06645115 -0.0625 5.5625 C-0.041875 6.366875 -0.02125 7.17125 0 8 C0.99 8.33 1.98 8.66 3 9 C3.33 7.35 3.66 5.7 4 4 C3.01 3.34 2.02 2.68 1 2 Z " fill="#000000" transform="translate(83,103)"/>
<path d="M0 0 C2.125 0.375 2.125 0.375 4 1 C4 2.65 4 4.3 4 6 C2.68 6 1.36 6 0 6 C0 6.99 0 7.98 0 9 C1.32 8.67 2.64 8.34 4 8 C3.67 8.99 3.34 9.98 3 11 C1.68 11 0.36 11 -1 11 C-2.50662097 7.98675805 -2.17770373 5.31713623 -2 2 C-1.34 1.34 -0.68 0.68 0 0 Z M0 2 C0 2.99 0 3.98 0 5 C0.99 5 1.98 5 3 5 C2.67 4.01 2.34 3.02 2 2 C1.34 2 0.68 2 0 2 Z " fill="#000000" transform="translate(97,103)"/>
<path d="M0 0 C1.32 0 2.64 0 4 0 C4 0.99 4 1.98 4 3 C3.34 3 2.68 3 2 3 C2 5.64 2 8.28 2 11 C1.34 11 0.68 11 0 11 C0 7.37 0 3.74 0 0 Z " fill="#000000" transform="translate(103,103)"/>
<path d="M0 0 C6.93359375 -0.09765625 6.93359375 -0.09765625 9 0 C10 1 10 1 10.09765625 3.28515625 C10.08605469 4.20167969 10.07445313 5.11820312 10.0625 6.0625 C10.05347656 6.98160156 10.04445313 7.90070313 10.03515625 8.84765625 C10.02355469 9.55792969 10.01195313 10.26820312 10 11 C9.67 11 9.34 11 9 11 C8.67 8.36 8.34 5.72 8 3 C7.67 3 7.34 3 7 3 C6.67 5.64 6.34 8.28 6 11 C5.34 11 4.68 11 4 11 C3.67 8.36 3.34 5.72 3 3 C2.67 5.64 2.34 8.28 2 11 C1.34 11 0.68 11 0 11 C0 7.37 0 3.74 0 0 Z " fill="#000000" transform="translate(108,103)"/>
<path d="M0 0 C2.625 0.375 2.625 0.375 5 1 C5 4.3 5 7.6 5 11 C3.00045254 11.04254356 0.99958364 11.04080783 -1 11 C-2.89488952 9.10511048 -2.18019112 6.42860854 -2.23046875 3.91015625 C-2 2 -2 2 0 0 Z M0 2 C-1.00217064 5.58327753 -1.00217064 5.58327753 0 9 C0.99 8.67 1.98 8.34 3 8 C3 6.35 3 4.7 3 3 C2.01 2.67 1.02 2.34 0 2 Z " fill="#000000" transform="translate(122,103)"/>
<path d="M0 0 C1.32 0 2.64 0 4 0 C4 0.99 4 1.98 4 3 C3.34 3 2.68 3 2 3 C2 5.64 2 8.28 2 11 C1.34 11 0.68 11 0 11 C0 7.37 0 3.74 0 0 Z " fill="#000000" transform="translate(128,103)"/>
</svg>
