<?xml version="1.0" encoding="UTF-8"?>
<svg version="1.1" xmlns="http://www.w3.org/2000/svg" width="225" height="225">
<path d="M0 0 C3.26015491 2.64980628 4.81744135 5.24167945 5.8125 9.375 C5.874375 10.24125 5.93625 11.1075 6 12 C2.62153287 12.28523644 -0.63281069 12.45693684 -4 12 C-6 9.5625 -6 9.5625 -7 7 C-10.69394639 5.15302681 -14.96750487 5.52366967 -19 6 C-22.09460396 8.16622277 -23.582752 10.54358927 -25 14 C-25.65328791 20.56681617 -26.16923857 27.53685981 -22 33 C-19.06791771 35.44340191 -17.31177679 35.96659534 -13.5 36.375 C-9.70224853 35.96809806 -7.89206705 35.47891462 -5 33 C-3.64019119 29.92438754 -3.64019119 29.92438754 -3 27 C-6.3 26.67 -9.6 26.34 -13 26 C-13 23.69 -13 21.38 -13 19 C-6.4 19 0.2 19 7 19 C7 27.25 7 35.5 7 44 C4.69 44 2.38 44 0 44 C-0.495 42.02 -0.495 42.02 -1 40 C-1.763125 40.639375 -2.52625 41.27875 -3.3125 41.9375 C-8.19937629 45.68789344 -13.06915578 45.49725066 -19 45 C-25.79470108 42.84834466 -30.99711654 39.43038245 -34.375 33.125 C-37.25517754 25.84556394 -37.23445147 17.52236548 -35.1875 10.0234375 C-32.42288193 3.66865569 -28.19086513 0.00129597 -22 -3 C-14.09997644 -5.43772156 -7.09968455 -3.95240171 0 0 Z " fill="#000000" transform="translate(140,92)"/>
<path d="M0 0 C11.55 0 23.1 0 35 0 C35 2.97 35 5.94 35 9 C26.75 9 18.5 9 10 9 C10 12.3 10 15.6 10 19 C17.59 19 25.18 19 33 19 C33 21.64 33 24.28 33 27 C25.41 27 17.82 27 10 27 C10.33 30.63 10.66 34.26 11 38 C19.25 38.33 27.5 38.66 36 39 C36 41.64 36 44.28 36 47 C24.12 47 12.24 47 0 47 C0 31.49 0 15.98 0 0 Z " fill="#000000" transform="translate(20,89)"/>
<path d="M0 0 C11.88 0 23.76 0 36 0 C36 10.35689733 36 10.35689733 31.0625 15.9375 C30.31794556 16.83082031 30.31794556 16.83082031 29.55834961 17.7421875 C25.82742455 22.1799305 21.94746182 26.4987695 17.97265625 30.71875 C15.49269675 33.49087187 15.49269675 33.49087187 12 39 C20.25 39 28.5 39 37 39 C37 41.64 37 44.28 37 47 C24.13 47 11.26 47 -2 47 C-2 36.87799636 -2 36.87799636 0.52734375 34.2265625 C1.33884888 33.33855957 1.33884888 33.33855957 2.16674805 32.43261719 C2.75109619 31.83610352 3.33544434 31.23958984 3.9375 30.625 C5.13145996 29.3318837 6.32416032 28.03760329 7.515625 26.7421875 C8.10666016 26.11280273 8.69769531 25.48341797 9.30664062 24.83496094 C11.71497212 22.22524071 13.94943929 19.5073493 16.1875 16.75 C16.88230469 15.89921875 17.57710937 15.0484375 18.29296875 14.171875 C20.11595324 11.91062001 20.11595324 11.91062001 22 9 C14.74 9 7.48 9 0 9 C0 6.03 0 3.06 0 0 Z " fill="#000000" transform="translate(62,89)"/>
<path d="M0 0 C3.3 0 6.6 0 10 0 C10 15.51 10 31.02 10 47 C6.7 47 3.4 47 0 47 C0 31.49 0 15.98 0 0 Z " fill="#000000" transform="translate(156,89)"/>
<path d="M0 0 C10.89 0 21.78 0 33 0 C33 2.97 33 5.94 33 9 C25.41 9 17.82 9 10 9 C10 12.63 10 16.26 10 20 C16.6 20 23.2 20 30 20 C30 22.64 30 25.28 30 28 C23.4 28 16.8 28 10 28 C10 34.27 10 40.54 10 47 C6.7 47 3.4 47 0 47 C0 31.49 0 15.98 0 0 Z " fill="#000000" transform="translate(175,89)"/>
</svg>
