<?xml version="1.0" encoding="UTF-8"?>
<svg version="1.1" xmlns="http://www.w3.org/2000/svg" width="225" height="225">
<path d="M0 0 C9.24 0 18.48 0 28 0 C28 28.71 28 57.42 28 87 C25.69 87 23.38 87 21 87 C21.495 85.515 21.495 85.515 22 84 C22.11964338 81.43055764 22.18525624 78.88612619 22.20532227 76.31567383 C22.22017166 75.14458824 22.22017166 75.14458824 22.23532104 73.94984436 C22.26691177 71.36893752 22.29168388 68.78801227 22.31640625 66.20703125 C22.33697787 64.41769431 22.3579744 62.6283622 22.37937927 60.83903503 C22.43457842 56.12907834 22.48399723 51.41907794 22.53222656 46.70904541 C22.58245731 41.90299591 22.63813517 37.09700988 22.69335938 32.29101562 C22.8009146 22.86072929 22.9018621 13.43038905 23 4 C11.615 4.99 11.615 4.99 0 6 C0 4.02 0 2.04 0 0 Z " fill="#000000" transform="translate(4,69)"/>
<path d="M0 0 C9.24 0 18.48 0 28 0 C27.67 2.31 27.34 4.62 27 7 C25.4840625 6.5359375 25.4840625 6.5359375 23.9375 6.0625 C19.72156052 4.98636214 15.519846 4.68269956 11.19140625 4.43359375 C10.49825317 4.39069214 9.8051001 4.34779053 9.09094238 4.30358887 C7.39416434 4.19904804 5.69710677 4.09906122 4 4 C4.10751936 14.23130446 4.2201565 24.46253851 4.33933926 34.69371414 C4.39451865 39.44438626 4.44793071 44.1950646 4.49731445 48.94580078 C4.54503147 53.52995894 4.59737697 58.11404296 4.65294075 62.69811249 C4.67333105 64.44759018 4.69204959 66.19708818 4.70907402 67.94660187 C4.73319167 70.39579102 4.76323611 72.84484076 4.79467773 75.29394531 C4.8004332 76.01827255 4.80618866 76.74259979 4.81211853 77.48887634 C4.86040801 80.79514067 4.98504708 83.83666066 6 87 C4.02 87 2.04 87 0 87 C0 58.29 0 29.58 0 0 Z " fill="#000000" transform="translate(35,69)"/>
<path d="M0 0 C1.98 0 3.96 0 6 0 C6 28.71 6 57.42 6 87 C4.02 87 2.04 87 0 87 C0.495 86.01 0.495 86.01 1 85 C1.09820318 82.42213696 1.13630801 79.87131972 1.12939453 77.29321289 C1.13114685 76.49794693 1.13289917 75.70268097 1.13470459 74.88331604 C1.13911679 72.24640744 1.13618705 69.60956557 1.1328125 66.97265625 C1.13348579 65.1442412 1.13445602 63.31582624 1.13571167 61.4874115 C1.13718784 57.65151112 1.13503691 53.815634 1.13037109 49.97973633 C1.12467788 45.05886766 1.12795074 40.13805358 1.13394356 35.21718693 C1.13755477 31.44001351 1.13640793 27.66285305 1.13381577 23.88567924 C1.13314784 22.0711612 1.13397024 20.25664199 1.13629532 18.44212532 C1.13883055 15.90677899 1.13496871 13.37152136 1.12939453 10.83618164 C1.13141876 10.083349 1.13344299 9.33051636 1.13552856 8.55487061 C1.12277897 5.42969449 0.99613172 2.98839517 0 0 Z " fill="#000000" transform="translate(69,69)"/>
<path d="M0 0 C7.92 0 15.84 0 24 0 C23.67 2.31 23.34 4.62 23 7 C21.3603125 6.5359375 21.3603125 6.5359375 19.6875 6.0625 C14.00242767 4.66557916 14.00242767 4.66557916 4 4 C4 17.2 4 30.4 4 44 C13.63975974 43.11615113 13.63975974 43.11615113 23 41 C23 43.97 23 46.94 23 50 C22.34 49.67 21.68 49.34 21 49 C15.39 48.34 9.78 47.68 4 47 C4 58.88 4 70.76 4 83 C14.395 82.01 14.395 82.01 25 81 C24.67 82.98 24.34 84.96 24 87 C16.08 87 8.16 87 0 87 C0 58.29 0 29.58 0 0 Z " fill="#000000" transform="translate(79,69)"/>
<path d="M0 0 C1.98 0 3.96 0 6 0 C15.06683834 21.84818338 23.56854111 43.90060268 32 66 C32.48236801 67.26320417 32.96478614 68.52638919 33.44726562 69.78955078 C35.63713157 75.52424145 37.82250645 81.26060008 40 87 C37.69 87 35.38 87 33 87 C32.78601563 85.80503906 32.57203125 84.61007813 32.3515625 83.37890625 C30.84467702 76.59792161 28.05087443 70.32496168 25.375 63.9375 C24.85349685 62.67801151 24.33265838 61.41824759 23.8125 60.15820312 C22.5481558 57.10270464 21.27719072 54.05014568 20 51 C17.99675044 55.47991143 16.00322591 59.96397551 14.01855469 64.45214844 C13.34217033 65.97806636 12.66315267 67.50281988 11.98144531 69.02636719 C11.00149473 71.21768525 10.03111971 73.41302917 9.0625 75.609375 C8.75626709 76.2886908 8.45003418 76.96800659 8.13452148 77.66790771 C6.63941108 81.08369134 6 83.19996468 6 87 C3.36 87 0.72 87 -2 87 C-1.46632813 85.89527344 -0.93265625 84.79054688 -0.3828125 83.65234375 C4.07673842 74.36717447 8.42076904 65.02856839 12.625 55.625 C13.07472168 54.64523193 13.52444336 53.66546387 13.98779297 52.65600586 C14.39658691 51.73053955 14.80538086 50.80507324 15.2265625 49.8515625 C15.59346191 49.03510254 15.96036133 48.21864258 16.33837891 47.37744141 C17.82821956 42.02391067 14.86078593 36.73403221 12.91015625 31.77734375 C12.60556992 30.99484756 12.30098358 30.21235138 11.98716736 29.40614319 C11.34437846 27.75722758 10.69960727 26.10908351 10.05297852 24.46166992 C9.0651811 21.94433261 8.08384621 19.42455012 7.10351562 16.90429688 C6.4769412 15.29933127 5.85000042 13.69450864 5.22265625 12.08984375 C4.92988297 11.33871811 4.63710968 10.58759247 4.33546448 9.81370544 C3.02010003 6.46816436 1.69567234 3.17310008 0 0 Z " fill="#000000" transform="translate(113,69)"/>
<path d="M0 0 C1.98 0 3.96 0 6 0 C6.23074219 0.78761719 6.46148437 1.57523437 6.69921875 2.38671875 C9.74237095 15.56985362 9.74237095 15.56985362 16 27 C17.65093337 23.25222487 19.29485547 19.50141465 20.9375 15.75 C21.40607422 14.68652344 21.87464844 13.62304688 22.35742188 12.52734375 C22.80537109 11.50253906 23.25332031 10.47773437 23.71484375 9.421875 C24.33540649 8.00793457 24.33540649 8.00793457 24.96850586 6.56542969 C25.84968445 4.37384988 26.50459475 2.30398994 27 0 C29.31 0 31.62 0 34 0 C33.75878418 0.50225098 33.51756836 1.00450195 33.26904297 1.52197266 C30.48287515 7.33410685 27.73040945 13.16147446 25 19 C24.6596875 19.72380859 24.319375 20.44761719 23.96875 21.19335938 C23.08842419 23.08055783 22.22795589 24.97530585 21.375 26.875 C20.64410156 28.47988281 20.64410156 28.47988281 19.8984375 30.1171875 C18.20219608 35.55990996 20.79069159 40.41726297 22.765625 45.5390625 C23.04090027 46.26056488 23.31617554 46.98206726 23.59979248 47.72543335 C24.18291745 49.25080319 24.76802326 50.77541709 25.35498047 52.29931641 C26.23830006 54.59459803 27.11375895 56.89276067 27.98828125 59.19140625 C31.60573254 68.65328143 35.43185564 77.94907299 40 87 C37.69 87 35.38 87 33 87 C32.62939453 86.03328369 32.25878906 85.06656738 31.87695312 84.07055664 C30.08613659 79.4006278 28.2932136 74.73150883 26.5 70.0625 C26.16996979 69.20285645 25.83993958 68.34321289 25.49990845 67.45751953 C21.53555236 57.13495031 17.54847038 46.82183842 13.51171875 36.52734375 C12.96603745 35.1346804 12.96603745 35.1346804 12.40933228 33.71388245 C10.64563479 29.21389618 8.8782651 24.71540348 7.10546875 20.21899414 C6.45951924 18.57312502 5.81368024 16.92721252 5.16796875 15.28125 C4.87589035 14.54426376 4.58381195 13.80727753 4.28288269 13.04795837 C2.59960314 8.74651376 1.19970693 4.4613759 0 0 Z " fill="#000000" transform="translate(122,69)"/>
<path d="M0 0 C9.24 0 18.48 0 28 0 C28 28.71 28 57.42 28 87 C26.02 87 24.04 87 22 87 C22.16076523 86.49893738 22.32153046 85.99787476 22.48716736 85.48162842 C23.18774322 82.09149909 23.17793228 78.74098578 23.20532227 75.29394531 C23.21522186 74.52282913 23.22512146 73.75171295 23.23532104 72.95722961 C23.26685078 70.41422573 23.29165968 67.87120318 23.31640625 65.328125 C23.33698314 63.56263754 23.35797981 61.79715493 23.37937927 60.03167725 C23.43452399 55.38913909 23.48396675 50.74655702 23.53222656 46.10394287 C23.58249711 41.36482851 23.63815417 36.62577775 23.69335938 31.88671875 C23.80084798 22.5912002 23.90231356 13.29562637 24 4 C20.54105772 4.30598678 17.082985 4.62089228 13.625 4.9375 C12.64015625 5.02451172 11.6553125 5.11152344 10.640625 5.20117188 C9.22910156 5.33168945 9.22910156 5.33168945 7.7890625 5.46484375 C6.91975098 5.543396 6.05043945 5.62194824 5.15478516 5.70288086 C2.95507084 5.88877834 2.95507084 5.88877834 1 7 C0.67 4.69 0.34 2.38 0 0 Z " fill="#000000" transform="translate(162,69)"/>
<path d="M0 0 C9.24 0 18.48 0 28 0 C28 1.98 28 3.96 28 6 C20.41 5.34 12.82 4.68 5 4 C5.10800921 14.37895554 5.22007927 24.75784526 5.33933926 35.13667774 C5.39455063 39.95575988 5.44796783 44.7748481 5.49731445 49.59399414 C5.54498427 54.24298621 5.59732813 58.89190412 5.65294075 63.54080772 C5.67335242 65.31623175 5.69206747 67.0916761 5.70907402 68.867136 C5.73314427 71.35005682 5.7631953 73.83283749 5.79467773 76.31567383 C5.8004332 77.05294708 5.80618866 77.79022034 5.81211853 78.54983521 C5.85665414 81.63110834 6.01796304 84.05388911 7 87 C4.69 87 2.38 87 0 87 C0 58.29 0 29.58 0 0 Z " fill="#000000" transform="translate(193,69)"/>
</svg>
