<?xml version="1.0" encoding="UTF-8"?>
<svg version="1.1" xmlns="http://www.w3.org/2000/svg" width="665" height="602">
<path d="M0 0 C219.45 0 438.9 0 665 0 C665 198.66 665 397.32 665 602 C445.55 602 226.1 602 0 602 C0 403.34 0 204.68 0 0 Z " fill="#FBFBFB" transform="translate(0,0)"/>
<path d="M0 0 C0.33 0 0.66 0 1 0 C2.18137461 17.72061921 -8.67547757 32.24730923 -19.40942383 45.30395508 C-40.4472416 70.64221548 -40.4472416 70.64221548 -49 101 C-50.32 101.33 -51.64 101.66 -53 102 C-53.144375 102.78375 -53.28875 103.5675 -53.4375 104.375 C-54 107 -54 107 -55 109 C-55.10805433 129.3358254 -49.96195622 144.14653984 -35.72265625 159.00390625 C-34 161 -34 161 -34 163 C-33.34 163 -32.68 163 -32 163 C-32 163.66 -32 164.32 -32 165 C-31.18825317 165.3249646 -31.18825317 165.3249646 -30.36010742 165.65649414 C-27.18188941 167.46571455 -24.79355269 169.9209221 -22.23828125 172.49609375 C-21.68818893 173.04427261 -21.13809662 173.59245148 -20.57133484 174.15724182 C-19.40650491 175.32071215 -18.24419129 176.48670643 -17.08422852 177.6550293 C-15.342753 179.40706357 -13.59107046 181.14835941 -11.83789062 182.88867188 C-1.96551318 192.74796483 6.92805457 202.88929345 14 215 C14.474375 215.81082031 14.94875 216.62164063 15.4375 217.45703125 C19.54197188 225.01854343 22 233.36633817 22 242 C23.32 242.66 24.64 243.32 26 244 C25.67 245.65 25.34 247.3 25 249 C23.1875 249.625 23.1875 249.625 21 250 C20.01 249.34 19.02 248.68 18 248 C18.165 247.34 18.33 246.68 18.5 246 C19.63713383 239.17719704 19.05159523 233.77931908 16.5 227.375 C16.23082764 226.68696289 15.96165527 225.99892578 15.68432617 225.29003906 C10.98142459 213.66560904 4.91728928 204.25572813 -3.875 195.328125 C-6 193 -6 193 -6 191 C-6.66 191 -7.32 191 -8 191 C-9.4453125 189.53125 -9.4453125 189.53125 -11.125 187.5 C-15.92587156 181.86419425 -21.01096581 176.63327131 -26.6875 171.875 C-39.70234133 160.60918873 -49.32523807 147.90254341 -56 132 C-56.05553449 133.33282775 -56.09346189 134.66638865 -56.125 136 C-56.14820313 136.7425 -56.17140625 137.485 -56.1953125 138.25 C-55.1381521 153.13481848 -46.79245606 167.79557371 -40.40625 180.98046875 C-32.00800141 198.36602804 -27.92965924 213.76465656 -26.7890625 233.0703125 C-26.67691406 234.75253906 -26.67691406 234.75253906 -26.5625 236.46875 C-26.50191406 237.48388672 -26.44132813 238.49902344 -26.37890625 239.54492188 C-26.2208561 242.17312921 -26.2208561 242.17312921 -24 244 C-24.375 246.625 -24.375 246.625 -25 249 C-26.98 249 -28.96 249 -31 249 C-31.625 246.625 -31.625 246.625 -32 244 C-31.34 243.34 -30.68 242.68 -30 242 C-26.52469219 218.35330477 -35.39834275 195.57546371 -46.00756836 174.98168945 C-49.53264526 168.09351949 -52.51483856 161.01717148 -55.29980469 153.80078125 C-55.87704105 152.31622915 -56.4852142 150.84374489 -57.1015625 149.375 C-60.20331604 141.02635497 -59.24291991 131.76311077 -59 123 C-58.34 123 -57.68 123 -57 123 C-57 122.34 -57 121.68 -57 121 C-58.32 121 -59.64 121 -61 121 C-61.66 121.66 -62.32 122.32 -63 123 C-63.66 123 -64.32 123 -65 123 C-65.9590625 124.4540625 -65.9590625 124.4540625 -66.9375 125.9375 C-77.21089369 140.65184197 -97.50535252 148.5968407 -113.6875 154.8125 C-132.20929869 162.18012515 -151.6656609 172.99849135 -163 190 C-163.70812814 192.32108669 -164.38024152 194.65377147 -165 197 C-166.66611905 197.042721 -168.33382885 197.04063832 -170 197 C-171 196 -171 196 -171.1875 193.5625 C-171 191 -171 191 -169 189 C-167.824375 188.5978125 -167.824375 188.5978125 -166.625 188.1875 C-163.32210731 186.69333426 -162.22499695 184.86071036 -160 182 C-157.41352525 179.57234388 -154.70576656 177.2930225 -152 175 C-151.40832031 174.48179687 -150.81664062 173.96359375 -150.20703125 173.4296875 C-143.24353705 167.34260561 -136.3955716 162.3720804 -127.9375 158.5625 C-127.11113037 158.18125977 -126.28476074 157.80001953 -125.43334961 157.40722656 C-123.755063 156.63330416 -122.07514658 155.86290552 -120.39355469 155.09619141 C-118.20513707 154.09394793 -116.02641441 153.07424899 -113.8515625 152.04296875 C-108.27049759 149.40031187 -102.69888843 146.85962823 -96.9375 144.625 C-85.64217297 139.96681931 -76.13805021 133.10686571 -68 124 C-70.17135399 125.06042869 -72.28606289 126.16413444 -74.3828125 127.3671875 C-90.02140824 135.96618744 -107.41107401 136.71477852 -124.875 137.5625 C-136.29458079 138.1396186 -147.63498189 138.76405643 -158.953125 140.453125 C-159.75185028 140.57220718 -160.55057556 140.69128937 -161.37350464 140.8139801 C-174.1250585 142.85097035 -191.37163626 147.60025033 -200 158 C-200.70710678 159.64991582 -201.37943989 161.31562256 -202 163 C-203 164 -203 164 -205.5 164.125 C-208 164 -208 164 -209 163 C-209.04063832 161.33382885 -209.042721 159.66611905 -209 158 C-207.9275 157.67 -206.855 157.34 -205.75 157 C-201.86520228 155.5619433 -198.7617267 153.56184057 -195.375 151.1875 C-176.24402608 138.15452402 -155.4708402 136.62689524 -132.99804688 135.25195312 C-126.47731283 134.84627974 -119.96204995 134.38249998 -113.44970703 133.85916138 C-112.01307576 133.74704913 -110.57588597 133.64182196 -109.13818359 133.54440308 C-96.01217223 132.65182965 -81.60458739 130.4022803 -71 122 C-70.31550781 121.47535156 -69.63101563 120.95070313 -68.92578125 120.41015625 C-64.61481852 116.8960443 -61.66205289 113.39476178 -59.0078125 108.50390625 C-58.67523438 108.00761719 -58.34265625 107.51132812 -58 107 C-57.34 107 -56.68 107 -56 107 C-56.02320313 106.22914063 -56.04640625 105.45828125 -56.0703125 104.6640625 C-56.08835937 103.66117187 -56.10640625 102.65828125 -56.125 101.625 C-56.14820313 100.62726563 -56.17140625 99.62953125 -56.1953125 98.6015625 C-56 96 -56 96 -54 94 C-53.01 94 -52.02 94 -51 94 C-50.88084229 93.27184082 -50.76168457 92.54368164 -50.63891602 91.79345703 C-49.99767324 88.98982697 -49.09346391 86.85308183 -47.77734375 84.3046875 C-47.32528564 83.42925293 -46.87322754 82.55381836 -46.4074707 81.65185547 C-45.92238037 80.73549316 -45.43729004 79.81913086 -44.9375 78.875 C-44.44016357 77.93156738 -43.94282715 76.98813477 -43.43041992 76.01611328 C-39.77103174 69.18989021 -35.8004552 63.08256435 -31 57 C-29.70199021 55.21292339 -28.41049457 53.4211002 -27.125 51.625 C-24.5438292 48.06318754 -21.89593823 44.56924129 -19.18188477 41.10888672 C-9.41353394 28.6160547 -2.40344801 15.89145478 0 0 Z " fill="#E1E1E1" transform="translate(337,346)"/>
<path d="M0 0 C0.99 0.495 0.99 0.495 2 1 C-13.72700962 15.99139143 -29.50294345 29.0341146 -51 34 C-33.36685522 35.08697468 -17.727609 29.20123285 -2 21.6875 C19.24222224 11.60294941 38.99910418 5.66537248 62.5625 5.625 C63.26364929 5.62282471 63.96479858 5.62064941 64.68719482 5.6184082 C76.62261118 5.62261118 76.62261118 5.62261118 79 8 C78.625 10.125 78.625 10.125 78 12 C76.35 12.33 74.7 12.66 73 13 C72.01 11.02 72.01 11.02 71 9 C41.04472722 8.49248202 18.72293466 14.59530967 -8.14453125 27.51171875 C-23.43904975 34.78062784 -37.19285256 37 -54 37 C-40.45993843 42.89030927 -25.07151122 42.84645878 -10.57421875 43.171875 C9.79673772 43.63982788 28.74782103 44.47518838 48.02612305 51.75048828 C52.89256336 53.54596641 55.81322972 54.18830031 61 53 C61.66 53.66 62.32 54.32 63 55 C62.625 57.625 62.625 57.625 62 60 C60.1875 60.6875 60.1875 60.6875 58 61 C56.25 59.6875 56.25 59.6875 55 58 C55 57.34 55 56.68 55 56 C52.4671269 55.30490801 49.93338508 54.61327989 47.3984375 53.92578125 C45.04729775 53.28529835 42.69846841 52.63629578 40.3515625 51.98046875 C39.10117187 51.63628906 37.85078125 51.29210937 36.5625 50.9375 C35.40878906 50.61652344 34.25507812 50.29554688 33.06640625 49.96484375 C22.95263127 47.45060475 12.97172636 46.67272392 2.59228516 46.48010254 C0.32809519 46.43659878 -1.93542408 46.3798916 -4.19921875 46.31933594 C-9.47720855 46.17865461 -14.75518869 46.04154382 -20.03417969 45.94384766 C-34.6153938 45.66204463 -49.7042235 43.44885227 -62 35 C-62.99 36.32 -63.98 37.64 -65 39 C-66.32 38.67 -67.64 38.34 -69 38 C-67.125 33.125 -67.125 33.125 -66 32 C-66.66 31.67 -67.32 31.34 -68 31 C-68.495 32.485 -68.495 32.485 -69 34 C-69.33 34 -69.66 34 -70 34 C-70 32.35 -70 30.7 -70 29 C-68.78570312 29.23783203 -68.78570312 29.23783203 -67.546875 29.48046875 C-56.71543497 31.06701228 -45.80097951 31.29732791 -36 26 C-35.36707031 25.72285156 -34.73414063 25.44570313 -34.08203125 25.16015625 C-21.14911186 19.37367479 -10.43496889 9.33807036 0 0 Z " fill="#E1E1E1" transform="translate(532,366)"/>
<path d="M0 0 C2.625 0.375 2.625 0.375 5 1 C5.020625 1.94875 5.04125 2.8975 5.0625 3.875 C5.57441054 7.50652152 7.00337502 9.7069444 9.16015625 12.64453125 C12.72881378 17.60535987 16.09348382 22.65798787 19.375 27.8125 C19.96442383 28.73828857 20.55384766 29.66407715 21.16113281 30.61791992 C28.45692289 42.17907245 35.2970364 54.00862805 42.15820312 65.83056641 C44.79221153 70.36326751 47.45265221 74.88011258 50.11865234 79.39404297 C52.39511667 83.25463016 54.65373452 87.12501938 56.89840698 91.00419617 C67.03442399 108.56107047 67.03442399 108.56107047 77.875 125.6875 C78.35630371 126.41702881 78.83760742 127.14655762 79.33349609 127.89819336 C81.85752396 131.62655879 83.93200105 133.96600052 88 136 C85.88469951 141.67791183 83.79092189 145.9479575 78.203125 148.97265625 C60.81152441 156.00121664 37.57372727 147.95987144 20.25952148 144.20166016 C-3.54167368 139.04524576 -26.64983511 136.69604236 -51 136 C-51.99 137.98 -51.99 137.98 -53 140 C-54.98 140 -56.96 140 -59 140 C-59 139.34 -59 138.68 -59 138 C-60.65 138 -62.3 138 -64 138 C-64.33 137.34 -64.66 136.68 -65 136 C-64.05125 135.896875 -63.1025 135.79375 -62.125 135.6875 C-58.70892499 135.31460705 -58.70892499 135.31460705 -57 132 C-55.92637207 132.24097412 -55.92637207 132.24097412 -54.83105469 132.48681641 C-52.06661602 132.98792455 -49.50902615 133.15641999 -46.703125 133.2109375 C-20.35133276 133.88000581 4.69326454 137.7724922 30.40234375 143.3984375 C31.4372998 143.6248291 32.47225586 143.8512207 33.53857422 144.08447266 C35.49052143 144.51407124 37.44145639 144.94830761 39.39111328 145.38818359 C47.82671627 147.26806519 55.9767502 148.19509048 64.625 148.25 C65.44484375 148.270625 66.2646875 148.29125 67.109375 148.3125 C72.23198842 148.34544285 75.47640596 147.64456267 80 145 C80.66 145 81.32 145 82 145 C83.12654152 142.08123333 83.89674675 140.0704255 84 137 C82.87137489 134.95004827 81.50117877 133.56339877 79.8515625 131.90625 C74.7305069 126.63393959 70.93845127 120.1147461 67.46875 113.67578125 C65.60808522 110.28600631 63.65195555 106.9552086 61.6875 103.625 C61.26702393 102.91190674 60.84654785 102.19881348 60.41333008 101.46411133 C55.72422985 93.52179553 51.02277693 85.58673246 46.31616211 77.65478516 C42.81369757 71.75171121 39.31750845 65.84511208 35.8359375 59.9296875 C28.50932937 47.49034851 21.11074183 35.11712693 13.27685547 22.98925781 C12.05386017 21.08391064 10.85465377 19.1654875 9.66015625 17.2421875 C8.96792969 16.15164062 8.27570313 15.06109375 7.5625 13.9375 C6.98628906 13.01839844 6.41007812 12.09929687 5.81640625 11.15234375 C3.72015728 8.66840142 2.0065729 8.09101391 -1 7 C-1.9375 4.5 -1.9375 4.5 -2 2 C-1.34 1.34 -0.68 0.68 0 0 Z " fill="#E1E1E1" transform="translate(250,196)"/>
<path d="M0 0 C3 0.0625 3 0.0625 6 1 C6.31195313 1.78375 6.62390625 2.5675 6.9453125 3.375 C9.93750949 10.82224584 22.08074386 14.96381662 29 18 C41.26688781 22.56876265 53.66187134 24.65898145 66.5625 26.5625 C111.72091385 33.29922771 111.72091385 33.29922771 123 47 C123 47.99 123 48.98 123 50 C122.34 49.731875 121.68 49.46375 121 49.1875 C120.01 48.795625 119.02 48.40375 118 48 C117.38382813 47.74734375 116.76765625 47.4946875 116.1328125 47.234375 C115.47023437 46.97140625 114.80765625 46.7084375 114.125 46.4375 C113.50882813 46.18871094 112.89265625 45.93992188 112.2578125 45.68359375 C93.40138526 39.97446785 71.75684662 45.8688178 53.25 50.0625 C39.57962629 53.14690448 26.74159076 55.14135906 12.6875 55.25 C11.68436768 55.25950684 10.68123535 55.26901367 9.64770508 55.27880859 C1.30346158 55.2414989 -6.42016378 53.96137661 -14.375 51.4375 C-19.92719693 49.62064375 -19.92719693 49.62064375 -25.6875 49 C-26.450625 49 -27.21375 49 -28 49 C-29 48 -29 48 -29.125 45.5 C-29 43 -29 43 -28 42 C-25.5625 41.8125 -25.5625 41.8125 -23 42 C-21 44 -21 44 -21 47 C-19.37633024 47.4630237 -17.75096194 47.92009098 -16.125 48.375 C-15.22007813 48.63023437 -14.31515625 48.88546875 -13.3828125 49.1484375 C12.8159372 55.74350382 37.656078 51.08311414 63.40625 45.22509766 C79.39220019 41.60087908 94.84426344 38.34495726 111 43 C112.66424326 43.34522929 114.3305218 43.68104633 116 44 C110.48634436 40.05780395 104.84857157 37.37210013 98.34765625 35.484375 C97.61306183 35.27023453 96.87846741 35.05609406 96.12161255 34.83546448 C87.33809472 32.38905696 78.39358196 31.16770633 69.375 29.9375 C46.15202944 26.73363193 25.7297249 21.15314993 6 8 C3.67891331 7.29187186 1.34622853 6.61975848 -1 6 C-1.625 4.125 -1.625 4.125 -2 2 C-1.34 1.34 -0.68 0.68 0 0 Z " fill="#E1E1E1" transform="translate(113,135)"/>
<path d="M0 0 C1.67542976 0.28604898 3.34385343 0.61781233 5 1 C5.625 2.875 5.625 2.875 6 5 C5.34 5.66 4.68 6.32 4 7 C3.93139421 9.92022052 3.9647307 12.77250544 4.0625 15.6875 C4.46524824 43.46143715 -9.70273186 66.85075356 -23.77954102 89.87695312 C-29.71982891 99.68513066 -34.8783527 109.92035042 -38 121 C-38.20367187 121.6496875 -38.40734375 122.299375 -38.6171875 122.96875 C-41.18582961 131.83584332 -39.96325886 140.9522471 -39 150 C-39.99 149.67 -40.98 149.34 -42 149 C-42.33 149.99 -42.66 150.98 -43 152 C-43.63599043 149.09261518 -44.07333004 146.27892127 -44.375 143.3125 C-44.73999251 140.14346226 -45.49174623 137.3574144 -46.51367188 134.33837891 C-48.07375105 129.22331331 -48.48237395 124.59882355 -48.40625 119.2734375 C-48.39920044 118.37418549 -48.39215088 117.47493347 -48.3848877 116.5484314 C-48.15991304 106.08065922 -46.3591111 95.90447626 -44.5 85.625 C-41.63022086 69.57569824 -39.63707666 54.76958292 -42.375 38.5 C-42.50132812 37.67242187 -42.62765625 36.84484375 -42.7578125 35.9921875 C-43.78491963 27.23183581 -43.78491963 27.23183581 -48.125 20.0625 C-49.053125 19.5365625 -49.053125 19.5365625 -50 19 C-49.67 17.35 -49.34 15.7 -49 14 C-47.34385343 13.61781233 -45.67542976 13.28604898 -44 13 C-43.67 13.33 -43.34 13.66 -43 14 C-43.061875 15.175625 -43.12375 16.35125 -43.1875 17.5625 C-43.25133892 21.40039004 -42.63796906 24.69110315 -41.59225464 28.38108826 C-39.120215 37.10640929 -38.30349349 45.34276554 -38.375 54.4375 C-38.37532227 55.13399658 -38.37564453 55.83049316 -38.37597656 56.5480957 C-38.41329017 68.36451654 -40.05231988 79.52184854 -42.42572021 91.07171631 C-45.58642179 106.49621464 -47.48210536 122.65601834 -43 138 C-42.97873047 136.87078125 -42.97873047 136.87078125 -42.95703125 135.71875 C-41.99350157 114.26068358 -31.23954245 96.06944389 -20.0390625 78.30078125 C-8.22680083 59.17939982 1.25207049 39.4917307 1.4375 16.625 C1.4475708 15.81015137 1.4576416 14.99530273 1.46801758 14.15576172 C1.55996492 9.88581985 1.55996492 9.88581985 -0.54272461 6.39208984 C-1.02362549 5.9327002 -1.50452637 5.47331055 -2 5 C-1.74853421 2.86254078 -1.54074221 1.54074221 0 0 Z " fill="#E1E1E1" transform="translate(282,34)"/>
<path d="M0 0 C0.125 2.375 0.125 2.375 0 5 C-0.66 5.66 -1.32 6.32 -2 7 C-3.32 7 -4.64 7 -6 7 C-6.26039063 7.721875 -6.52078125 8.44375 -6.7890625 9.1875 C-12.90128673 23.3836337 -26.9168835 35.84199651 -39 45 C-39.76022461 45.57621094 -40.52044922 46.15242188 -41.30371094 46.74609375 C-43.0526714 48.0706398 -44.80169765 49.39509898 -46.55078125 50.71948242 C-66.34890179 65.04226146 -66.34890179 65.04226146 -81.625 83.75 C-83.62667959 87.02547569 -85.53937055 89.51312352 -89.25 90.75 C-89.8275 90.8325 -90.405 90.915 -91 91 C-90.01 91.33 -89.02 91.66 -88 92 C-89.485 92.99 -89.485 92.99 -91 94 C-90.67 94.99 -90.34 95.98 -90 97 C-91.3125 99.6875 -91.3125 99.6875 -93 102 C-93.66 102 -94.32 102 -95 102 C-95.18315911 97.32944273 -94.78538017 94.26507485 -93 90 C-92.24247637 86.68327492 -91.6108277 83.346556 -91 80 C-88.525 79.505 -88.525 79.505 -86 79 C-85.71125 78.13375 -85.4225 77.2675 -85.125 76.375 C-84.40208033 74.20624099 -83.67339306 72.03939134 -82.9375 69.875 C-82.38566309 68.18270014 -81.8692136 66.47685441 -81.4375 64.75 C-81 63 -81 63 -80 61 C-79.34 61 -78.68 61 -78 61 C-78.33 60.01 -78.66 59.02 -79 58 C-75.535 57.505 -75.535 57.505 -72 57 C-71.67 57.66 -71.34 58.32 -71 59 C-68.97536745 59.65213292 -68.97536745 59.65213292 -67 60 C-67 60.99 -67 61.98 -67 63 C-36.50103597 41.23127003 -36.50103597 41.23127003 -11.625 13.5 C-11.15408936 12.84153076 -10.68317871 12.18306152 -10.19799805 11.50463867 C-7.53516878 7.54153453 -6.43695457 4.93045186 -7 0 C-4.3333581 -1.33332095 -2.83319697 -0.67102033 0 0 Z " fill="#F8F7F8" transform="translate(481,70)"/>
<path d="M0 0 C10.61843748 12.81535557 12.100814 28.7433009 12.2109375 44.70703125 C12.23903499 47.00977238 12.26769959 49.31250665 12.296875 51.61523438 C12.33781803 55.19750556 12.374756 58.77965274 12.40136719 62.36206055 C12.5647125 82.65771606 13.21466449 101.42846797 22 120 C22.43699219 120.94230469 22.87398438 121.88460937 23.32421875 122.85546875 C25.67524071 127.52550442 25.67524071 127.52550442 29.8125 130.5625 C30.8953125 130.7790625 30.8953125 130.7790625 32 131 C32.042721 132.66611905 32.04063832 134.33382885 32 136 C31 137 31 137 28.5 137.125 C26 137 26 137 25 136 C25.05542969 135.12085938 25.11085938 134.24171875 25.16796875 133.3359375 C24.9568413 129.14284807 23.57180723 127.14133398 21.3125 123.625 C12.10072855 108.48730128 9.73865452 91.39466988 9.65625 73.90234375 C9.6416272 72.70621964 9.62700439 71.51009552 9.61193848 70.27772522 C9.55042542 65.22423362 9.5102439 60.17062881 9.46826172 55.11694336 C9.43426395 51.39945488 9.38923172 47.68220672 9.34375 43.96484375 C9.3384729 42.84262924 9.3331958 41.72041473 9.32775879 40.56419373 C9.20266297 30.50849009 8.41750018 20.83500036 3.875 11.75 C3.33617187 10.65171875 2.79734375 9.5534375 2.2421875 8.421875 C1.83226562 7.62265625 1.42234375 6.8234375 1 6 C1.144375 6.81082031 1.28875 7.62164062 1.4375 8.45703125 C5.36094961 31.86149802 -1.17776735 52.01349162 -9 74 C-10.02462875 70.42184868 -9.80893452 68.40976284 -8.75 64.8125 C-8.49734375 63.93207031 -8.2446875 63.05164063 -7.984375 62.14453125 C-7.44186146 60.41150187 -6.88992983 58.68099927 -6.29760742 56.96435547 C-0.08141145 38.93640202 3.79602825 19.06311903 -4 1 C-2 0 -2 0 0 0 Z " fill="#E2E2E2" transform="translate(470,406)"/>
<path d="M0 0 C0.66 0 1.32 0 2 0 C2.05391993 1.79133978 2.09275571 3.58313899 2.125 5.375 C2.14820313 6.37273437 2.17140625 7.37046875 2.1953125 8.3984375 C2 11 2 11 0 13 C-0.99 13 -1.98 13 -3 13 C-3.10884521 13.66499512 -3.21769043 14.32999023 -3.32983398 15.01513672 C-4.50533199 21.8643158 -6.15808703 28.44759086 -8.0625 35.125 C-14.37451263 57.91837894 -19.11622671 81.17797665 -23.6875 104.375 C-32.17218799 147.41900523 -32.17218799 147.41900523 -37 156 C-38.485 156.99 -38.485 156.99 -40 158 C-39.5875 156.80375 -39.175 155.6075 -38.75 154.375 C-35.02233117 143.13412401 -32.18366753 131.79802108 -29.875 120.1875 C-29.3729504 117.70171085 -28.87035909 115.21603103 -28.3671875 112.73046875 C-28.15175293 111.65176514 -27.93631836 110.57306152 -27.71435547 109.46166992 C-27.01495199 106.07245532 -26.26900384 102.69657678 -25.51351929 99.31956482 C-24.68394029 95.5723594 -23.90267147 91.81524127 -23.1171875 88.05859375 C-17.90875079 63.30131745 -12.50962404 38.60734372 -5.54711914 14.27197266 C-4.87256749 11.47082243 -4.76749236 8.86759424 -5 6 C-3.68 5.67 -2.36 5.34 -1 5 C-0.67 3.35 -0.34 1.7 0 0 Z " fill="#E0E1E2" transform="translate(385,173)"/>
<path d="M0 0 C1.2684375 0.12375 1.2684375 0.12375 2.5625 0.25 C3.2225 1.24 3.8825 2.23 4.5625 3.25 C7.32644911 4.1710985 7.32644911 4.1710985 10.5625 4.75 C11.74328125 5.00523437 12.9240625 5.26046875 14.140625 5.5234375 C15.26984375 5.76320313 16.3990625 6.00296875 17.5625 6.25 C35.52789909 10.14815263 50.42503177 21.93754392 64.3359375 33.33203125 C82.05784149 47.8330348 98.36382132 57.38854914 121.5625 59.25 C121.5625 61.23 121.5625 63.21 121.5625 65.25 C121.0675 63.27 121.0675 63.27 120.5625 61.25 C120.2325 62.57 119.9025 63.89 119.5625 65.25 C118.9025 65.25 118.2425 65.25 117.5625 65.25 C117.2325 64.26 116.9025 63.27 116.5625 62.25 C115.634375 62.415 114.70625 62.58 113.75 62.75 C108.70516379 63.48700282 103.64814289 63.33276815 98.5625 63.25 C98.5625 62.59 98.5625 61.93 98.5625 61.25 C102.0275 60.755 102.0275 60.755 105.5625 60.25 C104.80066406 60.01925781 104.03882813 59.78851563 103.25390625 59.55078125 C87.75508329 54.65539772 75.56419785 45.36586527 63.0625 35.25 C45.92028252 21.44050133 26.40563921 7.37343308 3.5625 6.25 C3.2325 6.58 2.9025 6.91 2.5625 7.25 C0.0625 7.375 0.0625 7.375 -2.4375 7.25 C-3.4375 6.25 -3.4375 6.25 -3.5625 3.75 C-3.39590427 0.41808548 -3.30551904 0.33902759 0 0 Z " fill="#E1E0E1" transform="translate(56.4375,271.75)"/>
<path d="M0 0 C1.67542976 0.28604898 3.34385343 0.61781233 5 1 C5.38218767 2.65614657 5.71395102 4.32457024 6 6 C5 7 5 7 1.3125 7.4375 C-6.22631548 9.07170525 -12.07869929 14.31687749 -18 19 C-18.53689453 19.41975098 -19.07378906 19.83950195 -19.62695312 20.27197266 C-28.30615052 27.14165957 -36.11649157 34.93827302 -43.9375 42.75 C-44.43418182 43.24559418 -44.93086365 43.74118835 -45.44259644 44.25180054 C-50.5097895 49.32025157 -55.45068813 54.44745671 -60.12036133 59.88671875 C-63.8751467 64.10823092 -67.87422081 68.09897507 -71.86035156 72.10058594 C-73.37254097 73.62252512 -74.8736934 75.15483451 -76.375 76.6875 C-91.91751434 92.39969663 -91.91751434 92.39969663 -100.69140625 93.265625 C-101.63886719 93.26046875 -102.58632813 93.2553125 -103.5625 93.25 C-104.98755859 93.25773437 -104.98755859 93.25773437 -106.44140625 93.265625 C-109 93 -109 93 -112 91 C-112.495 91.99 -112.495 91.99 -113 93 C-113.33 92.01 -113.66 91.02 -114 90 C-113.505 89.01 -113.505 89.01 -113 88 C-113.66 88 -114.32 88 -115 88 C-114.67 87.01 -114.34 86.02 -114 85 C-113.61070312 85.44472656 -113.22140625 85.88945312 -112.8203125 86.34765625 C-110.27516444 88.9221263 -108.27284916 90.79274331 -104.625 91.38671875 C-88.75465703 90.51880937 -74.25566412 71.93948818 -64 61 C-62.88936581 59.73106504 -61.78422565 58.45730781 -60.68359375 57.1796875 C-56.78317012 52.68174309 -52.60735368 48.49624891 -48.375 44.3125 C-47.63765625 43.57966797 -46.9003125 42.84683594 -46.140625 42.09179688 C-44.71696658 40.67706822 -43.29220935 39.26344421 -41.86621094 37.85107422 C-40.37670266 36.37364724 -38.89418488 34.88917364 -37.4140625 33.40234375 C-14.91860771 11.01609019 -14.91860771 11.01609019 -4.1796875 6.92578125 C-3.46039063 6.62027344 -2.74109375 6.31476563 -2 6 C-1.18068911 3.48823926 -1.18068911 3.48823926 -1 1 C-0.67 0.67 -0.34 0.34 0 0 Z " fill="#DEDDDD" transform="translate(455,243)"/>
<path d="M0 0 C2.52107642 2.37459186 4.49828881 4.97473485 6.5625 7.75 C16.80132034 20.53921741 31.42019106 24.60929357 46.8125 28.3125 C88.7639036 38.84486826 88.7639036 38.84486826 101.1328125 48.69921875 C103.11646186 50.3453523 103.11646186 50.3453523 106.625 50 C107.73875 50 108.8525 50 110 50 C112 53 112 53 112 56 C113.65 56.66 115.3 57.32 117 58 C116.505 58.99 116.505 58.99 116 60 C113.83125748 59.49396008 112.00032373 59.00016187 110 58 C108.33805547 57.64386903 106.671549 57.30791692 105 57 C104.938125 56.21625 104.87625 55.4325 104.8125 54.625 C104.4103125 53.325625 104.4103125 53.325625 104 52 C101.77631296 50.96124599 101.77631296 50.96124599 99 50 C95.54644571 48.36786959 92.10635539 46.71073357 88.66796875 45.046875 C76.40672353 39.49728954 63.84111305 35.67814928 50.8125 32.4375 C31.8473715 27.70840626 13.45562805 22.53298558 1.5625 5.75 C0 3 0 3 0 0 Z " fill="#E2E2E2" transform="translate(343,336)"/>
<path d="M0 0 C1.67542976 0.28604898 3.34385343 0.61781233 5 1 C5.625 2.875 5.625 2.875 6 5 C4 7 4 7 1.375 7.6875 C-3.35076798 9.52529866 -6.36809969 12.5274518 -10 16 C-10.73605469 16.68449219 -11.47210937 17.36898437 -12.23046875 18.07421875 C-17.94108659 23.54894188 -22.56897181 29.45895838 -27 36 C-27.55042969 36.80566406 -28.10085938 37.61132812 -28.66796875 38.44140625 C-32.58186109 44.38196968 -35.98133638 50.56720412 -39.375 56.8125 C-47.351497 71.42771956 -55.68532061 84.15938269 -67.83984375 95.6953125 C-68.55269531 96.45585937 -69.26554687 97.21640625 -70 98 C-69.95502158 100.27523089 -69.95502158 100.27523089 -69 102 C-69.66 101.67 -70.32 101.34 -71 101 C-71.99 101.99 -71.99 101.99 -73 103 C-73.33 102.01 -73.66 101.02 -74 100 C-74 101.32 -74 102.64 -74 104 C-74.66 104 -75.32 104 -76 104 C-76.66 102.68 -77.32 101.36 -78 100 C-76.7315625 99.07380859 -76.7315625 99.07380859 -75.4375 98.12890625 C-58.70604289 85.73294564 -49.10797373 69.76822136 -39.3125 51.625 C-30.32011999 35.02392775 -19.11427557 21.338861 -5.3125 8.5 C-3.01507925 6.01630189 -2.05650926 4.16952777 -1 1 C-0.67 0.67 -0.34 0.34 0 0 Z " fill="#E0E0E0" transform="translate(551,135)"/>
<path d="M0 0 C1.66611905 -0.042721 3.33382885 -0.04063832 5 0 C6 1 6 1 6.125 3.5 C6 6 6 6 5 7 C3.700625 6.938125 2.40125 6.87625 1.0625 6.8125 C-4.98834374 6.72518624 -10.5594021 8.07314738 -16.40209961 9.48950195 C-25.05749905 11.5763844 -33.30491925 12.19173888 -42.1875 12.1875 C-43.80652222 12.19064209 -43.80652222 12.19064209 -45.45825195 12.19384766 C-53.91152097 12.14915013 -62.26636359 11.57206778 -70.6875 10.875 C-83.02602422 9.87610851 -94.75247497 10.29635551 -107 12 C-107.70930664 12.09845215 -108.41861328 12.1969043 -109.14941406 12.29833984 C-110.76703158 12.52694262 -112.3836562 12.76255866 -114 13 C-107.2494587 6.5429605 -96.35075428 7.71452395 -87.68066406 7.79418945 C-85.63593948 7.81240256 -83.59167226 7.81469866 -81.546875 7.81445312 C-74.8984903 7.83269065 -68.34892813 8.08619863 -61.73535156 8.76635742 C-44.75819409 10.216477 -27.68710044 9.32911617 -11 6 C-10.18321777 5.86561523 -9.36643555 5.73123047 -8.52490234 5.59277344 C-7.71617676 5.44614258 -6.90745117 5.29951172 -6.07421875 5.1484375 C-5.34162842 5.02388184 -4.60903809 4.89932617 -3.85424805 4.77099609 C-1.80063253 4.13130301 -1.80063253 4.13130301 -0.74536133 1.92822266 C-0.49939209 1.29190918 -0.25342285 0.6555957 0 0 Z " fill="#E0E1E1" transform="translate(598,223)"/>
<path d="M0 0 C0.598125 0.20625 1.19625 0.4125 1.8125 0.625 C1.12285156 0.97691406 0.43320313 1.32882812 -0.27734375 1.69140625 C-17.23988151 10.60313734 -27.5401253 23.85789232 -38.47265625 39.21875 C-39.03710449 40.01039551 -39.60155273 40.80204102 -40.18310547 41.61767578 C-41.2809952 43.16359325 -42.37284792 44.71382267 -43.45751953 46.26904297 C-46.96581875 51.216814 -50.797412 55.44909656 -55.1875 59.625 C-55.97125 60.429375 -56.755 61.23375 -57.5625 62.0625 C-58.861875 63.3309375 -58.861875 63.3309375 -60.1875 64.625 C-60.75210938 65.19734375 -61.31671875 65.7696875 -61.8984375 66.359375 C-67.4462898 71.67340977 -73.53785735 75.38314355 -80.24707031 79.03588867 C-84.49513057 81.39898086 -87.39897532 83.50442416 -90.1875 87.625 C-91.5075 87.295 -92.8275 86.965 -94.1875 86.625 C-94.8125 84.25 -94.8125 84.25 -95.1875 81.625 C-94.1975 80.635 -94.1975 80.635 -93.1875 79.625 C-91.60195312 79.66947266 -91.60195312 79.66947266 -89.984375 79.71484375 C-85.48084467 79.60827873 -83.29332451 78.46634559 -79.4375 76.1875 C-78.83768311 75.83421631 -78.23786621 75.48093262 -77.61987305 75.11694336 C-72.47443557 71.9977733 -67.92573309 68.37071199 -63.39453125 64.41015625 C-61.1875 62.625 -61.1875 62.625 -58.1875 61.625 C-57.48425096 60.31059405 -56.82177077 58.97404515 -56.1875 57.625 C-55.14002069 56.40575661 -54.0508842 55.22187181 -52.9375 54.0625 C-48.72920643 49.43414083 -45.0571066 44.49099073 -41.375 39.4375 C-20.54122646 10.89102282 -20.54122646 10.89102282 -5.1875 1.625 C-2.1875 -0.375 -2.1875 -0.375 0 0 Z " fill="#E0E0E0" transform="translate(168.1875,339.375)"/>
<path d="M0 0 C1.06892732 3.20678195 0.95230272 3.93983621 0.125 7.0612793 C-1.07070433 12.03487515 -1.58753917 16.92836434 -2 22.01953125 C-2.08121094 22.95818527 -2.16242188 23.89683929 -2.24609375 24.86393738 C-2.5030841 27.84633819 -2.75190866 30.82934701 -3 33.8125 C-3.65575678 41.5426173 -4.32145441 49.27184981 -5 57 C-5.07917664 57.91140747 -5.15835327 58.82281494 -5.2399292 59.76184082 C-6.13192042 69.88448915 -7.26828003 79.718555 -9.625 89.625 C-11.18876121 96.24023704 -12.26754538 102.19816452 -11.88818359 109.01708984 C-12 111 -12 111 -14 113 C-16.125 112.625 -16.125 112.625 -18 112 C-18.495 109.525 -18.495 109.525 -19 107 C-18.360625 106.835 -17.72125 106.67 -17.0625 106.5 C-16.381875 106.005 -15.70125 105.51 -15 105 C-14.72500762 103.08974761 -14.46106608 101.17693321 -14.26635742 99.25683594 C-14.01055219 97.08940826 -13.61512551 95.02576884 -13.1328125 92.8984375 C-9.23697914 75.55044085 -7.88877754 57.92356965 -6.44239807 40.23678589 C-6.19262366 37.18995463 -5.93695252 34.14362357 -5.68191528 31.097229 C-5.50523329 28.93892853 -5.34080717 26.77995211 -5.17749023 24.62060547 C-3.49247353 3.49247353 -3.49247353 3.49247353 0 0 Z " fill="#E1E1E1" transform="translate(275,474)"/>
<path d="M0 0 C4.40247593 1.54292381 6.62420299 4.98825505 9.25 8.625 C9.73380127 9.29233154 10.21760254 9.95966309 10.71606445 10.6472168 C18.05383678 21.04735248 22.89820465 32.67464483 28.00073242 44.27514648 C34.69975116 59.45227835 41.90843952 73.60365768 53.0625 86.0625 C53.54493164 86.61123779 54.02736328 87.15997559 54.52441406 87.7253418 C58.00867658 91.47803114 61.18247671 93.26184241 66 95 C66.042721 96.66611905 66.04063832 98.33382885 66 100 C65 101 65 101 62.4375 101.0625 C61.633125 101.041875 60.82875 101.02125 60 101 C59.690625 100.05125 59.38125 99.1025 59.0625 98.125 C57.09581328 93.50514157 53.79620119 90.30396556 50.40625 86.671875 C36.71879131 71.47346308 28.25977803 52.39012744 20.06005859 33.87792969 C15.11559253 22.77303198 10.1543955 11.86821968 1.2421875 3.3125 C0 2 0 2 0 0 Z " fill="#E1E1E1" transform="translate(474,409)"/>
<path d="M0 0 C2.625 0.375 2.625 0.375 5 1 C5.6875 2.8125 5.6875 2.8125 6 5 C4.625 6.5 4.625 6.5 3 8 C1.1084335 13.71383537 1.30270899 20.03961738 1 26 C0.9592334 26.65774414 0.9184668 27.31548828 0.87646484 27.99316406 C0.05477273 42.41997963 2.95991997 55.95500597 6 70 C6.57964301 72.71453838 7.15762338 75.42941406 7.73339844 78.14477539 C8.06349252 79.6896344 8.39949952 81.23324956 8.74316406 82.77514648 C10.47558687 90.69886587 11.16122964 98.45907483 11.0625 106.5625 C11.05798828 107.28501953 11.05347656 108.00753906 11.04882812 108.75195312 C11.03724279 110.50133944 11.01931762 112.25068199 11 114 C10.34 114 9.68 114 9 114 C8.97607178 113.42072754 8.95214355 112.84145508 8.92749023 112.24462891 C8.05770224 93.82369786 4.72832213 76.35125943 0.72436523 58.40551758 C-0.67106853 51.84505058 -1.12435771 45.83530071 -1.0625 39.1484375 C-1.05871338 38.21198395 -1.05492676 37.2755304 -1.05102539 36.31069946 C-1.03885524 33.33208518 -1.02022307 30.35356983 -1 27.375 C-0.97341386 23.4453151 -0.95342274 19.51567845 -0.9375 15.5859375 C-0.92920166 14.68483246 -0.92090332 13.78372742 -0.91235352 12.85531616 C-0.90905029 12.0140921 -0.90574707 11.17286804 -0.90234375 10.30615234 C-0.89710693 9.56924164 -0.89187012 8.83233093 -0.88647461 8.0730896 C-0.92266236 5.95999496 -0.92266236 5.95999496 -1.63110352 3.85586548 C-1.75283936 3.24342987 -1.8745752 2.63099426 -2 2 C-1.34 1.34 -0.68 0.68 0 0 Z " fill="#E2E2E2" transform="translate(382,34)"/>
<path d="M0 0 C2.00720923 0.28674418 4.0085944 0.61866701 6 1 C5.94569824 1.87527344 5.89139648 2.75054687 5.83544922 3.65234375 C6.01855184 7.37742263 6.85621832 9.31115743 8.6328125 12.5625 C9.19226563 13.60792969 9.75171875 14.65335938 10.328125 15.73046875 C10.92109375 16.80941406 11.5140625 17.88835937 12.125 19 C19.3621231 32.31172191 25.08893601 45.75217175 29.875 60.125 C34.671715 74.33447126 40.06048876 88.23195866 46 102 C45.34 102 44.68 102 44 102 C36.82228567 88.20874051 31.1148083 74.35040047 26.43798828 59.55810547 C22.65431649 47.59604237 17.81617024 36.35591791 12.375 25.0625 C11.89804688 24.06154297 11.42109375 23.06058594 10.9296875 22.02929688 C7.47094605 13.61406027 7.47094605 13.61406027 1.3125 7.5 C0.549375 7.005 -0.21375 6.51 -1 6 C-1.375 3.375 -1.375 3.375 -1 1 C-0.67 0.67 -0.34 0.34 0 0 Z " fill="#E0E0E0" transform="translate(188,69)"/>
<path d="M0 0 C0.125 2.375 0.125 2.375 0 5 C-0.66 5.66 -1.32 6.32 -2 7 C-3.32 7 -4.64 7 -6 7 C-6.26039063 7.721875 -6.52078125 8.44375 -6.7890625 9.1875 C-12.90128673 23.3836337 -26.9168835 35.84199651 -39 45 C-39.76022461 45.57621094 -40.52044922 46.15242188 -41.30371094 46.74609375 C-43.05235958 48.07040366 -44.80114469 49.39453338 -46.55004883 50.71850586 C-66.80089474 65.84343082 -66.80089474 65.84343082 -83 85 C-83.33 84.34 -83.66 83.68 -84 83 C-76.71668359 70.74271141 -66.29087611 62.33663254 -55 54 C-38.92025106 42.04119174 -23.25078052 30.03567893 -11.625 13.5 C-11.15449219 12.84185303 -10.68398438 12.18370605 -10.19921875 11.50561523 C-7.5352027 7.54248649 -6.43688686 4.93104476 -7 0 C-4.3333581 -1.33332095 -2.83319697 -0.67102033 0 0 Z " fill="#E0E0E1" transform="translate(481,70)"/>
<path d="M0 0 C4.84078554 1.64833011 8.82727396 4.32907061 13.0625 7.125 C14.19631104 7.86641235 14.19631104 7.86641235 15.35302734 8.62280273 C21.59388703 12.71070499 27.80383515 16.84473266 34 21 C36.18708116 22.45896653 38.37457841 23.91729534 40.5625 25.375 C41.8203386 26.21350252 43.07814907 27.05204724 44.3359375 27.890625 C45.40473145 28.6031543 45.40473145 28.6031543 46.49511719 29.33007812 C66.10571289 42.40380859 66.10571289 42.40380859 67.78495789 43.52420044 C69.43723068 44.6248269 71.09238605 45.72112197 72.74755859 46.81738281 C74.93498335 48.28529884 77.10457429 49.78010869 79.25634766 51.29980469 C80.29194824 52.02329102 81.32754883 52.74677734 82.39453125 53.4921875 C83.3069458 54.14300293 84.21936035 54.79381836 85.15942383 55.46435547 C88.46592537 57.25188402 91.28906694 57.60343757 95 58 C96 59 96 59 96.0625 61.5625 C96.041875 62.366875 96.02125 63.17125 96 64 C94.35 64.33 92.7 64.66 91 65 C90.50113281 64.11828125 90.00226563 63.2365625 89.48828125 62.328125 C86.8051453 58.31811193 83.25579971 56.21449022 79.1875 53.75 C77.64781218 52.78615444 76.10876095 51.82129131 74.5703125 50.85546875 C73.79977539 50.3764209 73.02923828 49.89737305 72.23535156 49.40380859 C68.96873299 47.35236071 65.76360543 45.21423356 62.5625 43.0625 C61.33860548 42.24339422 60.11464597 41.42438555 58.890625 40.60546875 C58.26607422 40.18700684 57.64152344 39.76854492 56.99804688 39.33740234 C52.49789081 36.32520111 47.98938184 33.32549411 43.48291016 30.32275391 C40.24935232 28.16774362 37.01685507 26.01129823 33.7890625 23.84765625 C29.47138781 20.95540567 25.14265892 18.08510702 20.76953125 15.27734375 C20.0226001 14.79724854 19.27566895 14.31715332 18.50610352 13.82250977 C17.05138152 12.88916416 15.59496026 11.95845919 14.13647461 11.03100586 C9.27543017 7.91350292 4.4348197 4.70952645 0 1 C0 0.67 0 0.34 0 0 Z " fill="#E0E0E0" transform="translate(475,406)"/>
<path d="M0 0 C0.66 0 1.32 0 2 0 C-0.94438863 7.851703 -4.91778259 14.65544872 -9.8125 21.4375 C-10.34077393 22.17887207 -10.86904785 22.92024414 -11.41333008 23.68408203 C-14.74669039 28.33782255 -18.16565022 32.90549005 -21.79296875 37.3359375 C-23.20111101 39.10159122 -23.20111101 39.10159122 -24 42 C-25.65806839 43.67522082 -27.32617524 45.34052231 -29 47 C-30.64169683 49.10376381 -32.21551607 51.19723222 -33.75 53.375 C-34.17829102 53.97932861 -34.60658203 54.58365723 -35.04785156 55.20629883 C-39.35525221 61.37025572 -43.2474019 67.7574178 -46.99804688 74.27197266 C-47.93271356 75.88395384 -48.89503302 77.479813 -49.859375 79.07421875 C-53.27267443 84.9012085 -54.67348231 89.25196771 -55 96 C-56 97 -56 97 -58.5625 97.0625 C-59.366875 97.041875 -60.17125 97.02125 -61 97 C-61.625 94.125 -61.625 94.125 -62 91 C-61.01 90.01 -61.01 90.01 -60 89 C-59.01 89 -58.02 89 -57 89 C-56.79375 88.2265625 -56.5875 87.453125 -56.375 86.65625 C-54.47056089 81.59217328 -51.7707971 77.13499635 -49 72.5 C-48.41476563 71.51749268 -47.82953125 70.53498535 -47.2265625 69.52270508 C-42.52266734 61.70877007 -37.52307623 54.25268705 -32 47 C-31.50000488 46.34225586 -31.00000977 45.68451172 -30.48486328 45.00683594 C-27.7468857 41.41225181 -24.99762147 37.82640371 -22.24609375 34.2421875 C-9.22620355 18.22125065 -9.22620355 18.22125065 0 0 Z " fill="#E0E0E0" transform="translate(271,472)"/>
<path d="M0 0 C1.875 0 1.875 0 4 1 C4.69120598 2.6956473 5.38214545 4.39140409 6.07128906 6.08789062 C7.63538823 9.30819154 9.96861962 11.69376779 12.4375 14.25 C13.23148193 15.08797119 13.23148193 15.08797119 14.04150391 15.94287109 C25.99654051 28.41446151 39.37615386 38.81795212 53.1875 49.125 C63.48091059 56.81622658 73.08046921 64.7322012 82 74 C81.67 74.66 81.34 75.32 81 76 C80.44054687 75.40574219 79.88109375 74.81148438 79.3046875 74.19921875 C72.37883855 67.03953889 64.91273982 61.01709311 57 55 C55.90170332 54.1570838 54.80402909 53.31335585 53.70703125 52.46875 C53.17625977 52.06019775 52.64548828 51.65164551 52.09863281 51.23071289 C51.30730957 50.62151001 51.30730957 50.62151001 50.5 50 C49.42841561 49.17574199 48.35680085 48.35152348 47.28515625 47.52734375 C46.74906738 47.11468262 46.21297852 46.70202148 45.66064453 46.27685547 C44.52982015 45.40737421 43.39794119 44.53926319 42.26513672 43.67236328 C31.07335706 35.0939553 20.79318856 25.83390244 10.75 15.9375 C10.17628662 15.37691895 9.60257324 14.81633789 9.01147461 14.23876953 C7.63453826 12.8645824 6.31173268 11.43655885 5 10 C5 9.34 5 8.68 5 8 C4.21625 8.04125 3.4325 8.0825 2.625 8.125 C0 8 0 8 -2 6 C-1.44444444 1.44444444 -1.44444444 1.44444444 0 0 Z " fill="#DFDFDF" transform="translate(148,98)"/>
<path d="M0 0 C0.33 0 0.66 0 1 0 C1.01458252 1.29397705 1.02916504 2.5879541 1.04418945 3.92114258 C1.10307247 8.81755407 1.18028092 13.71354778 1.26245117 18.60961914 C1.29528441 20.71078609 1.3234389 22.81203245 1.34643555 24.91333008 C1.46561201 35.52510655 1.723115 46.0027518 3.36328125 56.50390625 C3.47940262 57.24872757 3.59552399 57.99354889 3.71516418 58.76094055 C5.02701174 66.30663344 7.73181837 73.09131226 11 80 C11.43699219 80.94230469 11.87398438 81.88460937 12.32421875 82.85546875 C14.67524071 87.52550442 14.67524071 87.52550442 18.8125 90.5625 C19.534375 90.706875 20.25625 90.85125 21 91 C21.042721 92.66611905 21.04063832 94.33382885 21 96 C20 97 20 97 17.5 97.125 C15 97 15 97 14 96 C14.05542969 95.12085938 14.11085938 94.24171875 14.16796875 93.3359375 C13.9568413 89.14284807 12.57180723 87.14133398 10.3125 83.625 C0.76462388 67.93498066 -1.37363514 50.35396954 -1.1875 32.25 C-1.18105469 30.94337402 -1.17460937 29.63674805 -1.16796875 28.29052734 C-1.09294126 18.83354653 -0.77400685 9.42629765 0 0 Z " fill="#E1E1E1" transform="translate(481,446)"/>
<path d="M0 0 C-0.85078125 0.32871094 -1.7015625 0.65742188 -2.578125 0.99609375 C-15.80512788 6.18839595 -28.73585174 12.01395994 -41.5625 18.125 C-54.53729171 24.13648651 -70.33215309 31.32081079 -84.6875 32.5 C-86.3271875 32.7475 -86.3271875 32.7475 -88 33 C-89.5899433 34.92064793 -89.5899433 34.92064793 -90 37 C-91.65 36.67 -93.3 36.34 -95 36 C-95.625 34.125 -95.625 34.125 -96 32 C-95.34 31.34 -94.68 30.68 -94 30 C-91.89023488 30.03396 -89.78048238 30.06948949 -87.67089844 30.11328125 C-82.64590667 29.90015546 -77.93167796 28.3969837 -73.125 27 C-72.02293213 26.68385742 -70.92086426 26.36771484 -69.78540039 26.04199219 C-59.82382033 23.09822359 -50.41976837 19.34911939 -41 15 C-40.03642578 14.55543457 -39.07285156 14.11086914 -38.08007812 13.65283203 C-36.0002186 12.69196317 -33.92046761 11.73085936 -31.84082031 10.76953125 C-30.80022461 10.28871094 -29.75962891 9.80789063 -28.6875 9.3125 C-27.6675293 8.84070313 -26.64755859 8.36890625 -25.59667969 7.8828125 C-4.88422785 -1.62807595 -4.88422785 -1.62807595 0 0 Z " fill="#E2E2E2" transform="translate(153,342)"/>
<path d="M0 0 C1.66611905 -0.042721 3.33382885 -0.04063832 5 0 C6 1 6 1 6.125 3.5 C6 6 6 6 5 7 C4.02417969 6.91621094 3.04835938 6.83242187 2.04296875 6.74609375 C-3.27186601 6.69080113 -7.21486007 9.4551296 -11.6875 12.0625 C-13.63190459 13.16046355 -15.57726676 14.25673255 -17.5234375 15.3515625 C-18.56081055 15.93969727 -19.59818359 16.52783203 -20.66699219 17.13378906 C-26.66628962 20.49290345 -32.74349787 23.7066095 -38.8125 26.9375 C-45.46015065 30.4821233 -52.10198155 34.03232772 -58.67895508 37.70678711 C-63.58205779 40.43864101 -68.50974752 43.12545199 -73.4375 45.8125 C-75.06848633 46.7087207 -75.06848633 46.7087207 -76.73242188 47.62304688 C-78.28606445 48.46899414 -78.28606445 48.46899414 -79.87109375 49.33203125 C-80.80880615 49.84483643 -81.74651855 50.3576416 -82.71264648 50.88598633 C-85 52 -85 52 -87 52 C-87 51.34 -87 50.68 -87 50 C-80.06340297 45.92474925 -73.1044238 41.97597643 -65.875 38.4375 C-56.97143304 34.07064631 -48.25721689 29.35332902 -39.52612305 24.65478516 C-38.3195141 24.00550522 -37.11288988 23.35625369 -35.90625 22.70703125 C-35.31564285 22.38919678 -34.72503571 22.0713623 -34.11653137 21.74389648 C-28.0832214 18.50061974 -22.02193983 15.3114416 -15.94799805 12.14501953 C-12.62462505 10.4071409 -9.34699881 8.63074602 -6.11328125 6.73046875 C-3 5 -3 5 -1 5 C-0.67 3.35 -0.34 1.7 0 0 Z " fill="#DFE0E0" transform="translate(578,177)"/>
<path d="M0 0 C4.70588235 0.70588235 4.70588235 0.70588235 6 2 C8.37497023 2.0991332 10.72588409 2.13787904 13.1015625 2.140625 C14.62412077 2.15515245 16.14666389 2.17133973 17.66918945 2.18896484 C18.47667633 2.19804871 19.28416321 2.20713257 20.11611938 2.2164917 C37.32611112 2.44634623 53.49654018 4.29259436 70.42138672 7.39208984 C77.22895378 8.54851241 84.09256484 9.29035779 90.95825195 10.01123047 C91.87695068 10.1145166 92.79564941 10.21780273 93.7421875 10.32421875 C94.5451123 10.40760498 95.34803711 10.49099121 96.17529297 10.5769043 C96.77744629 10.71652588 97.37959961 10.85614746 98 11 C98.495 11.99 98.495 11.99 99 13 C88.17088339 12.59876452 77.77719873 11.4397264 67.12728882 9.47369385 C46.82600529 5.7673473 26.59881961 4.60826925 6 4 C5.67 4.99 5.34 5.98 5 7 C3.33388095 7.042721 1.66617115 7.04063832 0 7 C-1 6 -1 6 -1.125 3.5 C-1 1 -1 1 0 0 Z " fill="#E0E0E0" transform="translate(52,322)"/>
<path d="M0 0 C2.625 0.375 2.625 0.375 5 1 C5.042721 2.66611905 5.04063832 4.33382885 5 6 C4 7 4 7 1.4375 7.0625 C0.2309375 7.0315625 0.2309375 7.0315625 -1 7 C-1 6.34 -1 5.68 -1 5 C-32.54593847 8.90687512 -52.54235963 23.57260193 -76 44 C-76.66 43.67 -77.32 43.34 -78 43 C-71.22043922 35.39310299 -63.0890103 29.48353123 -54.94287109 23.44335938 C-53.36541978 22.27147043 -51.79997504 21.08343214 -50.23828125 19.890625 C-43.06135407 14.57799299 -35.07113531 10.75524795 -27 7 C-26.2265625 6.62488281 -25.453125 6.24976563 -24.65625 5.86328125 C-19.61357612 4.22441224 -14.28525083 3.81715338 -9.04101562 3.14453125 C-8.16767578 3.02464844 -7.29433594 2.90476562 -6.39453125 2.78125 C-5.20114136 2.6275293 -5.20114136 2.6275293 -3.98364258 2.47070312 C-1.78159794 2.13142763 -1.78159794 2.13142763 0 0 Z " fill="#E2E2E2" transform="translate(612,322)"/>
<path d="M0 0 C0.33 0 0.66 0 1 0 C2.18137461 17.72061921 -8.67547757 32.24730923 -19.40942383 45.30395508 C-31.36196402 59.89450637 -42.42340626 76.25311136 -49 94 C-49.66 94 -50.32 94 -51 94 C-50.41132734 90.40268861 -49.44777187 87.53912586 -47.77734375 84.3046875 C-47.32528564 83.42925293 -46.87322754 82.55381836 -46.4074707 81.65185547 C-45.92238037 80.73549316 -45.43729004 79.81913086 -44.9375 78.875 C-44.19149536 77.45985107 -44.19149536 77.45985107 -43.43041992 76.01611328 C-39.77103174 69.18989021 -35.8004552 63.08256435 -31 57 C-29.70199021 55.21292339 -28.41049457 53.4211002 -27.125 51.625 C-24.5438292 48.06318754 -21.89593823 44.56924129 -19.18188477 41.10888672 C-9.41353394 28.6160547 -2.40344801 15.89145478 0 0 Z " fill="#E0E0E0" transform="translate(337,346)"/>
<path d="M0 0 C0.625 2.375 0.625 2.375 1 5 C0.34 5.66 -0.32 6.32 -1 7 C-1.99 7 -2.98 7 -4 7 C-4.10054688 7.63679688 -4.20109375 8.27359375 -4.3046875 8.9296875 C-5.25307055 13.11749129 -6.68639977 17.08323692 -8.125 21.125 C-8.4341333 22.0001123 -8.7432666 22.87522461 -9.06176758 23.77685547 C-13.15773057 35.32840319 -17.26107722 46.89557968 -21.890625 58.24609375 C-23.54709424 62.35810365 -25.14569902 66.49240697 -26.75 70.625 C-27.06839844 71.44492432 -27.38679688 72.26484863 -27.71484375 73.10961914 C-28.47695429 75.07292739 -29.23853308 77.03644204 -30 79 C-30.66 78.67 -31.32 78.34 -32 78 C-26.08587505 60.9302119 -19.75911606 44.01465614 -13.1875 27.1875 C-12.62755297 25.74611364 -12.06765471 24.30470833 -11.5078125 22.86328125 C-10.58092787 20.47844791 -9.63783819 18.10316735 -8.6796875 15.73046875 C-6.51434863 10.19598373 -5.5508682 5.95099637 -6 0 C-3.50907189 -1.24546405 -2.58919267 -0.7767578 0 0 Z " fill="#DEDFDF" transform="translate(435,48)"/>
<path d="M0 0 C0.66 0 1.32 0 2 0 C3.629268 3.70647249 5.25265013 7.41549478 6.875 11.125 C7.56529297 12.69507813 7.56529297 12.69507813 8.26953125 14.296875 C8.71425781 15.31523438 9.15898437 16.33359375 9.6171875 17.3828125 C10.02565918 18.31496582 10.43413086 19.24711914 10.85498047 20.20751953 C15.64842545 31.89780177 16.47259034 43.57310324 17.2109375 56.0703125 C17.28570312 57.19179688 17.36046875 58.31328125 17.4375 59.46875 C17.49808594 60.48388672 17.55867188 61.49902344 17.62109375 62.54492188 C17.7791439 65.17312921 17.7791439 65.17312921 20 67 C19.625 69.625 19.625 69.625 19 72 C17.02 72 15.04 72 13 72 C12.375 69.625 12.375 69.625 12 67 C12.99 66.01 12.99 66.01 14 65 C17.0550073 44.2131142 10.57322543 22.99119112 1.28515625 4.60546875 C0 2 0 2 0 0 Z " fill="#E1E1E1" transform="translate(293,523)"/>
<path d="M0 0 C0.33 0 0.66 0 1 0 C0.56085146 9.57343807 -1.44273003 18.80331666 -3.40429688 28.15234375 C-4.02306125 31.11024031 -4.62970302 34.07044237 -5.234375 37.03125 C-6.46277776 43.02661729 -7.72229463 49.01495904 -9 55 C-9.1753125 55.82757813 -9.350625 56.65515625 -9.53125 57.5078125 C-14.98573635 82.9904909 -14.98573635 82.9904909 -21 87 C-20.5875 85.80375 -20.175 84.6075 -19.75 83.375 C-16.02233117 72.13412401 -13.18366753 60.79802108 -10.875 49.1875 C-10.3729504 46.70171085 -9.87035909 44.21603103 -9.3671875 41.73046875 C-9.13080566 40.5597583 -8.89442383 39.38904785 -8.65087891 38.18286133 C-7.81790186 34.10952233 -6.92924577 30.05233422 -6 26 C-5.76361816 24.96883057 -5.52723633 23.93766113 -5.28369141 22.87524414 C-4.48340121 19.39538886 -3.67973225 15.91633056 -2.875 12.4375 C-2.59785156 11.23802734 -2.32070313 10.03855469 -2.03515625 8.80273438 C-1.35710567 5.86841202 -0.67871223 2.93416938 0 0 Z " fill="#E1E1E1" transform="translate(366,244)"/>
<path d="M0 0 C4.56539649 1.65149954 7.30964243 1.9158848 12.16455078 0.89379883 C13.15455078 1.88379883 13.15455078 1.88379883 14.16455078 2.89379883 C13.78955078 5.51879883 13.78955078 5.51879883 13.16455078 7.89379883 C11.35205078 8.58129883 11.35205078 8.58129883 9.16455078 8.89379883 C7.41455078 7.58129883 7.41455078 7.58129883 6.16455078 5.89379883 C6.16455078 5.23379883 6.16455078 4.57379883 6.16455078 3.89379883 C3.63167768 3.19870683 1.09793586 2.50707872 -1.43701172 1.81958008 C-3.78815146 1.17909718 -6.13698081 0.5300946 -8.48388672 -0.12573242 C-9.73427734 -0.46991211 -10.98466797 -0.8140918 -12.27294922 -1.16870117 C-13.42666016 -1.48967773 -14.58037109 -1.8106543 -15.76904297 -2.14135742 C-27.0217219 -4.93374195 -38.05795904 -5.49812639 -49.58544922 -5.73120117 C-51.16880152 -5.76948715 -52.75213536 -5.80854455 -54.33544922 -5.84838867 C-58.16862833 -5.94320138 -62.00190403 -6.02763968 -65.83544922 -6.10620117 C-65.83544922 -6.43620117 -65.83544922 -6.76620117 -65.83544922 -7.10620117 C-42.92181914 -8.43439661 -21.7424332 -8.19019476 0 0 Z " fill="#E4E4E4" transform="translate(580.83544921875,418.106201171875)"/>
<path d="M0 0 C0.02712066 1.43739513 0.04645067 2.87493863 0.0625 4.3125 C0.07410156 5.11300781 0.08570313 5.91351563 0.09765625 6.73828125 C0 9 0 9 -1 12 C-1.12209024 14.39353663 -1.17548085 16.79088173 -1.1875 19.1875 C-1.20167969 20.45980469 -1.21585937 21.73210937 -1.23046875 23.04296875 C-0.82209414 30.05455313 1.33051325 36.34876887 3.8125 42.875 C4.07240723 43.56609863 4.33231445 44.25719727 4.60009766 44.96923828 C6.47844534 49.87031956 8.62482029 54.55548419 11.1171875 59.1796875 C12 61 12 61 12 63 C9 62 9 62 7.89672852 60.16503906 C7.56084717 59.37323242 7.22496582 58.58142578 6.87890625 57.765625 C6.50241943 56.88825684 6.12593262 56.01088867 5.73803711 55.10693359 C5.35010986 54.16414551 4.96218262 53.22135742 4.5625 52.25 C4.16361572 51.28787598 3.76473145 50.32575195 3.35375977 49.33447266 C2.2186197 46.56289529 1.10631325 43.78318463 0 41 C-0.48726563 39.80632812 -0.97453125 38.61265625 -1.4765625 37.3828125 C-4.83624262 28.07722368 -4.37063508 18.74976181 -4 9 C-3.34 9 -2.68 9 -2 9 C-2 8.34 -2 7.68 -2 7 C-3.32 6.67 -4.64 6.34 -6 6 C-6 4.35 -6 2.7 -6 1 C-3.92446352 0.4465236 -2.15634036 0 0 0 Z " fill="#E2E1E1" transform="translate(282,460)"/>
<path d="M0 0 C0.33 0 0.66 0 1 0 C0.85677897 1.54191154 0.71028211 3.08351892 0.5625 4.625 C0.48128906 5.48351562 0.40007812 6.34203125 0.31640625 7.2265625 C0.10333584 9.09421667 -0.17272939 10.95562515 -0.50708008 12.80541992 C-1.32174304 18.0851945 -1.2258827 23.35456218 -1.25 28.6875 C-1.270625 29.80833984 -1.29125 30.92917969 -1.3125 32.08398438 C-1.34319214 38.69430369 -0.68420309 44.37019435 1.35253906 50.67114258 C2 53 2 53 2 57 C2.639375 57.144375 3.27875 57.28875 3.9375 57.4375 C6 58 6 58 7 59 C7.125 61.5 7.125 61.5 7 64 C6 65 6 65 3.5 65.125 C1 65 1 65 0 64 C0.061875 62.96875 0.12375 61.9375 0.1875 60.875 C0.26744026 56.73264124 -0.74063085 53.43276683 -2 49.5 C-6.24166041 35.28619965 -6.81283844 13.62567688 0 0 Z " fill="#E1E2E2" transform="translate(452,504)"/>
<path d="M0 0 C4.1687295 2.97976087 6.8383588 6.31281453 9.5 10.625 C9.88945801 11.24818115 10.27891602 11.8713623 10.68017578 12.51342773 C16.9461397 22.6593789 22 32.7601252 22 45 C23.32 45.66 24.64 46.32 26 47 C25.67 48.65 25.34 50.3 25 52 C23.1875 52.625 23.1875 52.625 21 53 C20.01 52.34 19.02 51.68 18 51 C18.2475 50.01 18.2475 50.01 18.5 49 C19.63740996 42.17554022 19.04945136 36.78123111 16.5 30.375 C16.23517822 29.69131348 15.97035645 29.00762695 15.69750977 28.30322266 C12.33557745 19.93364339 8.15440329 11.592822 2.25390625 4.7265625 C0 2 0 2 0 0 Z " fill="#E1E1E1" transform="translate(337,543)"/>
<path d="M0 0 C1.05731323 0.23879883 1.05731323 0.23879883 2.13598633 0.48242188 C5.07164107 1.01294681 7.84365775 1.19090813 10.82421875 1.28125 C12.49194336 1.33732422 12.49194336 1.33732422 14.19335938 1.39453125 C15.92295898 1.44673828 15.92295898 1.44673828 17.6875 1.5 C25.49892145 1.73980487 33.23473142 2.09149776 41 3 C40.67 3.66 40.34 4.32 40 5 C28.78 4.67 17.56 4.34 6 4 C5.34 5.32 4.68 6.64 4 8 C2.02 8 0.04 8 -2 8 C-2 7.34 -2 6.68 -2 6 C-3.65 6 -5.3 6 -7 6 C-7.33 5.34 -7.66 4.68 -8 4 C-7.05125 3.896875 -6.1025 3.79375 -5.125 3.6875 C-1.70892499 3.31460705 -1.70892499 3.31460705 0 0 Z " fill="#E3E3E3" transform="translate(193,328)"/>
<path d="M0 0 C1.67542976 0.28604898 3.34385343 0.61781233 5 1 C4.9175 2.155 4.835 3.31 4.75 4.5 C4.72264926 8.95133375 5.70490894 12.56697263 7 16.8125 C10.49698874 28.80560915 9.33852521 41.64643404 9 54 C8.67 54 8.34 54 8 54 C7.96036133 53.27635254 7.92072266 52.55270508 7.87988281 51.80712891 C6.91733841 34.04298748 6.91733841 34.04298748 4.125 16.5 C3.97579102 15.77248535 3.82658203 15.0449707 3.67285156 14.29541016 C2.91923517 11.11681343 2.29645378 9.27364964 -0.1328125 7.03125 C-0.74898437 6.6909375 -1.36515625 6.350625 -2 6 C-1.125 1.125 -1.125 1.125 0 0 Z " fill="#DADBDD" transform="translate(234,47)"/>
<path d="M0 0 C2.625 0.375 2.625 0.375 5 1 C5 2.98 5 4.96 5 7 C3.68 7.33 2.36 7.66 1 8 C0.855625 8.78375 0.71125 9.5675 0.5625 10.375 C0 13 0 13 -1 15 C-1 16.32 -1 17.64 -1 19 C-1.66 19.66 -2.32 20.32 -3 21 C-4.32 21 -5.64 21 -7 21 C-7 22.65 -7 24.3 -7 26 C-7.7425 26.12375 -8.485 26.2475 -9.25 26.375 C-11.80141485 26.95486701 -13.7267573 27.73708739 -16 29 C-16 28.34 -16 27.68 -16 27 C-14.64453125 25.7734375 -14.64453125 25.7734375 -12.8125 24.375 C-9.30081545 21.50309603 -7.21321093 18.49438442 -5.04296875 14.5390625 C-4.69878906 14.03117187 -4.35460937 13.52328125 -4 13 C-3.34 13 -2.68 13 -2 13 C-2.02320313 12.22914063 -2.04640625 11.45828125 -2.0703125 10.6640625 C-2.08835937 9.66117187 -2.10640625 8.65828125 -2.125 7.625 C-2.14820313 6.62726563 -2.17140625 5.62953125 -2.1953125 4.6015625 C-2 2 -2 2 0 0 Z " fill="#DEDEE0" transform="translate(283,440)"/>
<path d="M0 0 C2.5625 0.1875 2.5625 0.1875 4.5625 2.1875 C4.5625 3.1775 4.5625 4.1675 4.5625 5.1875 C6.18616976 5.6505237 7.81153806 6.10759098 9.4375 6.5625 C10.34242187 6.81773437 11.24734375 7.07296875 12.1796875 7.3359375 C20.73430029 9.48940816 28.86378333 10.54307354 37.6875 10.8125 C38.739375 10.85117188 39.79125 10.88984375 40.875 10.9296875 C43.43733756 11.02286341 45.99968779 11.10867382 48.5625 11.1875 C48.5625 11.5175 48.5625 11.8475 48.5625 12.1875 C45.10524055 12.41701631 41.6468424 12.6171071 38.1875 12.8125 C37.22199219 12.87695312 36.25648437 12.94140625 35.26171875 13.0078125 C26.77063443 13.46370964 19.27574021 12.19120246 11.1875 9.625 C5.63530307 7.80814375 5.63530307 7.80814375 -0.125 7.1875 C-0.888125 7.1875 -1.65125 7.1875 -2.4375 7.1875 C-3.4375 6.1875 -3.4375 6.1875 -3.5625 3.6875 C-3.39599509 0.35740177 -3.31519894 0.2550153 0 0 Z " fill="#E4E4E4" transform="translate(87.4375,176.8125)"/>
<path d="M0 0 C2.83666927 2.51199025 4.4250234 5.32469185 6.25 8.625 C12.44138056 19.40162892 21.74480224 34.2701572 34 38 C34.042721 39.66611905 34.04063832 41.33382885 34 43 C33 44 33 44 30.4375 44.0625 C29.633125 44.041875 28.82875 44.02125 28 44 C27.690625 43.05125 27.38125 42.1025 27.0625 41.125 C25.09581328 36.50514157 21.79620119 33.30396556 18.40625 29.671875 C10.93261651 21.37323003 2.88334388 10.95670675 0 0 Z " fill="#E0E0E0" transform="translate(506,466)"/>
<path d="M0 0 C0.67604279 0.00177246 1.35208557 0.00354492 2.0486145 0.00537109 C14.2117065 0.04269055 26.23190863 0.8302453 38.3125 2.25 C38.3125 2.58 38.3125 2.91 38.3125 3.25 C28.82132148 3.33833568 19.40134938 3.4058685 9.9375 2.625 C-2.60557363 1.66154433 -15.28750925 3.38150824 -27.6875 5.25 C-20.6997518 -1.43393306 -8.90840557 -0.06110242 0 0 Z " fill="#E0E0E0" transform="translate(511.6875,230.75)"/>
<path d="M0 0 C1.67542976 0.28604898 3.34385343 0.61781233 5 1 C5.625 2.875 5.625 2.875 6 5 C5.34 5.66 4.68 6.32 4 7 C3.93139318 9.9202642 3.96319224 12.77249176 4.0625 15.6875 C4.23177541 24.62166894 4.08640827 34.82718346 0 43 C-0.66 43 -1.32 43 -2 43 C-1.86722656 42.34773438 -1.73445313 41.69546875 -1.59765625 41.0234375 C-1.42105469 40.14945313 -1.24445313 39.27546875 -1.0625 38.375 C-0.88847656 37.51648438 -0.71445312 36.65796875 -0.53515625 35.7734375 C-0.35855469 34.85820313 -0.18195313 33.94296875 0 33 C0.18175781 32.09894531 0.36351562 31.19789062 0.55078125 30.26953125 C1.14570665 25.93950903 1.22327654 21.67844583 1.25 17.3125 C1.270625 16.45849609 1.29125 15.60449219 1.3125 14.72460938 C1.32023437 13.49387695 1.32023437 13.49387695 1.328125 12.23828125 C1.34214355 11.1251355 1.34214355 11.1251355 1.35644531 9.98950195 C0.90633927 7.47723199 -0.17381199 6.7064929 -2 5 C-1.74853421 2.86254078 -1.54074221 1.54074221 0 0 Z " fill="#E1E1E1" transform="translate(282,34)"/>
<path d="M0 0 C2.625 0.375 2.625 0.375 5 1 C5.020625 1.94875 5.04125 2.8975 5.0625 3.875 C5.73648093 8.3622941 8.01408236 11.17764828 10.6796875 14.7578125 C13.78630054 19.09870278 16.60351362 23.60299253 19.4375 28.125 C19.98188721 28.99157227 20.52627441 29.85814453 21.0871582 30.75097656 C22.3935292 32.83268696 23.69784385 34.91565145 25 37 C24.34 37.66 23.68 38.32 23 39 C22.443125 38.05640625 21.88625 37.1128125 21.3125 36.140625 C16.43731544 27.92322461 11.38152191 19.89806094 6 12 C5.34 11.01 4.68 10.02 4 9 C2.7315625 8.566875 2.7315625 8.566875 1.4375 8.125 C-1 7 -1 7 -1.9375 4.5 C-1.958125 3.675 -1.97875 2.85 -2 2 C-1.34 1.34 -0.68 0.68 0 0 Z " fill="#DEDFE0" transform="translate(250,196)"/>
<path d="M0 0 C2.17027882 -0.00220507 4.34006356 -0.02045033 6.51025391 -0.03930664 C7.88915842 -0.04223763 9.26806534 -0.04422439 10.64697266 -0.04516602 C11.89704102 -0.0492749 13.14710938 -0.05338379 14.43505859 -0.05761719 C17.41259766 0.18530273 17.41259766 0.18530273 19.41259766 2.18530273 C19.03759766 4.31030273 19.03759766 4.31030273 18.41259766 6.18530273 C16.76259766 6.51530273 15.11259766 6.84530273 13.41259766 7.18530273 C12.75259766 5.86530273 12.09259766 4.54530273 11.41259766 3.18530273 C10.11056396 3.20101318 10.11056396 3.20101318 8.78222656 3.21704102 C5.56560238 3.2510999 2.34906999 3.2761904 -0.86767578 3.29516602 C-2.26061016 3.30523151 -3.65352337 3.31888507 -5.04638672 3.33618164 C-7.04694594 3.36040494 -9.04765849 3.37071087 -11.04833984 3.38061523 C-12.25280762 3.39108887 -13.45727539 3.4015625 -14.69824219 3.41235352 C-17.58740234 3.18530273 -17.58740234 3.18530273 -19.58740234 1.18530273 C-13.06845058 -0.0690637 -6.60888486 -0.00075461 0 0 Z " fill="#E2E3E3" transform="translate(591.58740234375,371.814697265625)"/>
<path d="M0 0 C1.67542976 0.28604898 3.34385343 0.61781233 5 1 C5.38218767 2.65614657 5.71395102 4.32457024 6 6 C5 7 5 7 1.3125 7.4375 C-9.50336493 9.72812108 -19.70027862 20.15368605 -28 27 C-28.33 26.34 -28.66 25.68 -29 25 C-24.21333657 20.51064485 -19.1306505 16.51885574 -13.8125 12.6875 C-13.21872559 12.25518066 -12.62495117 11.82286133 -12.01318359 11.37744141 C-9.4428752 9.54849892 -7.064109 8.02522607 -4.12109375 6.8671875 C-3.42113281 6.58101562 -2.72117187 6.29484375 -2 6 C-1.18068911 3.48823926 -1.18068911 3.48823926 -1 1 C-0.67 0.67 -0.34 0.34 0 0 Z " fill="#DEDFE0" transform="translate(455,243)"/>
<path d="M0 0 C0.66 0.33 1.32 0.66 2 1 C-11.18359375 8.32421875 -11.18359375 8.32421875 -13.6184082 9.67651367 C-15.13560753 10.51964412 -16.65241473 11.36348086 -18.16870117 12.20825195 C-24.57428402 15.7748235 -31.00070899 19.30259025 -37.4375 22.8125 C-39.06848633 23.7087207 -39.06848633 23.7087207 -40.73242188 24.62304688 C-42.28606445 25.46899414 -42.28606445 25.46899414 -43.87109375 26.33203125 C-45.27766235 27.10123901 -45.27766235 27.10123901 -46.71264648 27.88598633 C-49 29 -49 29 -51 29 C-51 28.34 -51 27.68 -51 27 C-43.2888033 22.46967194 -35.52093113 18.16675109 -27.48779297 14.23266602 C-23.41441709 12.23025751 -19.38926707 10.1566331 -15.38671875 8.015625 C-14.431604 7.50620361 -13.47648926 6.99678223 -12.49243164 6.47192383 C-10.60142148 5.46000396 -8.71378944 4.44174224 -6.82983398 3.41674805 C-5.97075439 2.95824463 -5.1116748 2.49974121 -4.2265625 2.02734375 C-3.45908691 1.61218506 -2.69161133 1.19702637 -1.90087891 0.76928711 C-1.27358887 0.51542236 -0.64629883 0.26155762 0 0 Z " fill="#E0E0E0" transform="translate(542,200)"/>
<path d="M0 0 C0.66 0.66 1.32 1.32 2 2 C0.046875 5.41796875 -1.90625 8.8359375 -3.859375 12.25390625 C-4.2102417 12.87265625 -4.5611084 13.49140625 -4.92260742 14.12890625 C-5.64338014 15.3806629 -6.38076416 16.6229941 -7.1340332 17.85546875 C-9.17702875 21.24228711 -10.48850304 23.90878477 -10.6875 27.875 C-10.92792793 31.92792793 -10.92792793 31.92792793 -12 33 C-13.66617115 33.04063832 -15.33388095 33.042721 -17 33 C-17.625 30.125 -17.625 30.125 -18 27 C-17.34 26.34 -16.68 25.68 -16 25 C-15.01 25 -14.02 25 -13 25 C-12.78601563 24.21367188 -12.57203125 23.42734375 -12.3515625 22.6171875 C-10.54716902 17.78808819 -8.00008927 13.54900831 -5.375 9.125 C-4.859375 8.24585938 -4.34375 7.36671875 -3.8125 6.4609375 C-2.54664427 4.3042944 -1.27571593 2.15082012 0 0 Z " fill="#DEE0E1" transform="translate(227,536)"/>
<path d="M0 0 C-1.59328125 0.76183594 -1.59328125 0.76183594 -3.21875 1.5390625 C-16.14886192 7.0338179 -16.14886192 7.0338179 -25.4375 16.8125 C-25.623125 17.534375 -25.80875 18.25625 -26 19 C-27 20 -27 20 -29.5 20.125 C-32 20 -32 20 -33 19 C-33.04063832 17.33382885 -33.042721 15.66611905 -33 14 C-31.9275 13.67 -30.855 13.34 -29.75 13 C-25.77868937 11.53096651 -22.54652102 9.45804326 -19.0625 7.0625 C-6.19874629 -1.75185462 -6.19874629 -1.75185462 0 0 Z " fill="#DFE0E1" transform="translate(161,490)"/>
<path d="M0 0 C2.625 0.375 2.625 0.375 5 1 C5.6875 2.8125 5.6875 2.8125 6 5 C4.625 6.5 4.625 6.5 3 8 C1.72186956 11.67126079 1.6834711 15.54166521 1.46484375 19.390625 C1.42186661 20.09523865 1.37888947 20.79985229 1.33460999 21.52581787 C1.19871902 23.76701648 1.06803874 26.00848391 0.9375 28.25 C0.84604719 29.77345819 0.75425414 31.296896 0.66210938 32.8203125 C0.43746393 36.54664695 0.21748929 40.27324025 0 44 C-0.33 44 -0.66 44 -1 44 C-0.99476318 42.86981445 -0.98952637 41.73962891 -0.98413086 40.57519531 C-0.96601774 36.37826328 -0.95454488 32.18133469 -0.94506836 27.984375 C-0.94004259 26.16861388 -0.93322097 24.3528568 -0.92456055 22.53710938 C-0.91241811 19.9257711 -0.90675409 17.31448638 -0.90234375 14.703125 C-0.89718246 13.89256653 -0.89202118 13.08200806 -0.88670349 12.24688721 C-0.84389582 8.01179352 -0.84389582 8.01179352 -1.63209534 3.87860107 C-1.75350388 3.25866272 -1.87491241 2.63872437 -2 2 C-1.34 1.34 -0.68 0.68 0 0 Z " fill="#DDDEDE" transform="translate(382,34)"/>
<path d="M0 0 C0.99 0.33 1.98 0.66 3 1 C-3.5459632 5.96101542 -10.12878828 10.37536841 -17.37109375 14.26171875 C-20.25433013 16.16816777 -21.98934319 18.20979777 -24 21 C-25.32 20.67 -26.64 20.34 -28 20 C-28.625 17.625 -28.625 17.625 -29 15 C-28.34 14.34 -27.68 13.68 -27 13 C-25.94941406 13.03480469 -24.89882812 13.06960938 -23.81640625 13.10546875 C-19.36978228 12.98258354 -16.61932523 11.58357049 -12.9375 9.3125 C-12.35162109 8.97283203 -11.76574219 8.63316406 -11.16210938 8.28320312 C-8.10138545 6.46579214 -5.41181896 4.53884985 -2.75390625 2.16796875 C-1.84511719 1.45253906 -0.93632813 0.73710937 0 0 Z " fill="#DFE0E1" transform="translate(102,406)"/>
<path d="M0 0 C3 0.0625 3 0.0625 6 1 C6.66761004 2.66628901 7.3341901 4.33299088 8 6 C14.29681705 11.85545137 23.30705145 15.3012566 31 19 C28.3189967 20.05369665 27.26532318 20.10892661 24.5546875 18.99609375 C23.67039063 18.48175781 22.78609375 17.96742188 21.875 17.4375 C20.90820312 16.88449219 19.94140625 16.33148438 18.9453125 15.76171875 C16.19635147 14.1174463 13.47322154 12.43639866 10.75 10.75 C6.86777228 8.38097286 3.4353833 6.96421376 -1 6 C-1.625 4.125 -1.625 4.125 -2 2 C-1.34 1.34 -0.68 0.68 0 0 Z " fill="#E0E1E1" transform="translate(113,135)"/>
<path d="M0 0 C1.2684375 0.12375 1.2684375 0.12375 2.5625 0.25 C3.2225 1.24 3.8825 2.23 4.5625 3.25 C7.32644911 4.1710985 7.32644911 4.1710985 10.5625 4.75 C14.8421059 5.66298259 19.09487229 6.57979116 23.3125 7.75 C24.11171875 7.9665625 24.9109375 8.183125 25.734375 8.40625 C26.33765625 8.6846875 26.9409375 8.963125 27.5625 9.25 C27.8925 10.24 28.2225 11.23 28.5625 12.25 C26.83232492 11.79548816 25.10340123 11.33621143 23.375 10.875 C22.41207031 10.61976563 21.44914062 10.36453125 20.45703125 10.1015625 C17.5625 9.25 17.5625 9.25 14.99609375 8.19140625 C12.53722957 7.24022444 10.42742685 6.83013513 7.8125 6.5625 C6.64460938 6.43294922 6.64460938 6.43294922 5.453125 6.30078125 C4.82921875 6.28402344 4.2053125 6.26726562 3.5625 6.25 C3.2325 6.58 2.9025 6.91 2.5625 7.25 C0.0625 7.375 0.0625 7.375 -2.4375 7.25 C-3.4375 6.25 -3.4375 6.25 -3.5625 3.75 C-3.39590427 0.41808548 -3.30551904 0.33902759 0 0 Z " fill="#E1E1E2" transform="translate(56.4375,271.75)"/>
<path d="M0 0 C1.67542976 0.28604898 3.34385343 0.61781233 5 1 C5.625 2.875 5.625 2.875 6 5 C4 7 4 7 1.375 7.6875 C-7.19957697 11.02205771 -13.68099321 19.56445415 -20 26 C-20 23 -20 23 -18.42578125 21.1328125 C-17.72839844 20.47023437 -17.03101563 19.80765625 -16.3125 19.125 C-15.58160156 18.42117187 -14.85070312 17.71734375 -14.09765625 16.9921875 C-13.40542969 16.33476562 -12.71320312 15.67734375 -12 15 C-11.0925 14.0925 -10.185 13.185 -9.25 12.25 C-7.80174614 10.80174614 -6.32408651 9.38202196 -4.8125 8 C-2.80271988 5.78231159 -1.98475911 3.80277593 -1 1 C-0.67 0.67 -0.34 0.34 0 0 Z " fill="#DDDEDE" transform="translate(551,135)"/>
<path d="M0 0 C0.66 0.33 1.32 0.66 2 1 C1.58637207 1.40839111 1.17274414 1.81678223 0.74658203 2.23754883 C-1.12991033 4.0932264 -3.00248449 5.95280994 -4.875 7.8125 C-5.52597656 8.45509766 -6.17695313 9.09769531 -6.84765625 9.75976562 C-7.47285156 10.38173828 -8.09804687 11.00371094 -8.7421875 11.64453125 C-9.3182373 12.21534424 -9.89428711 12.78615723 -10.48779297 13.37426758 C-13.78027732 16.91392746 -14.78695478 20.40775738 -16 25 C-17.66611905 25.042721 -19.33382885 25.04063832 -21 25 C-22 24 -22 24 -22.1875 21.5625 C-22 19 -22 19 -20 17 C-19.21625 16.731875 -18.4325 16.46375 -17.625 16.1875 C-14.32210731 14.69333426 -13.22499695 12.86071036 -11 10 C-9.01091153 8.16049746 -6.96817376 6.40102266 -4.90234375 4.6484375 C-3.18778129 3.16271808 -1.58115759 1.62548911 0 0 Z " fill="#DEE0E1" transform="translate(188,518)"/>
<path d="M0 0 C2.76276177 0.52268466 5.3260876 1.10869587 8 2 C8 2.66 8 3.32 8 4 C7.01 4.33 6.02 4.66 5 5 C3.86454438 7.29534258 3.86454438 7.29534258 3 10 C2.33333333 11.66666667 1.66666667 13.33333333 1 15 C0.01 14.67 -0.98 14.34 -2 14 C-0.125 9.25 -0.125 9.25 1 7 C0.34 7 -0.32 7 -1 7 C-1.12375 7.5775 -1.2475 8.155 -1.375 8.75 C-2.00648824 11.02335767 -2.88858191 12.9253529 -4 15 C-4.99 15 -5.98 15 -7 15 C-7.33 14.01 -7.66 13.02 -8 12 C-7.01 11.67 -6.02 11.34 -5 11 C-3.94978897 9.15028304 -3.94978897 9.15028304 -3 7 C-1.5625 4.75 -1.5625 4.75 0 3 C0.99 3 1.98 3 3 3 C2.01 2.01 1.02 1.02 0 0 Z " fill="#F4F5F5" transform="translate(272,465)"/>
<path d="M0 0 C0.66 0.33 1.32 0.66 2 1 C1.22398437 1.58265625 0.44796875 2.1653125 -0.3515625 2.765625 C-13.09889793 12.40395157 -25.02316787 21.6059965 -34 35 C-34.33 34.34 -34.66 33.68 -35 33 C-26.55871983 18.79394314 -13.63032421 8.93724851 0 0 Z " fill="#E0E0E0" transform="translate(432,120)"/>
<path d="M0 0 C-0.85078125 0.32871094 -1.7015625 0.65742188 -2.578125 0.99609375 C-11.09277715 4.33854763 -19.4541034 7.93747512 -27.76855469 11.75170898 C-33.44658923 14.34598339 -39.18505284 16.72936498 -45 19 C-45 18.34 -45 17.68 -45 17 C-41.27266506 15.23166674 -37.54122394 13.47236963 -33.80615234 11.72045898 C-32.54268962 11.12642386 -31.28027305 10.53015725 -30.01904297 9.93139648 C-5.33734357 -1.77911452 -5.33734357 -1.77911452 0 0 Z " fill="#E2E2E2" transform="translate(153,342)"/>
<path d="M0 0 C0.93423645 3.01031744 1.04449911 3.86650268 0 7 C-1.65 7 -3.3 7 -5 7 C-5 8.98 -5 10.96 -5 13 C-4.01 13.33 -3.02 13.66 -2 14 C-3.98 14.99 -3.98 14.99 -6 16 C-5.01 16.33 -4.02 16.66 -3 17 C-3.99 17.66 -4.98 18.32 -6 19 C-5.67 19.99 -5.34 20.98 -5 22 C-6.3125 24.6875 -6.3125 24.6875 -8 27 C-8.66 27 -9.32 27 -10 27 C-10.18315911 22.32944273 -9.78538017 19.26507485 -8 15 C-7.24247637 11.68327492 -6.6108277 8.346556 -6 5 C-4.35 4.67 -2.7 4.34 -1 4 C-0.67 2.68 -0.34 1.36 0 0 Z " fill="#E7E7E8" transform="translate(396,145)"/>
<path d="M0 0 C2.52107642 2.37459186 4.49828881 4.97473485 6.5625 7.75 C14.49044724 17.63120961 24.42207078 21.78563376 36 26 C31.15281908 27.85367251 27.58549474 25.49966191 23.1015625 23.51953125 C13.55692137 18.84337835 5.30434054 12.33563935 0 3 C0 2.01 0 1.02 0 0 Z " fill="#E0E0E0" transform="translate(343,336)"/>
<path d="M0 0 C2.625 0.375 2.625 0.375 5 1 C5.061875 1.78375 5.12375 2.5675 5.1875 3.375 C5.455625 4.24125 5.72375 5.1075 6 6 C8.47636012 7.37466625 8.47636012 7.37466625 11 8 C10.67 8.66 10.34 9.32 10 10 C7.83125748 9.49396008 6.00032373 9.00016187 4 8 C2.33805547 7.64386903 0.671549 7.30791692 -1 7 C-1.625 4.625 -1.625 4.625 -2 2 C-1.34 1.34 -0.68 0.68 0 0 Z " fill="#A1C1DD" transform="translate(449,386)"/>
<path d="M0 0 C0.66 0.33 1.32 0.66 2 1 C1.18917969 1.61746094 0.37835937 2.23492187 -0.45703125 2.87109375 C-10.57475244 10.59967367 -20.49106602 18.52642273 -30 27 C-30.66 26.67 -31.32 26.34 -32 26 C-22.8619926 15.74684594 -11.15422756 7.90030047 0 0 Z " fill="#E0E0E0" transform="translate(566,339)"/>
<path d="M0 0 C1.65 0.33 3.3 0.66 5 1 C5.625 3.375 5.625 3.375 6 6 C4 8 4 8 0.875 8.125 C-0.07375 8.08375 -1.0225 8.0425 -2 8 C-2 7.34 -2 6.68 -2 6 C-3.65 6 -5.3 6 -7 6 C-7.33 5.34 -7.66 4.68 -8 4 C-7.05125 3.896875 -6.1025 3.79375 -5.125 3.6875 C-1.70892499 3.31460705 -1.70892499 3.31460705 0 0 Z " fill="#AFC7DD" transform="translate(193,328)"/>
<path d="M0 0 C2.20510756 3.30766134 3.42199652 6.66529849 4.75 10.375 C7.45608462 17.78326673 10.56874825 24.89414532 14 32 C13.01 32.495 13.01 32.495 12 33 C10.1958068 29.33937035 8.40897157 25.6705215 6.625 22 C5.86316406 20.45505859 5.86316406 20.45505859 5.0859375 18.87890625 C2.38863408 13.30684524 0.06240079 8.11942853 -1 2 C-0.67 1.34 -0.34 0.68 0 0 Z " fill="#E1E1E1" transform="translate(220,138)"/>
<path d="M0 0 C0.24091535 7.2274605 -0.65504172 13.90294338 -2 21 C-2.33 21 -2.66 21 -3 21 C-3.02694851 19.04174127 -3.04637218 17.08337774 -3.0625 15.125 C-3.07410156 14.03445313 -3.08570313 12.94390625 -3.09765625 11.8203125 C-3 9 -3 9 -2 7 C-3.32 6.67 -4.64 6.34 -6 6 C-6 4.35 -6 2.7 -6 1 C-3.92446352 0.4465236 -2.15634036 0 0 0 Z " fill="#EBEBEA" transform="translate(282,460)"/>
<path d="M0 0 C0 1.65 0 3.3 0 5 C-2.9806408 6.65591156 -5.65469056 7.39955984 -9 8 C-9.99 8.33 -10.98 8.66 -12 9 C-12.33 7.35 -12.66 5.7 -13 4 C-11.35 4 -9.7 4 -8 4 C-8 3.34 -8 2.68 -8 2 C-1.125 0 -1.125 0 0 0 Z " fill="#EFF0F0" transform="translate(174,333)"/>
<path d="M0 0 C0.66 0 1.32 0 2 0 C2.02687279 1.81242052 2.04633715 3.62495233 2.0625 5.4375 C2.07410156 6.44683594 2.08570313 7.45617187 2.09765625 8.49609375 C2 11 2 11 1 12 C-0.99958364 12.04080783 -3.00045254 12.04254356 -5 12 C-5 10.02 -5 8.04 -5 6 C-3.68 5.67 -2.36 5.34 -1 5 C-0.67 3.35 -0.34 1.7 0 0 Z " fill="#AAC4DB" transform="translate(385,173)"/>
<path d="M0 0 C9.88448415 5.915714 17.9335981 13.85999954 26 22 C25.67 22.66 25.34 23.32 25 24 C24.44054687 23.40574219 23.88109375 22.81148437 23.3046875 22.19921875 C17.73855226 16.44515933 11.98263855 11.43677776 5.56005859 6.66870117 C1.10209082 3.30627245 1.10209082 3.30627245 0 0 Z " fill="#DFE0E0" transform="translate(204,150)"/>
<path d="M0 0 C2.625 0.375 2.625 0.375 5 1 C5.625 3.375 5.625 3.375 6 6 C5.34 6.66 4.68 7.32 4 8 C1.375 7.625 1.375 7.625 -1 7 C-1.625 4.625 -1.625 4.625 -2 2 C-1.34 1.34 -0.68 0.68 0 0 Z " fill="#A2C2DD" transform="translate(332,309)"/>
<path d="M0 0 C2.625 0.375 2.625 0.375 5 1 C5.625 3.375 5.625 3.375 6 6 C5.34 6.66 4.68 7.32 4 8 C1.375 7.625 1.375 7.625 -1 7 C-1.625 4.625 -1.625 4.625 -2 2 C-1.34 1.34 -0.68 0.68 0 0 Z " fill="#A3C2DE" transform="translate(357,588)"/>
<path d="M0 0 C2.625 0.375 2.625 0.375 5 1 C5.38218767 2.65614657 5.71395102 4.32457024 6 6 C5 7 5 7 1.9375 7.0625 C0.968125 7.041875 -0.00125 7.02125 -1 7 C-1.625 4.625 -1.625 4.625 -2 2 C-1.34 1.34 -0.68 0.68 0 0 Z " fill="#A3C2DE" transform="translate(307,588)"/>
<path d="M0 0 C1.67542976 0.28604898 3.34385343 0.61781233 5 1 C5 2.98 5 4.96 5 7 C2.625 7.625 2.625 7.625 0 8 C-0.66 7.34 -1.32 6.68 -2 6 C-1.44444444 1.44444444 -1.44444444 1.44444444 0 0 Z " fill="#A0C0DC" transform="translate(283,440)"/>
<path d="M0 0 C1.32 0.33 2.64 0.66 4 1 C4.12375 2.11375 4.2475 3.2275 4.375 4.375 C4.6465813 8.03103677 4.6465813 8.03103677 7 10 C6.01 10.495 6.01 10.495 5 11 C5 12.65 5 14.3 5 16 C3.0625 14.9375 3.0625 14.9375 1 13 C0.25 9.3125 0.25 9.3125 0 6 C0.66 6 1.32 6 2 6 C1.34 4.02 0.68 2.04 0 0 Z " fill="#F2F4F4" transform="translate(234,172)"/>
<path d="M0 0 C5.05856959 1.69628681 9.26160502 4.59445062 13.6875 7.5 C14.45900391 7.99886719 15.23050781 8.49773437 16.02539062 9.01171875 C21.72550517 12.72550517 21.72550517 12.72550517 24 15 C23.01 15.495 23.01 15.495 22 16 C19.70233934 14.71849635 17.55656231 13.39603997 15.375 11.9375 C14.43309814 11.31875 14.43309814 11.31875 13.47216797 10.6875 C3.70325981 4.22022592 3.70325981 4.22022592 0 1 C0 0.67 0 0.34 0 0 Z " fill="#E1E0E0" transform="translate(475,406)"/>
<path d="M0 0 C2.00720923 0.28674418 4.0085944 0.61866701 6 1 C6 2.65 6 4.3 6 6 C3.125 6.625 3.125 6.625 0 7 C-0.66 6.34 -1.32 5.68 -2 5 C-1.46428571 1.46428571 -1.46428571 1.46428571 0 0 Z " fill="#9FC0DC" transform="translate(113,135)"/>
<path d="M0 0 C2.625 0.375 2.625 0.375 5 1 C5.125 3.375 5.125 3.375 5 6 C4.34 6.66 3.68 7.32 3 8 C0.875 7.625 0.875 7.625 -1 7 C-1.625 4.625 -1.625 4.625 -2 2 C-1.34 1.34 -0.68 0.68 0 0 Z " fill="#9EBFDC" transform="translate(258,579)"/>
<path d="M0 0 C2.5 0.125 2.5 0.125 3.5 1.125 C3.625 3.625 3.625 3.625 3.5 6.125 C2.5 7.125 2.5 7.125 0 7.25 C-2.5 7.125 -2.5 7.125 -3.5 6.125 C-3.625 3.625 -3.625 3.625 -3.5 1.125 C-2.5 0.125 -2.5 0.125 0 0 Z " fill="#9FC0DD" transform="translate(455.5,561.875)"/>
<path d="M0 0 C2.5 0.125 2.5 0.125 3.5 1.125 C3.625 3.625 3.625 3.625 3.5 6.125 C2.5 7.125 2.5 7.125 0 7.25 C-2.5 7.125 -2.5 7.125 -3.5 6.125 C-3.625 3.625 -3.625 3.625 -3.5 1.125 C-2.5 0.125 -2.5 0.125 0 0 Z " fill="#9DBEDC" transform="translate(498.5,535.875)"/>
<path d="M0 0 C2.5 0.125 2.5 0.125 3.5 1.125 C3.625 3.625 3.625 3.625 3.5 6.125 C2.5 7.125 2.5 7.125 0 7.25 C-2.5 7.125 -2.5 7.125 -3.5 6.125 C-3.625 3.625 -3.625 3.625 -3.5 1.125 C-2.5 0.125 -2.5 0.125 0 0 Z " fill="#9DBFDC" transform="translate(536.5,502.875)"/>
<path d="M0 0 C2.5 0.125 2.5 0.125 3.5 1.125 C3.625 3.625 3.625 3.625 3.5 6.125 C2.5 7.125 2.5 7.125 0 7.25 C-2.5 7.125 -2.5 7.125 -3.5 6.125 C-3.625 3.625 -3.625 3.625 -3.5 1.125 C-2.5 0.125 -2.5 0.125 0 0 Z " fill="#71A2CC" transform="translate(131.5,502.875)"/>
<path d="M0 0 C2.5 0.125 2.5 0.125 3.5 1.125 C3.625 3.625 3.625 3.625 3.5 6.125 C2.5 7.125 2.5 7.125 0 7.25 C-2.5 7.125 -2.5 7.125 -3.5 6.125 C-3.625 3.625 -3.625 3.625 -3.5 1.125 C-2.5 0.125 -2.5 0.125 0 0 Z " fill="#72A2CD" transform="translate(56.5,271.875)"/>
<path d="M0 0 C0 0.33 0 0.66 0 1 C-0.9446814 1.08302368 -0.9446814 1.08302368 -1.90844727 1.16772461 C-4.79330688 1.42237236 -7.67790132 1.67991392 -10.5625 1.9375 C-11.55314453 2.02451172 -12.54378906 2.11152344 -13.56445312 2.20117188 C-18.73763531 2.66521147 -23.86752079 3.20097448 -29 4 C-21.39345846 -3.27582235 -9.50834898 -0.86333475 0 0 Z " fill="#E6E6E6" transform="translate(513,232)"/>
<path d="M0 0 C2.5 0.125 2.5 0.125 3.5 1.125 C3.625 3.625 3.625 3.625 3.5 6.125 C2.5 7.125 2.5 7.125 0 7.25 C-2.5 7.125 -2.5 7.125 -3.5 6.125 C-3.625 3.625 -3.625 3.625 -3.5 1.125 C-2.5 0.125 -2.5 0.125 0 0 Z " fill="#9EBFDD" transform="translate(600.5,222.875)"/>
<path d="M0 0 C2.5 0.125 2.5 0.125 3.5 1.125 C3.625 3.625 3.625 3.625 3.5 6.125 C2.5 7.125 2.5 7.125 0 7.25 C-2.5 7.125 -2.5 7.125 -3.5 6.125 C-3.625 3.625 -3.625 3.625 -3.5 1.125 C-2.5 0.125 -2.5 0.125 0 0 Z " fill="#9EBFDC" transform="translate(87.5,176.875)"/>
<path d="M0 0 C3.69230769 0.69230769 3.69230769 0.69230769 5 2 C5.04063832 3.66617115 5.042721 5.33388095 5 7 C2.625 7.625 2.625 7.625 0 8 C-0.66 7.34 -1.32 6.68 -2 6 C-1.44444444 1.44444444 -1.44444444 1.44444444 0 0 Z " fill="#A0C0DD" transform="translate(148,98)"/>
<path d="M0 0 C2.5 0.125 2.5 0.125 3.5 1.125 C3.625 3.625 3.625 3.625 3.5 6.125 C2.5 7.125 2.5 7.125 -0.0625 7.1875 C-1.2690625 7.1565625 -1.2690625 7.1565625 -2.5 7.125 C-2.88133299 5.1335944 -3.21325582 3.13220923 -3.5 1.125 C-2.5 0.125 -2.5 0.125 0 0 Z " fill="#9EBFDD" transform="translate(212.5,561.875)"/>
<path d="M0 0 C0.33 0 0.66 0 1 0 C0.43189471 5.79859195 -0.73679735 10.97686594 -2.5625 16.5 C-2.79646484 17.22703125 -3.03042969 17.9540625 -3.27148438 18.703125 C-3.84132781 20.47080261 -4.41975404 22.23570969 -5 24 C-5.33 24 -5.66 24 -6 24 C-5.55052002 15.45988044 -2.85091417 7.98466367 0 0 Z " fill="#E2E2E2" transform="translate(459,480)"/>
<path d="M0 0 C2.125 0.375 2.125 0.375 4 1 C4.625 3.375 4.625 3.375 5 6 C4.34 6.66 3.68 7.32 3 8 C0.875 7.625 0.875 7.625 -1 7 C-1.625 4.625 -1.625 4.625 -2 2 C-1.34 1.34 -0.68 0.68 0 0 Z " fill="#9EBFDC" transform="translate(590,419)"/>
<path d="M0 0 C2.125 0.375 2.125 0.375 4 1 C4.625 3.375 4.625 3.375 5 6 C4.34 6.66 3.68 7.32 3 8 C0.875 7.625 0.875 7.625 -1 7 C-1.625 4.625 -1.625 4.625 -2 2 C-1.34 1.34 -0.68 0.68 0 0 Z " fill="#9EBFDC" transform="translate(75,419)"/>
<path d="M0 0 C2.625 0.375 2.625 0.375 5 1 C5.625 2.875 5.625 2.875 6 5 C5.34 5.66 4.68 6.32 4 7 C1.375 6.625 1.375 6.625 -1 6 C-1.625 4.125 -1.625 4.125 -2 2 C-1.34 1.34 -0.68 0.68 0 0 Z " fill="#9EBFDC" transform="translate(605,372)"/>
<path d="M0 0 C2.625 0.375 2.625 0.375 5 1 C5.625 2.875 5.625 2.875 6 5 C5.34 5.66 4.68 6.32 4 7 C1.375 6.625 1.375 6.625 -1 6 C-1.625 4.125 -1.625 4.125 -2 2 C-1.34 1.34 -0.68 0.68 0 0 Z " fill="#9EBFDC" transform="translate(59,372)"/>
<path d="M0 0 C2.5 0.125 2.5 0.125 3.5 1.125 C3.625 3.625 3.625 3.625 3.5 6.125 C2.5 7.125 2.5 7.125 -0.0625 7.1875 C-1.2690625 7.1565625 -1.2690625 7.1565625 -2.5 7.125 C-2.88133299 5.1335944 -3.21325582 3.13220923 -3.5 1.125 C-2.5 0.125 -2.5 0.125 0 0 Z " fill="#9EBFDC" transform="translate(580.5,176.875)"/>
<path d="M0 0 C2.625 0.375 2.625 0.375 5 1 C5.625 2.875 5.625 2.875 6 5 C5.34 5.66 4.68 6.32 4 7 C1.375 6.625 1.375 6.625 -1 6 C-1.625 4.125 -1.625 4.125 -2 2 C-1.34 1.34 -0.68 0.68 0 0 Z " fill="#9EBFDD" transform="translate(551,135)"/>
<path d="M0 0 C2.00720923 0.28674418 4.0085944 0.61866701 6 1 C6.042721 2.66611905 6.04063832 4.33382885 6 6 C5 7 5 7 2.5 7.125 C0 7 0 7 -1 6 C-1.125 3.5 -1.125 3.5 -1 1 C-0.67 0.67 -0.34 0.34 0 0 Z " fill="#9DBFDC" transform="translate(188,69)"/>
<path d="M0 0 C0.042721 1.66611905 0.04063832 3.33382885 0 5 C-1 6 -1 6 -3.5 6.125 C-6 6 -6 6 -7 5 C-7.04063832 3.33382885 -7.042721 1.66611905 -7 0 C-4.3333581 -1.33332095 -2.83319697 -0.67102033 0 0 Z " fill="#9DBFDC" transform="translate(481,70)"/>
<path d="M0 0 C2.625 0.375 2.625 0.375 5 1 C5.625 2.875 5.625 2.875 6 5 C5.34 5.66 4.68 6.32 4 7 C1.375 6.625 1.375 6.625 -1 6 C-1.625 4.125 -1.625 4.125 -2 2 C-1.34 1.34 -0.68 0.68 0 0 Z " fill="#9EBFDD" transform="translate(382,34)"/>
<path d="M0 0 C2.625 0.375 2.625 0.375 5 1 C5.625 2.875 5.625 2.875 6 5 C5.34 5.66 4.68 6.32 4 7 C1.375 6.625 1.375 6.625 -1 6 C-1.625 4.125 -1.625 4.125 -2 2 C-1.34 1.34 -0.68 0.68 0 0 Z " fill="#9EBFDD" transform="translate(282,34)"/>
<path d="M0 0 C1.66611905 -0.042721 3.33382885 -0.04063832 5 0 C6 1 6 1 6.0625 3.5625 C6.041875 4.366875 6.02125 5.17125 6 6 C3.625 6.625 3.625 6.625 1 7 C0.34 6.34 -0.32 5.68 -1 5 C-0.625 2.375 -0.625 2.375 0 0 Z " fill="#6D9FCB" transform="translate(565,464)"/>
<path d="M0 0 C1.67542976 0.28604898 3.34385343 0.61781233 5 1 C5.38218767 2.65614657 5.71395102 4.32457024 6 6 C5 7 5 7 2.5 7.125 C0 7 0 7 -1 6 C-1.125 3.5 -1.125 3.5 -1 1 C-0.67 0.67 -0.34 0.34 0 0 Z " fill="#9EBFDC" transform="translate(52,322)"/>
<path d="M0 0 C1.67542976 0.28604898 3.34385343 0.61781233 5 1 C5.38218767 2.65614657 5.71395102 4.32457024 6 6 C5 7 5 7 2.5 7.125 C0 7 0 7 -1 6 C-1.125 3.5 -1.125 3.5 -1 1 C-0.67 0.67 -0.34 0.34 0 0 Z " fill="#6E9FCB" transform="translate(455,243)"/>
<path d="M0 0 C2.625 0.375 2.625 0.375 5 1 C5.042721 2.66611905 5.04063832 4.33382885 5 6 C4 7 4 7 1.4375 7.0625 C0.2309375 7.0315625 0.2309375 7.0315625 -1 7 C-1.625 4.625 -1.625 4.625 -2 2 C-1.34 1.34 -0.68 0.68 0 0 Z " fill="#9EBFDC" transform="translate(250,196)"/>
<path d="M0 0 C0.99 0 1.98 0 3 0 C3 4.95 3 9.9 3 15 C0.09818644 11.13091525 -0.40666439 10.28246552 -0.75 5.8125 C-0.82734375 4.93207031 -0.9046875 4.05164063 -0.984375 3.14453125 C-0.98953125 2.43683594 -0.9946875 1.72914063 -1 1 C-0.67 0.67 -0.34 0.34 0 0 Z " fill="#F5F5F5" transform="translate(237,159)"/>
<path d="M0 0 C2.625 0.375 2.625 0.375 5 1 C5.042721 2.66611905 5.04063832 4.33382885 5 6 C4 7 4 7 1.4375 7.0625 C0.2309375 7.0315625 0.2309375 7.0315625 -1 7 C-1.625 4.625 -1.625 4.625 -2 2 C-1.34 1.34 -0.68 0.68 0 0 Z " fill="#9FC0DD" transform="translate(234,47)"/>
<path d="M0 0 C2.625 0.375 2.625 0.375 5 1 C5.042721 2.66611905 5.04063832 4.33382885 5 6 C4 7 4 7 1.4375 7.0625 C0.2309375 7.0315625 0.2309375 7.0315625 -1 7 C-1.625 4.625 -1.625 4.625 -2 2 C-1.34 1.34 -0.68 0.68 0 0 Z " fill="#9DBFDC" transform="translate(612,322)"/>
<path d="M0 0 C0.38218767 1.65614657 0.71395102 3.32457024 1 5 C0 6 0 6 -2.5 6.125 C-5 6 -5 6 -6 5 C-6.04063832 3.33382885 -6.042721 1.66611905 -6 0 C-3.50907189 -1.24546405 -2.58919267 -0.7767578 0 0 Z " fill="#9EBFDD" transform="translate(435,48)"/>
<path d="M0 0 C-3.70416126 2.37590142 -6.92984573 2.20500286 -11.25 2.125 C-12.51328125 2.10695313 -13.7765625 2.08890625 -15.078125 2.0703125 C-16.04234375 2.04710937 -17.0065625 2.02390625 -18 2 C-18 1.34 -18 0.68 -18 0 C-11.78675502 -0.73030908 -6.15901243 -1.23180249 0 0 Z " fill="#EAE9EA" transform="translate(173,333)"/>
<path d="M0 0 C1.98 0.99 3.96 1.98 6 3 C5.01 3.495 5.01 3.495 4 4 C4.33 5.98 4.66 7.96 5 10 C4.01 10.495 4.01 10.495 3 11 C2.690625 10.195625 2.38125 9.39125 2.0625 8.5625 C1.23664655 6.10919595 1.23664655 6.10919595 0 5 C-0.04063832 3.33382885 -0.042721 1.66611905 0 0 Z " fill="#F0F0EF" transform="translate(469,400)"/>
<path d="M0 0 C1.65 0 3.3 0 5 0 C5.33 1.32 5.66 2.64 6 4 C2.25 7 2.25 7 0 7 C0 4.69 0 2.38 0 0 Z " fill="#F5F5F5" transform="translate(559,337)"/>
<path d="M0 0 C0.86625 0.3403125 0.86625 0.3403125 1.75 0.6875 C2.08 2.0075 2.41 3.3275 2.75 4.6875 C2.09 4.3575 1.43 4.0275 0.75 3.6875 C0.09 4.3475 -0.57 5.0075 -1.25 5.6875 C-1.58 4.6975 -1.91 3.7075 -2.25 2.6875 C-2.25 4.0075 -2.25 5.3275 -2.25 6.6875 C-2.91 6.6875 -3.57 6.6875 -4.25 6.6875 C-4.91 5.3675 -5.57 4.0475 -6.25 2.6875 C-2.80384615 -0.38942308 -2.80384615 -0.38942308 0 0 Z " fill="#E9EAEC" transform="translate(479.25,232.3125)"/>
<path d="M0 0 C0.99 0.99 1.98 1.98 3 3 C2.67 3.99 2.34 4.98 2 6 C2.66 6 3.32 6 4 6 C3.67 6.66 3.34 7.32 3 8 C0.03 7.505 0.03 7.505 -3 7 C-2.625 4.0625 -2.625 4.0625 -2 1 C-1.34 0.67 -0.68 0.34 0 0 Z " fill="#EFEEEE" transform="translate(338,325)"/>
<path d="M0 0 C0.66 0 1.32 0 2 0 C3.42944945 2.35438733 4.08661261 3.48032433 3.625 6.25 C3.41875 6.8275 3.2125 7.405 3 8 C2.34 8 1.68 8 1 8 C1 7.34 1 6.68 1 6 C-0.32 5.34 -1.64 4.68 -3 4 C-1.625 2 -1.625 2 0 0 Z " fill="#E2E1E2" transform="translate(243,184)"/>
<path d="M0 0 C1.65 0 3.3 0 5 0 C5.33 1.98 5.66 3.96 6 6 C3.03 5.505 3.03 5.505 0 5 C0 3.35 0 1.7 0 0 Z " fill="#F5F5F5" transform="translate(87,360)"/>
<path d="M0 0 C1.65 0 3.3 0 5 0 C5.33 1.98 5.66 3.96 6 6 C3.03 5.505 3.03 5.505 0 5 C0 3.35 0 1.7 0 0 Z " fill="#F5F5F5" transform="translate(231,124)"/>
<path d="M0 0 C1.98 0 3.96 0 6 0 C5.67 1.65 5.34 3.3 5 5 C3.35 5 1.7 5 0 5 C0 3.35 0 1.7 0 0 Z " fill="#F5F5F5" transform="translate(294,538)"/>
<path d="M0 0 C0.99 0 1.98 0 3 0 C3.38133299 1.9914056 3.71325582 3.99279077 4 6 C3 7 3 7 0.4375 7.0625 C-0.7690625 7.0315625 -0.7690625 7.0315625 -2 7 C-2.33 5.35 -2.66 3.7 -3 2 C-2.67 2.99 -2.34 3.98 -2 5 C-0.68 5 0.64 5 2 5 C2 3.68 2 2.36 2 1 C1.34 0.67 0.68 0.34 0 0 Z " fill="#79A7CF" transform="translate(169,536)"/>
<path d="M0 0 C1.65 0 3.3 0 5 0 C5 1.65 5 3.3 5 5 C3.35 5 1.7 5 0 5 C0 3.35 0 1.7 0 0 Z " fill="#EAEFF4" transform="translate(196,492)"/>
<path d="M0 0 C1.65 0 3.3 0 5 0 C5 1.65 5 3.3 5 5 C3.35 5 1.7 5 0 5 C0 3.35 0 1.7 0 0 Z " fill="#F5F5F5" transform="translate(559,331)"/>
<path d="M0 0 C1.65 0 3.3 0 5 0 C5 1.65 5 3.3 5 5 C3.35 5 1.7 5 0 5 C0 3.35 0 1.7 0 0 Z " fill="#F5F5F5" transform="translate(501,331)"/>
<path d="M0 0 C1.65 0 3.3 0 5 0 C5 1.65 5 3.3 5 5 C3.35 5 1.7 5 0 5 C0 3.35 0 1.7 0 0 Z " fill="#F5F5F5" transform="translate(104,331)"/>
<path d="M0 0 C1.65 0 3.3 0 5 0 C5 1.65 5 3.3 5 5 C3.35 5 1.7 5 0 5 C0 3.35 0 1.7 0 0 Z " fill="#F5F5F5" transform="translate(599,308)"/>
<path d="M0 0 C1.65 0 3.3 0 5 0 C5 1.65 5 3.3 5 5 C3.35 5 1.7 5 0 5 C0 3.35 0 1.7 0 0 Z " fill="#F5F5F5" transform="translate(202,308)"/>
<path d="M0 0 C1.65 0 3.3 0 5 0 C5 1.65 5 3.3 5 5 C3.35 5 1.7 5 0 5 C0 3.35 0 1.7 0 0 Z " fill="#F5F5F5" transform="translate(484,262)"/>
<path d="M0 0 C1.65 0 3.3 0 5 0 C5 1.65 5 3.3 5 5 C3.35 5 1.7 5 0 5 C0 3.35 0 1.7 0 0 Z " fill="#F5F5F5" transform="translate(87,262)"/>
<path d="M0 0 C1.65 0 3.3 0 5 0 C5 1.65 5 3.3 5 5 C3.35 5 1.7 5 0 5 C0 3.35 0 1.7 0 0 Z " fill="#F5F5F5" transform="translate(438,245)"/>
<path d="M0 0 C1.65 0 3.3 0 5 0 C5 1.65 5 3.3 5 5 C3.35 5 1.7 5 0 5 C0 3.35 0 1.7 0 0 Z " fill="#F5F5F5" transform="translate(271,170)"/>
<path d="M0 0 C1.65 0 3.3 0 5 0 C5 1.65 5 3.3 5 5 C3.35 5 1.7 5 0 5 C0 3.35 0 1.7 0 0 Z " fill="#EAEFF4" transform="translate(196,170)"/>
<path d="M0 0 C1.65 0 3.3 0 5 0 C5 1.65 5 3.3 5 5 C3.35 5 1.7 5 0 5 C0 3.35 0 1.7 0 0 Z " fill="#F5F5F5" transform="translate(271,153)"/>
<path d="M0 0 C1.65 0 3.3 0 5 0 C5.33 0.99 5.66 1.98 6 3 C5.34 3.66 4.68 4.32 4 5 C2.68 5 1.36 5 0 5 C0 3.35 0 1.7 0 0 Z " fill="#F5F5F5" transform="translate(271,84)"/>
<path d="M0 0 C0.99 0 1.98 0 3 0 C3 1.65 3 3.3 3 5 C1.68 5.33 0.36 5.66 -1 6 C-1.33 5.01 -1.66 4.02 -2 3 C-1.34 2.01 -0.68 1.02 0 0 Z " fill="#E6E7E8" transform="translate(465,399)"/>
<path d="M0 0 C1.32 0 2.64 0 4 0 C4 2.31 4 4.62 4 7 C2.35 5.68 0.7 4.36 -1 3 C-0.67 2.01 -0.34 1.02 0 0 Z " fill="#F4F4F4" transform="translate(220,159)"/>
<path d="M0 0 C0.99 0 1.98 0 3 0 C3 1.65 3 3.3 3 5 C1.02 5 -0.96 5 -3 5 C-1.6875 2.5 -1.6875 2.5 0 0 Z " fill="#F5F5F5" transform="translate(244,515)"/>
<path d="M0 0 C1.65 0 3.3 0 5 0 C5 1.65 5 3.3 5 5 C3.35 4.67 1.7 4.34 0 4 C0 2.68 0 1.36 0 0 Z " fill="#F5F5F5" transform="translate(386,360)"/>
<path d="M0 0 C1.32 0.33 2.64 0.66 4 1 C4.33 3.31 4.66 5.62 5 8 C3.35 8 1.7 8 0 8 C0 7.34 0 6.68 0 6 C0.66 6 1.32 6 2 6 C1.34 4.02 0.68 2.04 0 0 Z " fill="#EFEDEB" transform="translate(234,172)"/>
<path d="M0 0 C0.33 0 0.66 0 1 0 C1.75612577 5.23471686 2.2063366 9.77254141 1 15 C0.67 15 0.34 15 0 15 C-0.19448477 12.87562788 -0.38038289 10.75046809 -0.5625 8.625 C-0.66691406 7.44164063 -0.77132812 6.25828125 -0.87890625 5.0390625 C-1 2 -1 2 0 0 Z " fill="#E6E6E6" transform="translate(241,68)"/>
<path d="M0 0 C1.32 0 2.64 0 4 0 C4.33 1.32 4.66 2.64 5 4 C4.01 4.66 3.02 5.32 2 6 C1.34 5.67 0.68 5.34 0 5 C0 3.35 0 1.7 0 0 Z " fill="#F5F5F5" transform="translate(191,509)"/>
<path d="M0 0 C2.475 0.495 2.475 0.495 5 1 C5 2.65 5 4.3 5 6 C3.68 6 2.36 6 1 6 C0.67 4.02 0.34 2.04 0 0 Z " fill="#F5F5F5" transform="translate(587,330)"/>
<path d="M0 0 C1.65 0.33 3.3 0.66 5 1 C5 2.32 5 3.64 5 5 C3.35 4.67 1.7 4.34 0 4 C0 2.68 0 1.36 0 0 Z " fill="#F4F4F4" transform="translate(346,330)"/>
<path d="M0 0 C2 3 2 3 3 6 C1.35 6 -0.3 6 -2 6 C-2 4.35 -2 2.7 -2 1 C-1.34 0.67 -0.68 0.34 0 0 Z " fill="#F4F4F4" transform="translate(296,531)"/>
<path d="M0 0 C1.32 0 2.64 0 4 0 C4 1.65 4 3.3 4 5 C2.68 5 1.36 5 0 5 C0 3.35 0 1.7 0 0 Z " fill="#F5F5F5" transform="translate(214,400)"/>
<path d="M0 0 C0.33 1.65 0.66 3.3 1 5 C-1.64 4.67 -4.28 4.34 -7 4 C-7 3.34 -7 2.68 -7 2 C-2.25 0 -2.25 0 0 0 Z " fill="#F2F1F1" transform="translate(160,338)"/>
<path d="M0 0 C1.65 0 3.3 0 5 0 C5 1.32 5 2.64 5 4 C3.35 4 1.7 4 0 4 C0 2.68 0 1.36 0 0 Z " fill="#F5F5F5" transform="translate(64,326)"/>
<path d="M0 0 C1.98 0 3.96 0 6 0 C4.71937515 1.7074998 3.38232443 3.37373596 2 5 C1.34 5 0.68 5 0 5 C0 3.35 0 1.7 0 0 Z " fill="#F4F4F4" transform="translate(530,153)"/>
<path d="M0 0 C1.32 0 2.64 0 4 0 C4 1.65 4 3.3 4 5 C2.68 5 1.36 5 0 5 C0 3.35 0 1.7 0 0 Z " fill="#F5F5F5" transform="translate(214,78)"/>
<path d="M0 0 C2.0625 0.4375 2.0625 0.4375 4 1 C4 2.32 4 3.64 4 5 C2.68 5 1.36 5 0 5 C-0.5625 3.0625 -0.5625 3.0625 -1 1 C-0.67 0.67 -0.34 0.34 0 0 Z " fill="#CCDEED" transform="translate(167,536)"/>
<path d="M0 0 C2 1 2 1 2.75 2.9375 C2.8325 3.618125 2.915 4.29875 3 5 C2.34 5.66 1.68 6.32 1 7 C-0.32 5.02 -1.64 3.04 -3 1 C-2.01 0.67 -1.02 0.34 0 0 Z " fill="#F4F4F4" transform="translate(481,411)"/>
<path d="M0 0 C0.33 0.99 0.66 1.98 1 3 C3.50447516 4.21869929 3.50447516 4.21869929 6 5 C5.67 5.66 5.34 6.32 5 7 C1.125 6.125 1.125 6.125 0 5 C-0.04063832 3.33382885 -0.042721 1.66611905 0 0 Z " fill="#C9CFD4" transform="translate(454,389)"/>
<path d="M0 0 C1.9375 0.8125 1.9375 0.8125 4 2 C4.33 2.99 4.66 3.98 5 5 C3.35 5 1.7 5 0 5 C0 3.35 0 1.7 0 0 Z " fill="#F5F5F5" transform="translate(162,118)"/>
<path d="M0 0 C1.32 0.33 2.64 0.66 4 1 C3.67 2.32 3.34 3.64 3 5 C2.01 5 1.02 5 0 5 C0 3.35 0 1.7 0 0 Z " fill="#DFEAF3" transform="translate(130,504)"/>
<path d="M0 0 C1.98 0.495 1.98 0.495 4 1 C4 1.99 4 2.98 4 4 C2.35 4 0.7 4 -1 4 C-0.67 2.68 -0.34 1.36 0 0 Z " fill="#DEEAF3" transform="translate(55,273)"/>
<path d="M0 0 C0.99 0.33 1.98 0.66 3 1 C3 2.65 3 4.3 3 6 C1.68 6 0.36 6 -1 6 C-0.67 4.02 -0.34 2.04 0 0 Z " fill="#F5F5F5" transform="translate(365,255)"/>
<path d="M0 0 C1.65 0 3.3 0 5 0 C5 1.65 5 3.3 5 5 C3.02 4.01 1.04 3.02 -1 2 C-0.67 1.34 -0.34 0.68 0 0 Z " fill="#F5F5F5" transform="translate(133,147)"/>
<path d="M0 0 C1.32 0 2.64 0 4 0 C4 1.65 4 3.3 4 5 C3.01 5 2.02 5 1 5 C0.67 3.35 0.34 1.7 0 0 Z " fill="#F5F5F5" transform="translate(387,101)"/>
<path d="M0 0 C0.99 0 1.98 0 3 0 C3 1.65 3 3.3 3 5 C1.68 5 0.36 5 -1 5 C-0.67 3.35 -0.34 1.7 0 0 Z " fill="#F5F5F5" transform="translate(273,492)"/>
<path d="M0 0 C1.98 0.495 1.98 0.495 4 1 C4 1.99 4 2.98 4 4 C2.35 3.67 0.7 3.34 -1 3 C-0.67 2.01 -0.34 1.02 0 0 Z " fill="#E8F0F6" transform="translate(566,465)"/>
<path d="M0 0 C0.33 1.32 0.66 2.64 1 4 C-0.98 4.33 -2.96 4.66 -5 5 C-5.33 4.01 -5.66 3.02 -6 2 C-4.02 1.34 -2.04 0.68 0 0 Z " fill="#F8F9F7" transform="translate(173,333)"/>
<path d="M0 0 C0.99 0.33 1.98 0.66 3 1 C3 2.32 3 3.64 3 5 C1.68 4.67 0.36 4.34 -1 4 C-0.67 2.68 -0.34 1.36 0 0 Z " fill="#E7EFF6" transform="translate(456,244)"/>
<path d="M0 0 C1.65 0 3.3 0 5 0 C5.33 0.66 5.66 1.32 6 2 C4.02 2.66 2.04 3.32 0 4 C0 2.68 0 1.36 0 0 Z " fill="#F3F3F3" transform="translate(536,199)"/>
</svg>
