<?xml version="1.0" encoding="UTF-8"?>
<svg version="1.1" xmlns="http://www.w3.org/2000/svg" width="224" height="225">
<path d="M0 0 C1.12474228 -0.01591187 2.24948456 -0.03182373 3.40830994 -0.04821777 C5.22402245 -0.0485199 5.22402245 -0.0485199 7.07641602 -0.04882812 C8.32407242 -0.05644165 9.57172882 -0.06405518 10.85719299 -0.07189941 C13.49610221 -0.08270654 16.13411577 -0.08691956 18.77294922 -0.08105469 C22.14713291 -0.07515932 25.51987727 -0.1057455 28.89378262 -0.14617157 C32.12129993 -0.17830466 35.34876342 -0.17393226 38.57641602 -0.17382812 C40.38909218 -0.19842102 40.38909218 -0.19842102 42.23838806 -0.22351074 C50.63333753 -0.15425024 50.63333753 -0.15425024 54.51464844 2.7800293 C55.1344458 3.65119385 55.75424316 4.5223584 56.39282227 5.41992188 C57.34755964 6.36493535 58.30309883 7.30914065 59.26000977 8.25195312 C60.26263773 9.24541869 61.26524165 10.23890853 62.26782227 11.23242188 C63.00452148 11.95655273 63.00452148 11.95655273 63.75610352 12.6953125 C64.75153004 13.68427521 65.73088877 14.68970157 66.69264221 15.71144104 C68.34114519 17.4448655 68.34114519 17.4448655 70.20103455 18.80149841 C73.74160029 21.89552487 75.50651075 24.77077559 76.03375244 29.43330383 C76.36247731 34.57841055 76.28717735 39.72083302 76.21704102 44.87304688 C76.21413512 46.78016955 76.2137524 48.68729757 76.21577454 50.59442139 C76.2125661 54.5790282 76.18569379 58.56252627 76.140625 62.546875 C76.08380309 67.65391021 76.07578172 72.75957091 76.08403301 77.86687088 C76.08682925 81.79946646 76.06923636 85.73175511 76.04490089 89.66426849 C76.03469208 91.54771627 76.02959346 93.43119894 76.02969933 95.31467438 C76.02573452 97.94316173 75.99561839 100.57004895 75.95800781 103.19824219 C75.9630835 104.36406326 75.9630835 104.36406326 75.96826172 105.55343628 C75.89606774 108.87100679 75.61145708 111.07402453 73.82368469 113.90242004 C70.54624724 115.94840886 67.68103014 115.9734335 63.93383789 115.92163086 C62.81606209 115.92973534 62.81606209 115.92973534 61.67570496 115.93800354 C59.21642136 115.95049452 56.75830767 115.93399846 54.29907227 115.91601562 C52.58801207 115.91617061 50.87695152 115.91765943 49.16589355 115.92042542 C45.58138494 115.92180957 41.99727637 115.90924891 38.4128418 115.88647461 C33.81927573 115.85808975 29.22637435 115.86082699 24.63275909 115.87356472 C21.09997892 115.88052133 17.56735225 115.87273286 14.03459167 115.86030769 C12.34092294 115.855793 10.64723773 115.85545655 8.9535675 115.85937309 C6.58597056 115.86228519 4.21928801 115.84577945 1.85180664 115.82397461 C1.15246506 115.82847626 0.45312347 115.83297791 -0.26741028 115.83761597 C-4.39787171 115.77444394 -6.62449114 115.29615783 -9.60717773 112.41992188 C-10.1105423 110.35686493 -10.1105423 110.35686493 -10.1151123 107.94128418 C-10.1263916 107.02435287 -10.1376709 106.10742157 -10.14929199 105.16270447 C-10.14119507 104.15897293 -10.13309814 103.15524139 -10.12475586 102.12109375 C-10.13176514 101.06233536 -10.13877441 100.00357697 -10.14599609 98.91273499 C-10.16363643 95.40444907 -10.15193136 91.89696634 -10.13842773 88.38867188 C-10.1411209 85.95633794 -10.14500184 83.52400505 -10.15002441 81.0916748 C-10.15592768 75.99053715 -10.14732951 70.88967938 -10.12866211 65.78857422 C-10.10587255 59.24095126 -10.11899114 52.69398408 -10.14295197 46.14638519 C-10.15738732 41.12273188 -10.15281426 36.09923473 -10.1424408 31.07557678 C-10.13976727 28.66097436 -10.14306513 26.24635787 -10.15235901 23.83177185 C-10.16248698 20.46038101 -10.14707488 17.09006083 -10.12475586 13.71875 C-10.13285278 12.71501846 -10.14094971 11.71128693 -10.14929199 10.67713928 C-10.1380127 9.76020798 -10.1267334 8.84327667 -10.1151123 7.89855957 C-10.1136042 7.10141792 -10.1120961 6.30427628 -10.1105423 5.48297882 C-9.60717773 3.41992188 -9.60717773 3.41992188 -7.73863888 1.66465759 C-5.01375237 0.07337193 -3.14767575 0.02680551 0 0 Z M-5.60717773 6.41992188 C-5.70459841 7.7583166 -5.73349332 9.10179012 -5.73416138 10.44372559 C-5.7369812 11.31031296 -5.73980103 12.17690033 -5.7427063 13.06974792 C-5.74068207 14.02770767 -5.73865784 14.98566742 -5.73657227 15.97265625 C-5.73832458 16.97581375 -5.7400769 17.97897125 -5.74188232 19.01252747 C-5.7463029 22.34625959 -5.74336213 25.67993916 -5.73999023 29.01367188 C-5.74066321 31.31913259 -5.74163319 33.62459324 -5.7428894 35.93005371 C-5.74436666 40.76896844 -5.74221094 45.60786475 -5.73754883 50.44677734 C-5.73185153 56.66486833 -5.73513039 62.88291616 -5.74112129 69.10100555 C-5.74472617 73.86375252 -5.74358866 78.62648918 -5.7409935 83.38923645 C-5.74032403 85.68268336 -5.74115336 87.97613119 -5.74347305 90.26957703 C-5.74599837 93.46880594 -5.74216068 96.6679639 -5.73657227 99.8671875 C-5.7385965 100.82514725 -5.74062073 101.78310699 -5.7427063 102.77009583 C-5.73988647 103.6366832 -5.73706665 104.50327057 -5.73416138 105.39611816 C-5.73378435 106.15345497 -5.73340733 106.91079178 -5.73301888 107.69107819 C-5.79435165 109.45071698 -5.79435165 109.45071698 -4.60717773 110.41992188 C-2.2645971 110.51485083 0.04824345 110.54550671 2.39111328 110.53344727 C3.13464774 110.5335678 3.8781822 110.53368834 4.64424801 110.53381252 C7.06177147 110.53306347 9.47921876 110.52543559 11.89672852 110.51757812 C13.3849687 110.51610868 14.87320939 110.51508799 16.3614502 110.51452637 C21.89274874 110.50927374 27.42403624 110.49531266 32.95532227 110.48242188 C45.30969727 110.46179688 57.66407227 110.44117188 70.39282227 110.41992188 C70.39282227 83.35992187 70.39282227 56.29992187 70.39282227 28.41992188 C65.11282227 28.08992188 59.83282227 27.75992188 54.39282227 27.41992188 C50.39282227 24.41992188 50.39282227 24.41992188 49.84692383 22.33520508 C49.82597656 21.55491943 49.8050293 20.77463379 49.78344727 19.97070312 C49.7512207 19.12314453 49.71899414 18.27558594 49.68579102 17.40234375 C49.67161133 16.52126953 49.65743164 15.64019531 49.64282227 14.73242188 C49.61317383 13.83974609 49.58352539 12.94707031 49.55297852 12.02734375 C49.48230799 9.8247791 49.42960287 7.62327057 49.39282227 5.41992188 C41.72071024 5.39465583 34.04860887 5.37709064 26.37646484 5.36499023 C23.76415608 5.35994811 21.15185015 5.35311462 18.53955078 5.34448242 C14.79401958 5.33241152 11.04852555 5.32669252 7.30297852 5.32226562 C5.53894432 5.3145237 5.53894432 5.3145237 3.73927307 5.30662537 C2.658228 5.30654984 1.57718292 5.3064743 0.46337891 5.30639648 C-0.49370468 5.30417587 -1.45078827 5.30195526 -2.43687439 5.29966736 C-4.58635397 5.17679689 -4.58635397 5.17679689 -5.60717773 6.41992188 Z " fill="#000000" transform="translate(10.607177734375,32.580078125)"/>
<path d="M0 0 C1.12862457 -0.03197479 2.25724915 -0.06394958 3.42007446 -0.09689331 C4.63673798 -0.10761871 5.85340149 -0.11834412 7.10693359 -0.12939453 C8.36492767 -0.14745148 9.62292175 -0.16550842 10.91903687 -0.18411255 C13.58430139 -0.21314539 16.24785079 -0.23248478 18.91308594 -0.23828125 C22.30395574 -0.24900545 25.6900078 -0.32415012 29.07952309 -0.41576958 C32.33836543 -0.49016028 35.59735729 -0.49236772 38.85693359 -0.50439453 C40.66371078 -0.56299149 40.66371078 -0.56299149 42.50698853 -0.62277222 C49.44190026 -0.54931317 52.98966276 0.46784129 57.99121094 5.41699219 C59.48687657 7.1208418 60.95251286 8.85173077 62.38037109 10.61279297 C63.62777198 12.03174873 64.8772058 13.44892551 66.13037109 14.86279297 C66.62021484 15.44544922 67.11005859 16.02810547 67.61474609 16.62841797 C69.24776196 18.56674778 69.24776196 18.56674778 70.83911705 19.81280994 C73.96723951 22.50137781 75.74818327 24.46009826 76.1288147 28.654953 C76.15814431 30.21118046 76.15486596 31.76824563 76.125 33.32446289 C76.13230133 34.17883438 76.13960266 35.03320587 76.14712524 35.91346741 C76.16327663 38.72421948 76.13618078 41.53264379 76.10693359 44.34326172 C76.10589591 46.30048114 76.10693318 48.25770268 76.10995483 50.21492004 C76.10977568 54.309695 76.08897346 58.40367998 76.05273438 62.49829102 C76.00726895 67.75117814 76.0062904 73.00291622 76.01976967 78.25594616 C76.02644493 82.29399362 76.01319914 86.33177814 75.9935112 90.36977577 C75.9858061 92.30708758 75.98351124 94.24442862 75.98668289 96.18175316 C75.98742306 98.88484086 75.96222529 101.58644194 75.9296875 104.28930664 C75.93464233 105.09195953 75.93959717 105.89461243 75.94470215 106.72158813 C75.88333746 109.90856126 75.81940071 112.05426801 73.81222534 114.60775757 C70.50724663 115.97363737 67.44000419 116.03949497 63.92138672 116.0168457 C62.80361092 116.02714058 62.80361092 116.02714058 61.66325378 116.03764343 C59.2041815 116.0559198 56.74574661 116.05207334 54.28662109 116.04638672 C52.57555941 116.05094777 50.86449956 116.05625311 49.15344238 116.06227112 C45.56901604 116.07120357 41.98481249 116.06877721 38.40039062 116.05883789 C33.80674012 116.0473413 29.21385753 116.06756914 24.62030792 116.09675503 C21.08753577 116.11509853 17.55494833 116.11482842 14.0221405 116.10911751 C12.32845481 116.1089641 10.63475675 116.11502446 8.94111633 116.12740898 C6.57337193 116.14228481 4.20705513 116.13166905 1.83935547 116.11450195 C0.79034309 116.12900391 0.79034309 116.12900391 -0.27986145 116.14379883 C-3.32528185 116.09755313 -5.39848059 115.73937121 -8.0534668 114.21974182 C-10.52643474 110.10337295 -10.17616746 106.11476795 -10.13720703 101.39990234 C-10.14421631 100.36211136 -10.15122559 99.32432037 -10.15844727 98.25508118 C-10.17606364 94.82196355 -10.16439101 91.38966909 -10.15087891 87.95654297 C-10.15357276 85.57287436 -10.15745428 83.18920683 -10.16247559 80.80554199 C-10.1683756 75.80873151 -10.15979113 70.81220695 -10.14111328 65.81542969 C-10.11832389 59.4058125 -10.13144422 52.99686524 -10.15540314 46.58727264 C-10.16984726 41.66480447 -10.16526139 36.74249551 -10.15489197 31.82002258 C-10.15222087 29.45648622 -10.15550783 27.09293546 -10.16481018 24.72941589 C-10.17495253 21.42778149 -10.15950584 18.1272367 -10.13720703 14.82568359 C-10.14530396 13.84581985 -10.15340088 12.86595612 -10.16174316 11.85639954 C-10.07988628 5.3246224 -10.07988628 5.3246224 -7.93850708 2.01278687 C-5.10203377 0.30030134 -3.3079237 0.0710077 0 0 Z M-4.61962891 5.61279297 C-4.61962891 40.26279297 -4.61962891 74.91279297 -4.61962891 110.61279297 C13.91193359 110.64373047 13.91193359 110.64373047 32.81787109 110.67529297 C36.72429443 110.68439697 40.63071777 110.69350098 44.65551758 110.70288086 C48.14557604 110.7062245 48.14557604 110.7062245 51.63563538 110.70823669 C53.194761 110.70977613 54.7538854 110.71330104 56.31300354 110.71836853 C58.66938355 110.72564696 61.02569057 110.72670036 63.38208008 110.72631836 C64.08110915 110.72991647 64.78013823 110.73351458 65.50035 110.73722172 C68.71883093 111.00308574 68.71883093 111.00308574 71.38037109 109.61279297 C71.4754136 107.08738295 71.50594267 104.58942171 71.49389648 102.0637207 C71.49404251 101.27353546 71.49418854 100.48335022 71.49433899 99.66921997 C71.49363966 97.04491475 71.48584636 94.42067961 71.47802734 91.79638672 C71.47616323 89.98177631 71.4747393 88.16716541 71.47373962 86.35255432 C71.46991389 81.56689067 71.46008313 76.78125717 71.44903564 71.99560547 C71.43882272 67.11605233 71.43424226 62.23649433 71.42919922 57.35693359 C71.41846091 47.77554011 71.40138382 38.19416904 71.38037109 28.61279297 C69.71748047 28.53931641 69.71748047 28.53931641 68.02099609 28.46435547 C66.55743045 28.38930082 65.09388997 28.31375416 63.63037109 28.23779297 C62.90076172 28.20685547 62.17115234 28.17591797 61.41943359 28.14404297 C54.44406552 27.76356835 54.44406552 27.76356835 51.38037109 25.61279297 C48.38407709 19.62020495 49.75201563 12.30239454 49.38037109 5.61279297 C31.56037109 5.61279297 13.74037109 5.61279297 -4.61962891 5.61279297 Z " fill="#000000" transform="translate(147.61962890625,76.38720703125)"/>
<path d="M0 0 C2.31 0 4.62 0 7 0 C8.98 8.58 10.96 17.16 13 26 C15.31 17.42 17.62 8.84 20 0 C21.98 0 23.96 0 26 0 C28.31 8.91 30.62 17.82 33 27 C34.603635 18.86317152 34.603635 18.86317152 36.20092773 10.72509766 C36.40145752 9.71495605 36.6019873 8.70481445 36.80859375 7.6640625 C37.01282959 6.62717285 37.21706543 5.5902832 37.42749023 4.52197266 C38 2 38 2 39 0 C40.98 0 42.96 0 45 0 C44.26854384 7.99450674 42.29725079 15.70972075 40.4375 23.5 C40.10443407 24.90876352 39.7717485 26.31761702 39.43945312 27.7265625 C38.63068782 31.15209093 37.8167711 34.57637046 37 38 C34.69 38 32.38 38 30 38 C27.69 29.42 25.38 20.84 23 12 C20.69 20.58 18.38 29.16 16 38 C13.69 38 11.38 38 9 38 C5.45116581 25.45021207 2.6933546 12.75685793 0 0 Z " fill="#000000" transform="translate(19,78)"/>
<path d="M0 0 C4.59774026 0.86048654 7.11015843 3.59496345 10.3125 6.8125 C11.15651367 7.61397461 11.15651367 7.61397461 12.01757812 8.43164062 C13.61328125 10.01953125 13.61328125 10.01953125 16 13 C15.56436552 17.588758 12.29952165 20.21517503 9.1875 23.3125 C8.65318359 23.87517578 8.11886719 24.43785156 7.56835938 25.01757812 C5.98046875 26.61328125 5.98046875 26.61328125 3 29 C0.8137207 28.64916992 0.8137207 28.64916992 -1 28 C0 24 0 24 6 18 C-2.91 17.67 -11.82 17.34 -21 17 C-21.33 15.35 -21.66 13.7 -22 12 C-12.76 11.67 -3.52 11.34 6 11 C3.69 8.36 1.38 5.72 -1 3 C-0.67 2.01 -0.34 1.02 0 0 Z " fill="#000000" transform="translate(114,110)"/>
<path d="M0 0 C1.04500643 6.53129018 1.04500643 6.53129018 0.7265625 9.84765625 C1.09394569 14.08305964 3.07321861 16.32511164 5.875 19.3125 C6.36734131 19.84794434 6.85968262 20.38338867 7.36694336 20.93505859 C10.59706429 24.20286513 12.96985668 25.78306597 17.5625 26.125 C18.36816406 26.08632812 19.17382812 26.04765625 20.00390625 26.0078125 C20.66261719 26.00523437 21.32132813 26.00265625 22 26 C24 28 24 28 24.1875 30.5625 C24 33 24 33 23 34 C18.90210331 33.62056512 16.46041065 33.30694043 13 31 C4.66840291 30.35013543 -4.54396161 33.45362443 -12 37 C-14.05068332 38.97501235 -15.40766356 40.82708941 -16.87109375 43.25390625 C-18 45 -18 45 -20.6875 46.625 C-23 47 -23 47 -26 45 C-26 42.3125 -26 42.3125 -25 39 C-23.12965014 37.49772814 -21.22406682 36.3943468 -19.10546875 35.2734375 C-13.96342019 32.16340442 -11.68291037 27.90341697 -9.25 22.5625 C-8.93417969 21.90701172 -8.61835938 21.25152344 -8.29296875 20.57617188 C-6.60509744 16.93373098 -5.49477716 14.02713861 -6 10 C-6.350625 9.360625 -6.70125 8.72125 -7.0625 8.0625 C-8.40790575 5.10260735 -7.82073092 3.07774095 -7 0 C-4.3333581 -1.33332095 -2.83319697 -0.67102033 0 0 Z M-4 3 C-3 6 -3 6 -3 6 Z M-2 16 C-3.03033882 18.12040742 -4.04902854 20.24647908 -5.0625 22.375 C-5.63097656 23.55835938 -6.19945312 24.74171875 -6.78515625 25.9609375 C-7.38650391 27.46527344 -7.38650391 27.46527344 -8 29 C-7.67 29.66 -7.34 30.32 -7 31 C-2.38 29.68 2.24 28.36 7 27 C5.41925789 23.83851578 4.18882303 21.83874491 1.9375 19.25 C1.14666016 18.32960937 1.14666016 18.32960937 0.33984375 17.390625 C-0.10230469 16.93171875 -0.54445312 16.4728125 -1 16 C-1.33 16 -1.66 16 -2 16 Z M-22 41 C-21.67 41.66 -21.34 42.32 -21 43 C-20.67 42.34 -20.34 41.68 -20 41 C-20.66 41 -21.32 41 -22 41 Z " fill="#000000" transform="translate(181,114)"/>
</svg>
