<?xml version="1.0" encoding="UTF-8"?>
<svg version="1.1" xmlns="http://www.w3.org/2000/svg" width="258" height="195">
<path d="M0 0 C85.14 0 170.28 0 258 0 C258 64.35 258 128.7 258 195 C172.86 195 87.72 195 0 195 C0 130.65 0 66.3 0 0 Z " fill="#FFFCFC" transform="translate(0,0)"/>
<path d="M0 0 C2.91077902 0.00535831 5.82140336 0.00001897 8.73217773 -0.00634766 C41.10822974 -0.0214176 41.10822974 -0.0214176 52.98022461 2.88037109 C53.72377197 3.05592529 54.46731934 3.23147949 55.23339844 3.41235352 C65.85726679 6.06396894 74.23557404 10.36637827 80.17163086 19.82568359 C88.33152149 34.88707209 87.66422689 52.84569929 87.73022461 69.56787109 C87.76116211 71.52176758 87.76116211 71.52176758 87.79272461 73.51513672 C87.83545187 84.24502017 87.7442841 96.88446462 80.32397461 105.39599609 C64.27656436 120.49144132 39.49393925 124.21918737 18.17163086 124.33349609 C17.29569778 124.34051041 16.41976471 124.34752472 15.51728821 124.35475159 C12.69238117 124.37221404 9.8676837 124.3786071 7.04272461 124.38037109 C5.59751434 124.38138321 5.59751434 124.38138321 4.12310791 124.38241577 C-52.15602765 124.3197676 -52.15602765 124.3197676 -71.70336914 107.22021484 C-81.77546844 96.6874374 -80.72954458 82.03117803 -80.70727539 68.38037109 C-80.70667114 67.69939362 -80.70606689 67.01841614 -80.70544434 66.31680298 C-80.60954503 26.39169856 -80.60954503 26.39169856 -67.97290039 13.38818359 C-61.42276331 7.35955425 -55.05390294 4.70832914 -46.45727539 2.81787109 C-45.7329834 2.65818848 -45.00869141 2.49850586 -44.26245117 2.33398438 C-29.7857705 -0.47446064 -14.67983391 -0.03203859 0 0 Z " fill="#FFFCFC" transform="translate(125.519775390625,59.86962890625)"/>
<path d="M0 0 C2.90113667 1.64873341 5.81380815 2.93522346 8.88574219 4.22363281 C24.2021463 10.68125385 37.20238559 19.1179139 49.45117188 30.33837891 C50.60674662 31.39418315 51.78480679 32.42532712 52.96875 33.44921875 C56.81307134 36.94966731 59.68483279 41.05723885 62.546875 45.375 C62.91594971 45.92333496 63.28502441 46.47166992 63.6652832 47.03662109 C69.20076073 55.73183472 71.46982601 65.29380885 72.984375 75.375 C73.23247925 76.94870361 73.23247925 76.94870361 73.4855957 78.55419922 C73.95697376 81.57594885 74.41158523 84.59967591 74.859375 87.625 C75.03364014 88.78080566 75.03364014 88.78080566 75.21142578 89.95996094 C76.53458825 98.82158468 77.42060164 107.6760642 77.859375 116.625 C77.92511719 117.78644531 77.99085938 118.94789063 78.05859375 120.14453125 C78.27582007 126.69877354 78.27119519 131.5582037 73.859375 136.625 C71.93220712 138.6733997 69.95733467 140.64857105 67.9296875 142.59765625 C65.99059681 144.49650166 64.19691925 146.44837909 62.421875 148.5 C61.85082031 149.15613281 61.27976563 149.81226563 60.69140625 150.48828125 C59.38247877 152.01489817 58.08995012 153.55563772 56.80859375 155.10546875 C45.53438598 168.34214963 32.00755425 173.47081946 15.109375 175.75 C13.93415283 175.91467773 12.75893066 176.07935547 11.5480957 176.24902344 C-17.54055297 180.20933012 -44.98226674 180.14189816 -74.140625 176.625 C-75.1291748 176.50753418 -76.11772461 176.39006836 -77.13623047 176.26904297 C-100.72391417 173.35923175 -114.60985956 163.10338567 -130.140625 145.625 C-131.28144531 144.35269531 -131.28144531 144.35269531 -132.4453125 143.0546875 C-134.03313315 141.26242642 -135.59667067 139.45503999 -137.140625 137.625 C-137.924375 136.696875 -138.708125 135.76875 -139.515625 134.8125 C-146.05905616 126.00403497 -141.63031315 108.08554022 -140.328125 97.75 C-140.14315538 96.24146412 -139.95826013 94.73291913 -139.7734375 93.22436523 C-135.91438003 62.10826216 -128.37102534 40.8689771 -102.84765625 20.82421875 C-91.9086455 12.85358277 -80.05787083 6.59731079 -67.34765625 2.01171875 C-64.08123195 0.59931847 -61.8531201 -1.10450668 -59.140625 -3.375 C-42.43756411 -9.47804148 -15.05894505 -9.67289901 0 0 Z M-82.078125 47.3125 C-82.8731543 47.48547607 -83.66818359 47.65845215 -84.48730469 47.83666992 C-90.816942 49.32832247 -96.04078444 51.49939799 -101.140625 55.625 C-102.11708984 56.41197266 -102.11708984 56.41197266 -103.11328125 57.21484375 C-114.52632231 67.51323536 -115.25758359 82.20404875 -116.140625 96.625 C-116.29772842 101.7716807 -116.32560969 106.91366614 -116.328125 112.0625 C-116.34037109 113.37798828 -116.35261719 114.69347656 -116.36523438 116.04882812 C-116.55423077 134.48085713 -116.55423077 134.48085713 -108.5234375 150.453125 C-88.26527557 169.78664053 -55.35326232 168.88872931 -29.265625 169 C-28.36131744 169.00785522 -27.45700989 169.01571045 -26.52529907 169.02380371 C-3.2229629 169.181243 26.45063076 167.36660759 44.2421875 150.4609375 C52.779194 140.76916683 52.19761128 126.97930195 52.109375 114.8125 C52.10594086 114.13746429 52.10250671 113.46242859 52.09896851 112.76693726 C52.60790901 82.38261912 52.60790901 82.38261912 38.28125 56.74609375 C32.08383282 51.3183558 25.23083222 49.25284521 17.359375 47.375 C16.35692749 47.12967529 16.35692749 47.12967529 15.33422852 46.87939453 C0.71662205 43.74118918 -14.92208213 44.46210717 -29.79077148 44.49462891 C-32.70366602 44.500001 -35.61640689 44.4946386 -38.52929688 44.48828125 C-60.43681776 44.33220367 -60.43681776 44.33220367 -82.078125 47.3125 Z " fill="#FF1010" transform="translate(161.140625,15.375)"/>
<path d="M0 0 C3.60401481 -0.08701039 7.20776012 -0.14039388 10.8125 -0.1875 C12.34874023 -0.22520508 12.34874023 -0.22520508 13.91601562 -0.26367188 C15.39038086 -0.27817383 15.39038086 -0.27817383 16.89453125 -0.29296875 C18.25348511 -0.31653442 18.25348511 -0.31653442 19.63989258 -0.34057617 C22 0 22 0 23.79444122 1.35277081 C25.60449336 3.8259565 25.39599992 5.85060901 25.41992188 8.88793945 C25.43561218 10.10781052 25.45130249 11.32768158 25.46746826 12.58451843 C25.46868187 13.92743889 25.46908571 15.27036028 25.46875 16.61328125 C25.47773537 18.00776137 25.48745415 19.40223694 25.49786377 20.79670715 C25.51948848 24.52962586 25.51723096 28.26214058 25.5063324 31.9950943 C25.50000252 34.31157778 25.4985502 36.62802774 25.49768066 38.94451904 C25.47199684 60.14098877 24.61299075 80.83925987 21.02423096 101.76828003 C19.61986889 109.99335486 18.70544507 118.27564914 17.75 126.5625 C17.43588979 129.25175253 17.11717293 131.94037575 16.796875 134.62890625 C16.66635742 135.74338135 16.53583984 136.85785645 16.40136719 138.00610352 C16.03974806 140.70350945 15.5698114 143.33974709 15 146 C10.47207891 145.53377427 8.72019513 144.12386697 5.8125 140.6875 C5.13832031 139.90761719 4.46414062 139.12773437 3.76953125 138.32421875 C0.7083297 134.30343525 -0.25016884 131.58880771 -0.24050903 126.50775146 C-0.24325836 125.39158447 -0.24600769 124.27541748 -0.24884033 123.12542725 C-0.24164978 121.90551086 -0.23445923 120.68559448 -0.22705078 119.42871094 C-0.22734283 118.14065552 -0.22763489 116.8526001 -0.22793579 115.5255127 C-0.22850954 111.99688061 -0.21675173 108.46838453 -0.20278788 104.93978405 C-0.19028416 101.25089902 -0.1891103 97.56201086 -0.18673706 93.87310791 C-0.18052124 86.8891823 -0.16410904 79.90531932 -0.14403808 72.92142129 C-0.12168227 64.96985623 -0.11068645 57.01828817 -0.10064721 49.0666995 C-0.07974289 32.71109634 -0.04456493 16.35555616 0 0 Z " fill="#FF1010" transform="translate(0,0)"/>
<path d="M0 0 C0.98291016 0.00966797 1.96582031 0.01933594 2.97851562 0.02929688 C4.00267578 0.05443359 5.02683594 0.07957031 6.08203125 0.10546875 C7.11779297 0.11900391 8.15355469 0.13253906 9.22070312 0.14648438 C11.77916824 0.18185486 14.33658905 0.23121331 16.89453125 0.29296875 C16.96464214 17.26960129 17.01752958 34.24618858 17.04996777 51.22293282 C17.06543035 59.10570239 17.08650819 66.98838195 17.12084961 74.87109375 C17.15077066 81.74243667 17.17011068 88.6137144 17.17679673 95.48512065 C17.18070443 99.12280338 17.18987522 102.76029961 17.21172142 106.39792252 C17.2359234 110.46084076 17.23649951 114.52343567 17.23510742 118.58642578 C17.24589325 119.78980087 17.25667908 120.99317596 17.26779175 122.23301697 C17.23615673 130.75164244 15.63589605 135.69340888 9.95703125 142.16796875 C9.28800781 142.94914063 8.61898437 143.7303125 7.9296875 144.53515625 C5.89453125 146.29296875 5.89453125 146.29296875 1.89453125 146.29296875 C0.52798932 137.51458463 -0.77576296 128.72895443 -2.01698303 119.93197632 C-2.60155842 115.79316773 -3.19790308 111.65726185 -3.83300781 107.52587891 C-7.47192958 83.69538089 -8.58840676 60.13005622 -8.60357285 36.05941772 C-8.60546606 33.79618556 -8.61197789 31.53299742 -8.61880493 29.26977539 C-8.62661417 25.6888381 -8.61518647 22.10845437 -8.5876255 18.52761841 C-8.57447946 16.55092061 -8.57357674 14.57415351 -8.57292175 12.59741211 C-8.55723648 11.41348877 -8.54155121 10.22956543 -8.52539062 9.00976562 C-8.51697144 7.97364136 -8.50855225 6.93751709 -8.49987793 5.86999512 C-7.70609796 0.68352379 -4.85724554 -0.08422969 0 0 Z " fill="#FF1010" transform="translate(241.10546875,-0.29296875)"/>
<path d="M0 0 C5.85398845 6.07521476 7.937947 14.4336087 8.25 22.625 C8.05903534 26.76256767 7.74375655 29.01248691 5.875 32.75 C-6.15179446 43.63776657 -23.97368264 45.01516099 -39.375 44.25 C-40.19097656 44.23066406 -41.00695312 44.21132812 -41.84765625 44.19140625 C-45.71501666 43.95285879 -47.32274173 43.29447513 -50.3125 40.75 C-50.993125 39.925 -51.67375 39.1 -52.375 38.25 C-52.705 37.92 -53.035 37.59 -53.375 37.25 C-54.0268702 31.92639337 -53.1231718 28.64824743 -50.16796875 24.34375 C-46.45550403 20.00849708 -41.89112779 16.70116449 -37.375 13.25 C-36.28839507 12.3800585 -35.2037929 11.50761021 -34.12109375 10.6328125 C-12.66350391 -6.56626129 -12.66350391 -6.56626129 0 0 Z " fill="#FF1111" transform="translate(188.375,101.75)"/>
<path d="M0 0 C6.6 0 13.2 0 20 0 C20 41.25 20 82.5 20 125 C19.67 125 19.34 125 19 125 C18.96559814 124.0706665 18.93119629 123.14133301 18.89575195 122.18383789 C18.11994663 102.66842492 16.54185054 84.06512136 12 65 C9.17534238 52.40565503 7.07193963 39.73554775 5 27 C4.27472449 22.56185205 3.54459931 18.12452669 2.8125 13.6875 C2.64564697 12.66156738 2.47879395 11.63563477 2.30688477 10.57861328 C2.15018311 9.62841309 1.99348145 8.67821289 1.83203125 7.69921875 C1.69514893 6.86221436 1.5582666 6.02520996 1.41723633 5.1628418 C1.01626102 2.83077561 1.01626102 2.83077561 0 0 Z " fill="#FFFAFA" transform="translate(238,0)"/>
<path d="M0 0 C6.6 0 13.2 0 20 0 C19.5875 1.65 19.175 3.3 18.75 5 C17.02018801 12.47960961 15.78445479 20.01715218 14.54736328 27.59155273 C13.45777591 34.25849741 12.33076826 40.91555491 11.125 47.5625 C10.96668701 48.44776367 10.80837402 49.33302734 10.64526367 50.24511719 C9.68489732 55.53247521 8.62496854 60.7875208 7.484375 66.0390625 C3.29831986 85.71403089 1.65236361 104.91549063 1 125 C0.67 125 0.34 125 0 125 C0 83.75 0 42.5 0 0 Z " fill="#FFF9F9" transform="translate(0,0)"/>
<path d="M0 0 C16.38051945 1.84665564 34.22374133 18.50912022 46.7421875 28.421875 C46.4121875 30.401875 46.0821875 32.381875 45.7421875 34.421875 C33.32140661 32.44584168 21.90573662 28.91871813 10.1796875 24.421875 C9.06174805 23.99463135 7.94380859 23.5673877 6.79199219 23.12719727 C1.15817877 20.92349185 -4.11315285 18.61053062 -9.2578125 15.421875 C-8.92966472 10.17151049 -7.52540717 6.51505566 -5 1.92578125 C-3.2578125 0.421875 -3.2578125 0.421875 0 0 Z " fill="#FF1111" transform="translate(72.2578125,106.578125)"/>
<path d="M0 0 C0.33 0 0.66 0 1 0 C3.3241142 9.00594251 1.53673968 18.06172582 0.125 27.0625 C-1.82613279 40.01155238 -3.10795998 52.9385035 -4 66 C-6.29051074 63.58911151 -6.9806454 62.35943005 -7.16210938 58.98950195 C-7.05705078 57.81347412 -6.95199219 56.63744629 -6.84375 55.42578125 C-6.7878772 54.77458817 -6.73200439 54.12339508 -6.67443848 53.45246887 C-5.90008937 44.99847393 -4.69089233 36.59065988 -3.5 28.1875 C-3.04944097 24.97302089 -2.60192317 21.75812872 -2.15625 18.54296875 C-2.05119141 17.78748749 -1.94613281 17.03200623 -1.83789062 16.25363159 C-1.09412967 10.84524488 -0.48391793 5.43857764 0 0 Z " fill="#FFD4D4" transform="translate(23,77)"/>
<path d="M0 0 C0.33 0 0.66 0 1 0 C1.15819214 1.43327637 1.15819214 1.43327637 1.31958008 2.89550781 C1.8124514 7.34754289 2.31106141 11.79892213 2.8125 16.25 C2.90237183 17.04777863 2.99224365 17.84555725 3.08483887 18.66751099 C4.24465604 28.91372713 5.48077547 39.13108679 7.13598633 49.31152344 C7.67045092 52.61494159 8 55.63872192 8 59 C7.34 59 6.68 59 6 59 C6 61.31 6 63.62 6 66 C5.67 66 5.34 66 5 66 C4.93006836 65.15219971 4.86013672 64.30439941 4.78808594 63.4309082 C3.12173166 43.51368809 0.95481871 23.77177777 -2 4 C-1.34 4 -0.68 4 0 4 C0 2.68 0 1.36 0 0 Z " fill="#FFE6E6" transform="translate(234,77)"/>
<path d="M0 0 C0.33 0 0.66 0 1 0 C1.53294568 3.91511815 2.04924855 7.83225534 2.5625 11.75 C2.71396484 12.86117187 2.86542969 13.97234375 3.02148438 15.1171875 C3.2293457 16.72207031 3.2293457 16.72207031 3.44140625 18.359375 C3.57232666 19.34389648 3.70324707 20.32841797 3.83813477 21.34277344 C3.99134946 23.85799021 3.77228356 25.62146534 3 28 C0.54375444 25.54375444 0.57773998 24.38757987 0.1484375 20.9921875 C0.01953125 20.00605469 -0.109375 19.01992187 -0.2421875 18.00390625 C-0.36851562 16.97136719 -0.49484375 15.93882813 -0.625 14.875 C-0.7590625 13.83472656 -0.893125 12.79445313 -1.03125 11.72265625 C-1.36177197 9.14930666 -1.6843456 6.57520854 -2 4 C-1.34 4 -0.68 4 0 4 C0 2.68 0 1.36 0 0 Z " fill="#FFC2C2" transform="translate(234,77)"/>
<path d="M0 0 C0.33 0 0.66 0 1 0 C1.1170409 9.40228594 0.88495497 18.62895894 0 28 C-2.47031802 25.46584947 -2.98957398 24.24205278 -3.14453125 20.64453125 C-3.03496094 19.37996094 -2.92539062 18.11539063 -2.8125 16.8125 C-2.75715088 16.14919678 -2.70180176 15.48589355 -2.64477539 14.80249023 C-2.17995924 9.73148801 -1.29405686 4.91741608 0 0 Z " fill="#FFDCDC" transform="translate(19,115)"/>
<path d="M0 0 C0.33 3.63 0.66 7.26 1 11 C0.34 11 -0.32 11 -1 11 C-1 13.31 -1 15.62 -1 18 C-1.33 18 -1.66 18 -2 18 C-2.33 12.39 -2.66 6.78 -3 1 C-1 0 -1 0 0 0 Z " fill="#FFC1C1" transform="translate(241,125)"/>
<path d="M0 0 C2.37706418 3.66539668 2.05094317 6.49056835 1.625 10.75 C1.51414062 11.92046875 1.40328125 13.0909375 1.2890625 14.296875 C1.19367187 15.18890625 1.09828125 16.0809375 1 17 C-1.37706418 13.33460332 -1.05094317 10.50943165 -0.625 6.25 C-0.51414062 5.07953125 -0.40328125 3.9090625 -0.2890625 2.703125 C-0.19367187 1.81109375 -0.09828125 0.9190625 0 0 Z " fill="#FFBCBC" transform="translate(20,102)"/>
<path d="M0 0 C0.33 0 0.66 0 1 0 C1 4.62 1 9.24 1 14 C-2.00617269 10.99382731 -1.59585316 8.17618402 -2 4 C-1.34 4 -0.68 4 0 4 C0 2.68 0 1.36 0 0 Z " fill="#FFD7D7" transform="translate(234,77)"/>
</svg>
