<?xml version="1.0" encoding="UTF-8"?>
<svg version="1.1" xmlns="http://www.w3.org/2000/svg" width="600" height="600">
<path d="M0 0 C3.56927427 0.00912944 7.13847297 -0.00495794 10.70773172 -0.01591969 C17.68228763 -0.03362612 24.65667053 -0.02990031 31.63123298 -0.01826912 C37.30394335 -0.00920386 42.97660553 -0.00802411 48.64932108 -0.01236439 C49.86434692 -0.01328379 49.86434692 -0.01328379 51.10391873 -0.01422176 C52.74989503 -0.01550077 54.39587132 -0.01679763 56.04184759 -0.01811212 C71.44506095 -0.02949484 86.84817881 -0.01644056 102.25137651 0.00508934 C115.44336815 0.02295823 128.63521895 0.01985347 141.82720804 0.0014143 C157.17853755 -0.02003332 172.52978353 -0.02839642 187.88112593 -0.01613665 C189.52075623 -0.01486257 191.16038655 -0.01360508 192.80001688 -0.01236439 C193.6065655 -0.01174729 194.41311412 -0.01113018 195.24410361 -0.01049438 C200.90434313 -0.00705313 206.56452928 -0.01284327 212.22476053 -0.0222826 C219.13082546 -0.03354735 226.03670873 -0.03036915 232.94275308 -0.00915962 C236.46054921 0.00129107 239.97804342 0.00557621 243.49583673 -0.00775623 C265.62600521 -0.0713967 282.55507154 1.29992304 299.40045023 17.03461742 C311.93499834 30.45395717 315.36645541 46.07464218 314.96685648 63.83149242 C314.33973208 79.2767592 308.06788361 91.99904905 297.38873148 103.08149242 C287.65093353 112.0054275 274.90620699 117.63542443 261.58267736 117.65432644 C260.05311782 117.66008816 260.05311782 117.66008816 258.49265808 117.66596627 C257.37925082 117.66509979 256.26584356 117.66423331 255.11869669 117.66334057 C253.93049407 117.66631169 252.74229144 117.66928281 251.51808268 117.67234397 C248.22327123 117.67951621 244.92851194 117.68220266 241.63369644 117.68294144 C238.07864177 117.68479478 234.52359835 117.69234363 230.96855021 117.69907665 C223.19556274 117.71265025 215.42258044 117.71868344 207.6495831 117.72308731 C202.7931873 117.7258519 197.93679349 117.7300897 193.08039904 117.73459148 C179.62678099 117.74678387 166.17316453 117.7570826 152.71954107 117.76046658 C151.85869294 117.76068614 150.9978448 117.76090571 150.11091036 117.76113193 C148.81659216 117.76145934 148.81659216 117.76145934 147.49612612 117.76179338 C145.74768142 117.76223684 143.99923672 117.7626834 142.25079203 117.76313305 C141.38350775 117.76335448 140.51622347 117.76357591 139.62265784 117.76380405 C125.5792965 117.76774944 111.53598713 117.78519569 97.49264585 117.80849257 C83.06442922 117.83223408 68.63623863 117.84466973 54.20800215 117.84583449 C46.11124358 117.84674979 38.0145527 117.85246514 29.91781282 117.87065411 C23.02103051 117.88609305 16.1243368 117.89115333 9.22754049 117.882916 C5.71211476 117.87902261 2.19686725 117.8798744 -1.31853628 117.89397335 C-5.13933398 117.9067083 -8.95967831 117.90080694 -12.78047323 117.89039135 C-13.87826544 117.89844775 -14.97605765 117.90650416 -16.10711628 117.9148047 C-32.2934186 117.81204048 -46.08689295 112.47318651 -57.79876852 101.23383617 C-70.95132194 86.83656162 -74.18485411 70.64992156 -73.41888571 51.78510571 C-72.43352563 36.25730558 -64.72960442 22.82211929 -53.27533102 12.52289867 C-36.80162264 -0.05471415 -19.96800075 -0.07567875 0 0 Z M-55.27533102 23.52289867 C-66.80028688 37.163334 -68.44768475 52.32728575 -67.27533102 69.52289867 C-65.15975462 82.20361263 -58.16621709 93.38166393 -48.27533102 101.52289867 C-38.66753088 108.36340363 -28.73763855 111.65317228 -16.93515158 111.64315319 C-15.0548374 111.64521519 -15.0548374 111.64521519 -13.13653708 111.64731884 C-11.7604382 111.64378041 -10.38433957 111.64014561 -9.00824118 111.63642406 C-7.54924665 111.63614178 -6.09025198 111.63630073 -4.63125753 111.63686657 C-0.68131307 111.63715295 3.26860089 111.63128198 7.21853828 111.62429261 C11.35051394 111.61803254 15.48249034 111.61745317 19.61447001 111.6162672 C27.43412249 111.61316171 35.25376097 111.60495887 43.07340729 111.59491771 C51.97784909 111.58373229 60.88229156 111.57824 69.78673863 111.57322228 C88.09939002 111.5627756 106.41202837 111.54519131 124.72466898 111.52289867 C124.12044962 98.41353524 123.33721704 85.3313755 122.34966898 72.24555492 C122.2188474 70.4925074 122.08815356 68.73945034 121.95757914 66.98638439 C121.68692154 63.36049117 121.41445793 59.73473956 121.1406846 56.10908031 C120.7905416 51.46947972 120.445544 46.82951211 120.10189676 42.18942642 C119.83471741 38.59047485 119.5646388 34.9917453 119.29369974 31.39307499 C119.16517402 29.68076113 119.03759802 27.9683757 118.91100931 26.25591755 C118.73469374 23.87600666 118.55441354 21.49642794 118.37310648 19.11689281 C118.32216837 18.41823101 118.27123026 17.71956921 118.21874857 16.99973583 C117.94272878 13.43493976 117.45832617 10.01901811 116.72466898 6.52289867 C98.67820824 6.45265512 80.63178324 6.39983559 62.58521509 6.36746216 C54.20489527 6.35202759 45.82466066 6.33100371 37.44439554 6.29658031 C30.13571129 6.26657307 22.82708879 6.24729892 15.51834464 6.24063319 C11.65243823 6.23674001 7.78670839 6.22766263 3.92085886 6.2057085 C0.27322869 6.18516383 -3.37415421 6.17910066 -7.02183676 6.18357563 C-8.98049231 6.18237225 -10.93912167 6.16632508 -12.89770651 6.14963818 C-29.9142046 6.20838848 -43.47058057 11.08327089 -55.27533102 23.52289867 Z M255.72466898 36.52289867 C255.72466898 37.51289867 255.72466898 38.50289867 255.72466898 39.52289867 C254.52841898 39.46102367 253.33216898 39.39914867 252.09966898 39.33539867 C247.16913592 39.33539867 243.9913388 41.03783914 239.91216898 43.71039867 C237.97635748 46.66505834 237.75281032 50.03337256 237.72466898 53.52289867 C238.05466898 54.51289867 238.38466898 55.50289867 238.72466898 56.52289867 C237.87904398 57.22414867 237.03341898 57.92539867 236.16216898 58.64789867 C233.39336675 61.30010833 233.39336675 61.30010833 233.66216898 64.71039867 C234.4537445 67.63142462 234.4537445 67.63142462 236.78716898 68.89789867 C237.42654398 69.10414867 238.06591898 69.31039867 238.72466898 69.52289867 C238.72466898 70.18289867 238.72466898 70.84289867 238.72466898 71.52289867 C238.08529398 71.81164867 237.44591898 72.10039867 236.78716898 72.39789867 C234.57260819 73.35113318 234.57260819 73.35113318 233.72466898 75.52289867 C233.22986161 79.89369713 233.16654515 81.80531089 235.91216898 85.33539867 C242.60046391 90.53740584 249.54872403 90.12573332 257.72466898 89.52289867 C261.70517476 88.66802495 264.18631155 87.03364803 267.16216898 84.21039867 C269.09636259 80.88358566 269.42077395 79.31280352 268.72466898 75.52289867 C265.58722146 70.72444953 263.19038972 68.95070516 257.72466898 67.52289867 C255.14734201 67.26569629 252.56200897 67.0805617 249.97466898 66.96039867 C242.92206594 66.62159716 242.92206594 66.62159716 240.72466898 65.52289867 C240.09966898 63.46039867 240.09966898 63.46039867 239.72466898 61.52289867 C240.35373148 61.67887524 240.98279398 61.8348518 241.63091898 61.99555492 C250.78645778 64.13909322 250.78645778 64.13909322 259.51763773 61.40571117 C261.70477812 59.64976473 263.46097521 58.05028621 264.72466898 55.52289867 C265.31754183 49.7278441 265.31754183 49.7278441 262.72466898 44.77289867 C262.06466898 44.03039867 261.40466898 43.28789867 260.72466898 42.52289867 C260.72466898 41.20289867 260.72466898 39.88289867 260.72466898 38.52289867 C262.37466898 38.19289867 264.02466898 37.86289867 265.72466898 37.52289867 C265.39466898 39.17289867 265.06466898 40.82289867 264.72466898 42.52289867 C267.19966898 43.01789867 267.19966898 43.01789867 269.72466898 43.52289867 C270.38466898 41.87289867 271.04466898 40.22289867 271.72466898 38.52289867 C270.33377861 35.84128427 270.33377861 35.84128427 267.72466898 33.52289867 C262.9791525 32.56351628 258.78586691 32.3761002 255.72466898 36.52289867 Z M159.72466898 43.52289867 C159.06466898 42.53289867 158.40466898 41.54289867 157.72466898 40.52289867 C155.35761985 40.12051022 155.35761985 40.12051022 152.72466898 40.27289867 C151.83779398 40.28836742 150.95091898 40.30383617 150.03716898 40.31977367 C147.69947487 40.38248112 147.69947487 40.38248112 145.72466898 41.52289867 C146.05466898 42.84289867 146.38466898 44.16289867 146.72466898 45.52289867 C148.70466898 45.52289867 150.68466898 45.52289867 152.72466898 45.52289867 C152.72466898 58.39289867 152.72466898 71.26289867 152.72466898 84.52289867 C150.74466898 84.52289867 148.76466898 84.52289867 146.72466898 84.52289867 C146.13396884 86.46893142 146.13396884 86.46893142 145.72466898 88.52289867 C146.70874209 89.72785777 146.70874209 89.72785777 148.582335 89.63642406 C149.37309427 89.63118725 150.16385355 89.62595043 150.97857523 89.62055492 C151.83257914 89.61733227 152.68658304 89.61410961 153.56646585 89.6107893 C154.46429789 89.60241039 155.36212992 89.59403149 156.28716898 89.58539867 C157.1888682 89.58088696 158.09056742 89.57637524 159.01959085 89.5717268 C161.25468212 89.55990092 163.48964335 89.54342088 165.72466898 89.52289867 C166.05466898 88.53289867 166.38466898 87.54289867 166.72466898 86.52289867 C166.39466898 85.86289867 166.06466898 85.20289867 165.72466898 84.52289867 C162.69532407 83.86517439 162.69532407 83.86517439 159.72466898 83.52289867 C159.72466898 80.88289867 159.72466898 78.24289867 159.72466898 75.52289867 C160.2738096 75.8451643 160.82295023 76.16742992 161.38873148 76.49946117 C165.67192882 78.37604596 170.14531532 78.04131607 174.72466898 77.52289867 C179.37751276 75.49256684 181.99192375 72.70165694 184.02545023 68.12836742 C185.9450268 60.97553182 186.36607769 52.35497214 182.59966898 45.77289867 C179.6568983 41.98109332 176.58743936 39.97612284 171.77545023 39.21430492 C166.52509855 38.88428282 163.7863097 40.2735861 159.72466898 43.52289867 Z M199.72466898 42.52289867 C199.39466898 41.86289867 199.06466898 41.20289867 198.72466898 40.52289867 C197.09975944 40.49591678 195.47472265 40.4765111 193.84966898 40.46039867 C192.9447471 40.44879711 192.03982523 40.43719555 191.10748148 40.42524242 C188.70781048 40.3604061 188.70781048 40.3604061 186.72466898 41.52289867 C187.05466898 42.84289867 187.38466898 44.16289867 187.72466898 45.52289867 C189.70466898 45.52289867 191.68466898 45.52289867 193.72466898 45.52289867 C193.72466898 54.43289867 193.72466898 63.34289867 193.72466898 72.52289867 C191.41466898 72.52289867 189.10466898 72.52289867 186.72466898 72.52289867 C186.72466898 73.84289867 186.72466898 75.16289867 186.72466898 76.52289867 C190.88093266 77.53216347 194.76831992 77.62529446 199.03716898 77.58539867 C200.29142679 77.57637524 201.5456846 77.5673518 202.83795023 77.55805492 C204.26687601 77.54065258 204.26687601 77.54065258 205.72466898 77.52289867 C206.38466898 76.20289867 207.04466898 74.88289867 207.72466898 73.52289867 C206.59932793 72.16671368 206.59932793 72.16671368 203.66216898 72.46039867 C202.69279398 72.48102367 201.72341898 72.50164867 200.72466898 72.52289867 C200.64317306 69.501513 200.58393477 66.48235962 200.53716898 63.46039867 C200.51203226 62.61284008 200.48689554 61.76528149 200.4609971 60.8920393 C200.39639883 55.31505458 201.02724859 51.4409557 203.72466898 46.52289867 C206.81640649 44.97702992 209.3189645 45.22930346 212.72466898 45.52289867 C214.93560648 46.83930492 214.93560648 46.83930492 216.72466898 49.52289867 C217.22144756 53.28328989 217.09953812 56.98840329 216.97466898 60.77289867 C216.9566221 61.80414867 216.93857523 62.83539867 216.91998148 63.89789867 C216.8728961 66.44050932 216.80714948 68.98123029 216.72466898 71.52289867 C213.75466898 72.01789867 213.75466898 72.01789867 210.72466898 72.52289867 C210.72466898 73.84289867 210.72466898 75.16289867 210.72466898 76.52289867 C214.43757809 77.69834226 217.97552154 77.65598666 221.84966898 77.64789867 C223.0897471 77.6504768 224.32982523 77.65305492 225.60748148 77.65571117 C228.63190471 77.73958678 228.63190471 77.73958678 230.72466898 76.52289867 C230.72466898 75.20289867 230.72466898 73.88289867 230.72466898 72.52289867 C227.75466898 72.02789867 227.75466898 72.02789867 224.72466898 71.52289867 C224.71008646 70.85234447 224.69550394 70.18179028 224.68047953 69.49091625 C224.60578598 66.43851045 224.50919599 63.38717283 224.41216898 60.33539867 C224.37833109 58.75275219 224.37833109 58.75275219 224.3438096 57.13813305 C224.30836039 56.11655102 224.27291117 55.09496899 224.23638773 54.04242992 C224.21020365 53.10503979 224.18401957 52.16764965 224.15704203 51.20185375 C223.43043689 46.69985594 221.44545183 44.14310718 218.03716898 41.21039867 C211.27984472 37.7679882 206.11429279 39.32808677 199.72466898 42.52289867 Z " fill="#000000" transform="translate(179.27533102035522,241.47710132598877)"/>
<path d="M0 0 C2.625 0.375 2.625 0.375 5 1 C5.042721 2.66611905 5.04063832 4.33382885 5 6 C4 7 4 7 1.4375 7.0625 C0.2309375 7.0315625 0.2309375 7.0315625 -1 7 C-1.625 4.625 -1.625 4.625 -2 2 C-1.34 1.34 -0.68 0.68 0 0 Z " fill="#000000" transform="translate(180,271)"/>
<path d="M0 0 C1.65 0.33 3.3 0.66 5 1 C5 4.3 5 7.6 5 11 C8.63 11 12.26 11 16 11 C15.67 12.65 15.34 14.3 15 16 C11.7 16 8.4 16 5 16 C5.10950024 19.9589232 5.24021668 23.91686326 5.375 27.875 C5.4059375 29.00292969 5.436875 30.13085938 5.46875 31.29296875 C5.50742188 32.36933594 5.54609375 33.44570313 5.5859375 34.5546875 C5.6173584 35.54968262 5.6487793 36.54467773 5.68115234 37.56982422 C5.77247083 40.17854517 5.77247083 40.17854517 8 42 C11.08347826 42.16681109 11.08347826 42.16681109 14 42 C14.04898438 41.31292969 14.09796875 40.62585938 14.1484375 39.91796875 C14.22320312 39.01691406 14.29796875 38.11585938 14.375 37.1875 C14.44460937 36.29417969 14.51421875 35.40085937 14.5859375 34.48046875 C15 32 15 32 17 29 C17.99 29.33 18.98 29.66 20 30 C20.34422689 35.73711481 20.36694489 40.06983069 17 45 C13.65260696 47.63009453 10.11837695 47.29416978 6 47 C3.39764018 46.15599141 2.37597539 45.58873146 0.90673828 43.28808594 C-0.22212895 40.43947428 -0.2265519 38.20208595 -0.1953125 35.140625 C-0.18564453 33.46806641 -0.18564453 33.46806641 -0.17578125 31.76171875 C-0.15902344 30.60285156 -0.14226562 29.44398438 -0.125 28.25 C-0.11597656 27.07566406 -0.10695312 25.90132813 -0.09765625 24.69140625 C-0.07410063 21.79406464 -0.04120652 18.89713559 0 16 C-1.65 16 -3.3 16 -5 16 C-5.33 14.35 -5.66 12.7 -6 11 C-4.35 10.67 -2.7 10.34 -1 10 C-0.67 6.7 -0.34 3.4 0 0 Z " fill="#000000" transform="translate(150,272)"/>
<path d="M0 0 C4.12379893 2.06189946 6.31508044 3.7408715 8 8 C8.31884766 10.56542969 8.31884766 10.56542969 8.4140625 13.421875 C8.47207031 14.95908203 8.47207031 14.95908203 8.53125 16.52734375 C8.5621875 17.59082031 8.593125 18.65429688 8.625 19.75 C8.68300781 21.36841797 8.68300781 21.36841797 8.7421875 23.01953125 C8.83634631 25.67951775 8.92197387 28.3394994 9 31 C10.98 31.66 12.96 32.32 15 33 C15 33.99 15 34.98 15 36 C8.73 36 2.46 36 -4 36 C-3.67 34.68 -3.34 33.36 -3 32 C-1.35 31.67 0.3 31.34 2 31 C2.11627503 27.41694008 2.1872736 23.83436583 2.25 20.25 C2.28351563 19.23421875 2.31703125 18.2184375 2.3515625 17.171875 C2.52856945 11.4240182 2.52856945 11.4240182 0.234375 6.328125 C-3.2456855 4.25955757 -6.0747844 4.1940009 -10 5 C-13.2439331 7.32897761 -14.26548434 9.16980595 -15 13 C-15.07766084 14.44098431 -15.10796367 15.88508629 -15.09765625 17.328125 C-15.09443359 18.12734375 -15.09121094 18.9265625 -15.08789062 19.75 C-15.07951172 20.575 -15.07113281 21.4 -15.0625 22.25 C-15.05798828 23.09046875 -15.05347656 23.9309375 -15.04882812 24.796875 C-15.03707961 26.86461401 -15.01914522 28.93231624 -15 31 C-12.05270463 32.15811388 -12.05270463 32.15811388 -9 32 C-8.67 32.99 -8.34 33.98 -8 35 C-9 36 -9 36 -10.85766602 36.11352539 C-12.04380493 36.10567017 -12.04380493 36.10567017 -13.25390625 36.09765625 C-14.10791016 36.09443359 -14.96191406 36.09121094 -15.84179688 36.08789062 C-16.73962891 36.07951172 -17.63746094 36.07113281 -18.5625 36.0625 C-19.46419922 36.05798828 -20.36589844 36.05347656 -21.29492188 36.04882812 C-23.53001314 36.03700225 -25.76497437 36.0205222 -28 36 C-27.67 34.68 -27.34 33.36 -27 32 C-25.35 32 -23.7 32 -22 32 C-21.67 23.09 -21.34 14.18 -21 5 C-23.31 5 -25.62 5 -28 5 C-28 3.68 -28 2.36 -28 1 C-26.20906809 0.91913853 -24.41710372 0.86087298 -22.625 0.8125 C-21.12839844 0.76029297 -21.12839844 0.76029297 -19.6015625 0.70703125 C-18.74304688 0.80371094 -17.88453125 0.90039062 -17 1 C-16.34 1.99 -15.68 2.98 -15 4 C-14.071875 3.01 -14.071875 3.01 -13.125 2 C-8.74645577 -0.80226831 -5.07143273 -0.81142924 0 0 Z " fill="#000000" transform="translate(223,282)"/>
<path d="M0 0 C3.96 0 7.92 0 12 0 C12.02505615 0.86802246 12.0501123 1.73604492 12.07592773 2.63037109 C12.17099484 5.84713163 12.27023203 9.06372849 12.37231445 12.28027344 C12.41565846 13.6731259 12.45733396 15.06603131 12.49731445 16.45898438 C12.55502932 18.45976651 12.61921869 20.46035859 12.68359375 22.4609375 C12.72025146 23.66540527 12.75690918 24.86987305 12.79467773 26.11083984 C12.81052987 28.93996367 12.81052987 28.93996367 14 31 C15.65 31 17.3 31 19 31 C19 32.32 19 33.64 19 35 C12.73 35 6.46 35 0 35 C0 33.68 0 32.36 0 31 C1.2065625 31.0309375 1.2065625 31.0309375 2.4375 31.0625 C4.93354885 31.29633621 4.93354885 31.29633621 6 30 C6.08737645 28.14630389 6.10698153 26.28932459 6.09765625 24.43359375 C6.09443359 23.30888672 6.09121094 22.18417969 6.08789062 21.02539062 C6.07951172 19.84138672 6.07113281 18.65738281 6.0625 17.4375 C6.05798828 16.24962891 6.05347656 15.06175781 6.04882812 13.83789062 C6.03699675 10.89187774 6.02051287 7.94596319 6 5 C3.03 4.505 3.03 4.505 0 4 C0 2.68 0 1.36 0 0 Z " fill="#000000" transform="translate(173,283)"/>
<path d="M0 0 C6.6 0 13.2 0 20 0 C19.67 1.32 19.34 2.64 19 4 C17.35 4 15.7 4 14 4 C16.64 12.25 19.28 20.5 22 29 C25.93993376 19.68309874 25.93993376 19.68309874 29.3125 10.25 C29.63863281 9.24453125 29.96476562 8.2390625 30.30078125 7.203125 C30.53152344 6.47609375 30.76226562 5.7490625 31 5 C28.03 4.505 28.03 4.505 25 4 C25 2.68 25 1.36 25 0 C30.94 0 36.88 0 43 0 C43 1.32 43 2.64 43 4 C42.24388428 4.01538818 41.48776855 4.03077637 40.70874023 4.04663086 C37.67431786 4.78095889 37.67431786 4.78095889 36.24243164 8.10766602 C35.69552621 9.48215394 35.16942097 10.86503187 34.66015625 12.25390625 C34.22599648 13.35532204 34.22599648 13.35532204 33.7830658 14.47898865 C32.85725627 16.83329158 31.95801392 19.19652382 31.0625 21.5625 C22.20665512 44.73038616 22.20665512 44.73038616 15.7487793 48.21459961 C11.82651523 49.84789081 9.36254942 50.05847571 5.125 49.375 C0.39181287 47.29239766 0.39181287 47.29239766 -1 45 C-1.25 41.875 -1.25 41.875 -1 39 C0 38 0 38 3.0625 37.9375 C4.031875 37.958125 5.00125 37.97875 6 38 C6 39.98 6 41.96 6 44 C10.98366261 44.43231495 10.98366261 44.43231495 15.375 42.375 C17.37421088 39.4530764 17.70588179 37.52356811 18 34 C17.26284011 30.93143084 17.26284011 30.93143084 15.9453125 27.8671875 C15.49542969 26.73152344 15.04554688 25.59585937 14.58203125 24.42578125 C14.10121094 23.25402344 13.62039062 22.08226562 13.125 20.875 C12.18835341 18.53976395 11.2533842 16.20385423 10.3203125 13.8671875 C9.90023926 12.83706543 9.48016602 11.80694336 9.04736328 10.74560547 C8.18847996 8.4940899 7.5106611 6.34960299 7 4 C5.02 4 3.04 4 1 4 C0.67 2.68 0.34 1.36 0 0 Z " fill="#000000" transform="translate(237,283)"/>
<path d="M0 0 C2.57285724 2.172635 4.48996919 3.97993838 6 7 C7.04725263 20.39109918 7.04725263 20.39109918 4.125 24.8125 C1.21164633 27.81154054 0.46480239 27.96190144 -3.8125 28.3125 C-6.74429568 28.23787247 -8.18201695 27.91867328 -10.9375 26.6875 C-14.61286784 21.89838433 -14.36145802 16.22420555 -13.70703125 10.38671875 C-12.92627875 6.30945571 -12.31123224 3.70042241 -9 1 C-5.63633609 -0.1212213 -3.52465728 -0.42295887 0 0 Z " fill="#000000" transform="translate(352,286)"/>
<path d="M0 0 C2.375 1.625 2.375 1.625 4 4 C4.45339217 7.17374516 4.58558918 9.05655076 2.875 11.8125 C0.193838 13.51056927 -1.83285993 13.8733144 -5 14 C-7.32731556 12.86220128 -9.16840714 11.83159286 -11 10 C-11.375 7.1875 -11.375 7.1875 -11 4 C-7.64872034 0.25445214 -4.97139349 -0.84619464 0 0 Z " fill="#000000" transform="translate(434,286)"/>
<path d="M0 0 C0.70898438 0.55300781 1.41796875 1.10601562 2.1484375 1.67578125 C2.4609375 4.86328125 2.4609375 4.86328125 2.1484375 7.67578125 C-3.40139266 11.37566802 -9.3211898 11.57227925 -15.8515625 10.67578125 C-18.703125 9.3515625 -18.703125 9.3515625 -20.8515625 7.67578125 C-21.1640625 4.48828125 -21.1640625 4.48828125 -20.8515625 1.67578125 C-14.76753215 -2.38023899 -6.67764848 -3.10099019 0 0 Z " fill="#000000" transform="translate(439.8515625,315.32421875)"/>
</svg>
