<?xml version="1.0" encoding="UTF-8"?>
<svg version="1.1" xmlns="http://www.w3.org/2000/svg" width="315" height="160">
<path d="M0 0 C3.11116179 1.71239349 5.38689318 3.77378636 7 7 C7.51093875 11.05831354 7.91678528 15.19576657 6.0234375 18.921875 C3.72662454 21.76823217 1.37111296 23.66156183 -2 25 C-6.46724889 25.23974502 -10.09533235 24.53895094 -13.9375 22.25 C-17.37369807 18.50142028 -18.2226261 15.58540287 -18.0625 10.5625 C-17.53904203 7.00536516 -16.61766375 4.98061109 -14.0625 2.4375 C-9.67432373 -0.7949426 -5.25122021 -1.18325192 0 0 Z M-15 7 C-16.2545729 11.05891233 -16.25603257 13.21684156 -14.9375 17.25 C-12.57664476 20.60089131 -10.87821689 21.70726104 -7 23 C-2.11030953 22.9002104 0.48002898 21.31882982 4 18 C5.60086627 14.79826746 5.49917089 11.47422941 5 8 C3.20636089 5.1899654 1.98119065 3.49059532 -1 2 C-7.62799424 1.33720058 -10.55417139 1.90356233 -15 7 Z " fill="#000000" transform="translate(162,12)"/>
<path d="M0 0 C1.98 0 3.96 0 6 0 C7.73450799 2.90184524 9.4327466 5.82334426 11.125 8.75 C11.61871094 9.575 12.11242187 10.4 12.62109375 11.25 C13.07871094 12.04921875 13.53632813 12.8484375 14.0078125 13.671875 C14.43723145 14.4050293 14.86665039 15.13818359 15.30908203 15.89355469 C16 18 16 18 14 22 C6.74 22 -0.52 22 -8 22 C-10 18 -10 18 -9.30908203 15.89355469 C-8.87966309 15.16040039 -8.45024414 14.42724609 -8.0078125 13.671875 C-7.55019531 12.87265625 -7.09257812 12.0734375 -6.62109375 11.25 C-5.88052734 10.0125 -5.88052734 10.0125 -5.125 8.75 C-4.39603516 7.48929688 -4.39603516 7.48929688 -3.65234375 6.203125 C-2.44893544 4.12665576 -1.23131629 2.06000165 0 0 Z M2 2 C0.54166682 4.03689481 -0.77227051 6.04788867 -2.0625 8.1875 C-2.42666016 8.76564453 -2.79082031 9.34378906 -3.16601562 9.93945312 C-5.3234316 13.46868258 -6.16644825 15.83224127 -7 20 C-0.4 20 6.2 20 13 20 C12.0515655 15.25782752 10.57288604 12.17301554 8.0625 8.1875 C7.70220703 7.59001953 7.34191406 6.99253906 6.97070312 6.37695312 C6.04093616 4.87870985 5.02648071 3.43371436 4 2 C3.34 2 2.68 2 2 2 Z " fill="#000000" transform="translate(213,12)"/>
<path d="M0 0 C0.99 0.33 1.98 0.66 3 1 C3.88040196 3.54698226 4.5759039 5.95191274 5.1875 8.5625 C5.36474609 9.27341797 5.54199219 9.98433594 5.72460938 10.71679688 C6.16122323 12.47505269 6.58210434 14.23720155 7 16 C7.99 14.02 8.98 12.04 10 10 C11.98 10 13.96 10 16 10 C16.33 10.66 16.66 11.32 17 12 C15.02 12 13.04 12 11 12 C10.01 15.3 9.02 18.6 8 22 C7.01 22 6.02 22 5 22 C4.49411853 20.08487728 3.99551609 18.16783078 3.5 16.25 C3.2215625 15.18265625 2.943125 14.1153125 2.65625 13.015625 C2 10 2 10 2 6 C1.34 6 0.68 6 0 6 C-0.33 7.98 -0.66 9.96 -1 12 C-3.64 12 -6.28 12 -9 12 C-9 11.34 -9 10.68 -9 10 C-7.02 10 -5.04 10 -3 10 C-2.01 6.7 -1.02 3.4 0 0 Z " fill="#000000" transform="translate(42,13)"/>
<path d="M0 0 C0.99 0.33 1.98 0.66 3 1 C4.89965393 5.17923864 5.09322856 7.62708576 4 12 C3.61027966 15.32800656 3.30452272 18.66320846 3 22 C2.01 22 1.02 22 0 22 C-0.09087891 20.93458984 -0.09087891 20.93458984 -0.18359375 19.84765625 C-0.26738281 18.92855469 -0.35117188 18.00945313 -0.4375 17.0625 C-0.51871094 16.14597656 -0.59992188 15.22945312 -0.68359375 14.28515625 C-0.76044976 12.03840268 -0.76044976 12.03840268 -2 11 C-2.34892324 6.92922882 -1.41404314 3.80024093 0 0 Z M1 7 C0.67 7.99 0.34 8.98 0 10 C0.99 10 1.98 10 3 10 C2.67 9.01 2.34 8.02 2 7 C1.67 7 1.34 7 1 7 Z " fill="#000000" transform="translate(92,13)"/>
<path d="M0 0 C0.66 0 1.32 0 2 0 C2 4.29 2 8.58 2 13 C2.66 13 3.32 13 4 13 C4.6875 15.25 4.6875 15.25 5 18 C3.6875 20.3125 3.6875 20.3125 2 22 C1.34 22 0.68 22 0 22 C-0.99 20.02 -1.98 18.04 -3 16 C-2.34 15.01 -1.68 14.02 -1 13 C-0.5396236 9.80193335 -0.5396236 9.80193335 -0.375 6.3125 C-0.30023438 5.13300781 -0.22546875 3.95351563 -0.1484375 2.73828125 C-0.09945312 1.83464844 -0.05046875 0.93101563 0 0 Z M0 15 C0 15.99 0 16.98 0 18 C0.99 17.67 1.98 17.34 3 17 C2.67 16.34 2.34 15.68 2 15 C1.34 15 0.68 15 0 15 Z " fill="#000000" transform="translate(100,13)"/>
<path d="M0 0 C1.9375 0.8125 1.9375 0.8125 4 2 C4.33 2.99 4.66 3.98 5 5 C4.01 6.485 4.01 6.485 3 8 C2.70547416 10.38677076 2.5071783 12.78626094 2.375 15.1875 C2.26285156 17.09595703 2.26285156 17.09595703 2.1484375 19.04296875 C2.09945312 20.01878906 2.05046875 20.99460937 2 22 C1.34 22 0.68 22 0 22 C0 17.38 0 12.76 0 8 C-0.66 8 -1.32 8 -2 8 C-2.6875 5.6875 -2.6875 5.6875 -3 3 C-1.5625 1.1875 -1.5625 1.1875 0 0 Z M0 3 C0 3.99 0 4.98 0 6 C0.66 6 1.32 6 2 6 C2 5.01 2 4.02 2 3 C1.34 3 0.68 3 0 3 Z " fill="#000000" transform="translate(108,13)"/>
<path d="M0 0 C6.93 0 13.86 0 21 0 C21 0.99 21 1.98 21 3 C14.07 3 7.14 3 0 3 C0 2.01 0 1.02 0 0 Z " fill="#000000" transform="translate(258,15)"/>
<path d="M0 0 C3.96 0 7.92 0 12 0 C12.33 0.66 12.66 1.32 13 2 C8.71 2 4.42 2 0 2 C0 1.34 0 0.68 0 0 Z " fill="#000000" transform="translate(262,23)"/>
<path d="M0 0 C5.61 0 11.22 0 17 0 C17 0.66 17 1.32 17 2 C11.39 2 5.78 2 0 2 C0 1.34 0 0.68 0 0 Z " fill="#000000" transform="translate(260,31)"/>
<path d="M0 0 C2.94708647 1.79387872 4.54822332 3.28126438 6.375 6.1875 C7.29107344 10.3098305 7.12376537 13.92635055 6 18 C3.07531247 22.16546405 -0.05424008 23.9411702 -4.9453125 24.91015625 C-8.57763551 25.06898406 -10.93386532 23.82788798 -14 22 C-17.48197606 18.60965489 -18.90237525 15.88123732 -19 11 C-17.39346477 5.82338647 -15.55120919 2.95828597 -11 0 C-7.14352185 -1.28549272 -3.87914153 -0.97736183 0 0 Z M-14.875 5.6875 C-16.53404976 9.09776895 -16.67742562 12.32879019 -16 16 C-14.20636089 18.8100346 -12.98119065 20.50940468 -10 22 C-5.45124187 22.45487581 -2.32607362 22.71689456 1.4375 19.9375 C4.5115335 16.41360794 5.08158318 14.65024138 5 10 C4.01210025 6.78932581 3.23524855 4.75883629 0.30859375 2.9609375 C-5.93385322 0.17203635 -9.73068083 1.05761274 -14.875 5.6875 Z " fill="#000000" transform="translate(163,52)"/>
<path d="M0 0 C0.66 0 1.32 0 2 0 C2.33 4.62 2.66 9.24 3 14 C4.32 12.68 5.64 11.36 7 10 C7.66 10 8.32 10 9 10 C8.4409112 13.24271506 7.5867822 14.93057424 5 17 C4.34 17 3.68 17 3 17 C2.67 17.99 2.34 18.98 2 20 C-1 20 -1 20 -2.82421875 18.3203125 C-3.43910156 17.59585938 -4.05398437 16.87140625 -4.6875 16.125 C-5.31011719 15.40570313 -5.93273437 14.68640625 -6.57421875 13.9453125 C-8 12 -8 12 -8 10 C-5.53199953 11.15173355 -3.95216435 12.04783565 -2 14 C-1.93941406 13.07316406 -1.87882812 12.14632812 -1.81640625 11.19140625 C-1.73261719 9.99386719 -1.64882812 8.79632813 -1.5625 7.5625 C-1.48128906 6.36753906 -1.40007812 5.17257813 -1.31640625 3.94140625 C-1 1 -1 1 0 0 Z " fill="#000000" transform="translate(101,54)"/>
<path d="M0 0 C0.66 0 1.32 0 2 0 C2.33 4.95 2.66 9.9 3 15 C4.32 14.34 5.64 13.68 7 13 C5.70700306 15.88437779 4.34058637 17.87219421 2 20 C-0.86697492 18.71480435 -2.97607712 17.42870746 -5 15 C-5 14.34 -5 13.68 -5 13 C-2.525 13.99 -2.525 13.99 0 15 C0 10.05 0 5.1 0 0 Z " fill="#000000" transform="translate(268,54)"/>
<path d="M0 0 C-1.42431487 3.06775511 -2.90780074 5.21040099 -5 8 C-0.05 8 4.9 8 10 8 C10 8.66 10 9.32 10 10 C5.38 10.33 0.76 10.66 -4 11 C-2.68 12.32 -1.36 13.64 0 15 C0 15.99 0 16.98 0 18 C-4.29238623 16.34908222 -6.8793915 13.26245434 -10 10 C-8.50006099 6.10015857 -4.53875449 0 0 0 Z " fill="#000000" transform="translate(216,55)"/>
<path d="M0 0 C6.92307692 4.46153846 6.92307692 4.46153846 9 7 C9 7.66 9 8.32 9 9 C9.66 9 10.32 9 11 9 C11 9.66 11 10.32 11 11 C11.66 11 12.32 11 13 11 C13 8.03 13 5.06 13 2 C13.66 2 14.32 2 15 2 C15 6.29 15 10.58 15 15 C12.16443413 16.41778293 10.0091294 15.86257622 6.875 15.5625 C5.23144531 15.40974609 5.23144531 15.40974609 3.5546875 15.25390625 C2.71164063 15.17011719 1.86859375 15.08632812 1 15 C1 14.34 1 13.68 1 13 C3.64 12.67 6.28 12.34 9 12 C8.3503125 11.38511719 7.700625 10.77023438 7.03125 10.13671875 C6.1959375 9.32847656 5.360625 8.52023438 4.5 7.6875 C3.6646875 6.88699219 2.829375 6.08648437 1.96875 5.26171875 C0 3 0 3 0 0 Z " fill="#000000" transform="translate(39,56)"/>
<path d="M0 0 C-0.66 1.32 -1.32 2.64 -2 4 C0.31 4.33 2.62 4.66 5 5 C5 5.66 5 6.32 5 7 C2.69 7.33 0.38 7.66 -2 8 C-1.34 9.32 -0.68 10.64 0 12 C-2.88437779 10.70700306 -4.87219421 9.34058637 -7 7 C-3.86206897 0 -3.86206897 0 0 0 Z " fill="#000000" transform="translate(158,58)"/>
<path d="M0 0 C2.46800047 1.15173355 4.04783565 2.04783565 6 4 C6.99 3.34 7.98 2.68 9 2 C9.38063221 4.3260857 9.71269945 6.66055264 10 9 C9 10 9 10 5.4375 10.0625 C4.303125 10.041875 3.16875 10.02125 2 10 C2 9.34 2 8.68 2 8 C2.99 8 3.98 8 5 8 C4.175 7.05125 3.35 6.1025 2.5 5.125 C0 2.25 0 2.25 0 0 Z " fill="#000000" transform="translate(145,88)"/>
<path d="M0 0 C-1.37154504 2.95409701 -2.98863724 5.44008376 -5 8 C-4.34 8 -3.68 8 -3 8 C-3 8.66 -3 9.32 -3 10 C-5.31 10 -7.62 10 -10 10 C-10 7.69 -10 5.38 -10 3 C-9.34 2.67 -8.68 2.34 -8 2 C-8 2.99 -8 3.98 -8 5 C-7.05125 4.175 -6.1025 3.35 -5.125 2.5 C-2.25 0 -2.25 0 0 0 Z " fill="#000000" transform="translate(170,88)"/>
<path d="M0 0 C3.92286857 2.31872157 6.54911161 4.64733482 8 9 C8.28455916 11.7635072 8.17817991 14.19366639 8 17 C4.24369955 19.5042003 3.2847417 18.77125351 -1 18 C-2.2684375 18.3403125 -2.2684375 18.3403125 -3.5625 18.6875 C-6 19 -6 19 -8.8125 17.375 C-11 15 -11 15 -11.625 12.5 C-11 10 -11 10 -8.8125 7.625 C-6 6 -6 6 -3.375 6 C-0.46287106 7.22615955 0.52836866 8.21164588 2 11 C2.1875 13.75 2.1875 13.75 2 16 C2.99 15.67 3.98 15.34 5 15 C4.896875 13.741875 4.79375 12.48375 4.6875 11.1875 C4.62949219 10.47980469 4.57148438 9.77210937 4.51171875 9.04296875 C3.87180703 6.48820667 3.0993517 5.57332904 1 4 C-1.9919179 3.0643253 -4.87393122 2.80256408 -8 3 C-10.92143417 4.76503314 -12.47923817 5.95847635 -14 9 C-14.3724496 12.94796574 -14.34935635 15.33040033 -12.5 18.875 C-8.40141715 22.35879542 -4.28560202 22 1 22 C1 22.66 1 23.32 1 24 C-2.11888678 25.55944339 -4.5454145 25.28316275 -8 25 C-11.30710239 23.71833181 -14.23306279 22.21135447 -16.1796875 19.13671875 C-17.95453736 14.51365745 -17.68337462 9.65448593 -15.8125 5.125 C-11.47402778 0.03851532 -6.4934652 -1.39620583 0 0 Z M-5 8 C-6.32 8.99 -7.64 9.98 -9 11 C-8.80528889 12.94999129 -8.80528889 12.94999129 -8 15 C-6.0162233 16.28436734 -6.0162233 16.28436734 -4 17 C-3.01 16.34 -2.02 15.68 -1 15 C-0.74969023 12.41619823 -0.74969023 12.41619823 -1 10 C-2.32 9.34 -3.64 8.68 -5 8 Z " fill="#000000" transform="translate(221,88)"/>
<path d="M0 0 C1.134375 0.020625 2.26875 0.04125 3.4375 0.0625 C3.4375 2.3725 3.4375 4.6825 3.4375 7.0625 C2.86 6.815 2.2825 6.5675 1.6875 6.3125 C0.945 6.23 0.2025 6.1475 -0.5625 6.0625 C-2.70839423 7.95836384 -2.70839423 7.95836384 -4.5625 10.0625 C-5.2225 10.0625 -5.8825 10.0625 -6.5625 10.0625 C-5.19095496 7.10840299 -3.57386276 4.62241624 -1.5625 2.0625 C-2.5525 1.7325 -3.5425 1.4025 -4.5625 1.0625 C-3.5625 0.0625 -3.5625 0.0625 0 0 Z " fill="#000000" transform="translate(54.5625,88.9375)"/>
<path d="M0 0 C2.31 0 4.62 0 7 0 C7 0.66 7 1.32 7 2 C6.34 2 5.68 2 5 2 C5.825 2.94875 6.65 3.8975 7.5 4.875 C10 7.75 10 7.75 10 10 C7.04590299 8.62845496 4.55991624 7.01136276 2 5 C2 5.66 2 6.32 2 7 C1.34 7 0.68 7 0 7 C0 4.69 0 2.38 0 0 Z " fill="#000000" transform="translate(90,89)"/>
<path d="M0 0 C2.31 0 4.62 0 7 0 C7 2.31 7 4.62 7 7 C6.34 7 5.68 7 5 7 C5 6.34 5 5.68 5 5 C4.05125 5.825 3.1025 6.65 2.125 7.5 C-0.75 10 -0.75 10 -3 10 C-1.62845496 7.04590299 -0.01136276 4.55991624 2 2 C1.34 2 0.68 2 0 2 C0 1.34 0 0.68 0 0 Z " fill="#000000" transform="translate(106,89)"/>
<path d="M0 0 C0.78375 0.02707031 1.5675 0.05414063 2.375 0.08203125 C4.29286981 0.15219722 6.2093076 0.25980246 8.125 0.375 C9.55097611 3.22695222 9.2570252 5.69961175 9.25 8.875 C9.25386719 10.62296875 9.25386719 10.62296875 9.2578125 12.40625 C9.125 15.375 9.125 15.375 8.125 17.375 C-6.83885611 18.43543075 -6.83885611 18.43543075 -11.59765625 15.95703125 C-13.48388917 14.14051535 -14.82927938 12.77918012 -15.875 10.375 C-15.27428324 6.41490577 -13.5790804 4.29948222 -10.73339844 1.59667969 C-7.34293224 -0.63215542 -3.92220004 -0.25926407 0 0 Z M-11.75 5.875 C-13.02873856 7.73810583 -13.02873856 7.73810583 -13.875 9.375 C-11.88575307 12.1833486 -10.7881383 13.65725293 -7.875 15.375 C-3.16787084 15.90847464 1.40767758 15.72395262 6.125 15.375 C6.125 11.085 6.125 6.795 6.125 2.375 C-3.79604455 1.07546027 -3.79604455 1.07546027 -11.75 5.875 Z " fill="#000000" transform="translate(272.875,91.625)"/>
<path d="M0 0 C0.598125 0.185625 1.19625 0.37125 1.8125 0.5625 C4.16408762 1.22093687 4.16408762 1.22093687 7 0 C6.814375 0.598125 6.62875 1.19625 6.4375 1.8125 C5.77906313 4.16408762 5.77906313 4.16408762 7 7 C6.401875 6.814375 5.80375 6.62875 5.1875 6.4375 C2.83591238 5.77906313 2.83591238 5.77906313 0 7 C0.2784375 6.1028125 0.2784375 6.1028125 0.5625 5.1875 C1.22093687 2.83591238 1.22093687 2.83591238 0 0 Z " fill="#000000" transform="translate(268,97)"/>
<path d="M0 0 C-1.29299694 2.88437779 -2.65941363 4.87219421 -5 7 C-4.34 7.33 -3.68 7.66 -3 8 C-3 8.66 -3 9.32 -3 10 C-5.31 10 -7.62 10 -10 10 C-10 7.69 -10 5.38 -10 3 C-9.34 3 -8.68 3 -8 3 C-8 3.66 -8 4.32 -8 5 C-7.05125 4.175 -6.1025 3.35 -5.125 2.5 C-2.25 0 -2.25 0 0 0 Z " fill="#000000" transform="translate(45,102)"/>
<path d="M0 0 C-1.37154504 2.95409701 -2.98863724 5.44008376 -5 8 C-4.34 8 -3.68 8 -3 8 C-3 8.66 -3 9.32 -3 10 C-5.31 10 -7.62 10 -10 10 C-10 7.69 -10 5.38 -10 3 C-9.34 3 -8.68 3 -8 3 C-8 3.66 -8 4.32 -8 5 C-7.05125 4.175 -6.1025 3.35 -5.125 2.5 C-2.25 0 -2.25 0 0 0 Z " fill="#000000" transform="translate(100,102)"/>
<path d="M0 0 C2.95409701 1.37154504 5.44008376 2.98863724 8 5 C8 4.34 8 3.68 8 3 C8.66 3 9.32 3 10 3 C10 5.31 10 7.62 10 10 C7.69 10 5.38 10 3 10 C3 9.34 3 8.68 3 8 C3.66 8 4.32 8 5 8 C4.175 7.05125 3.35 6.1025 2.5 5.125 C0 2.25 0 2.25 0 0 Z " fill="#000000" transform="translate(103,102)"/>
<path d="M0 0 C2.31 0 4.62 0 7 0 C8.43088528 2.86177057 7.59991697 4.93375773 7 8 C6.01 7.34 5.02 6.68 4 6 C3.071875 6.99 3.071875 6.99 2.125 8 C0 10 0 10 -2 10 C-0.62845496 7.04590299 0.98863724 4.55991624 3 2 C2.01 2 1.02 2 0 2 C0 1.34 0 0.68 0 0 Z " fill="#000000" transform="translate(147,103)"/>
<path d="M0 0 C2.31 0 4.62 0 7 0 C7 0.66 7 1.32 7 2 C6.34 2 5.68 2 5 2 C5.825 2.94875 6.65 3.8975 7.5 4.875 C10 7.75 10 7.75 10 10 C7.04590299 8.62845496 4.55991624 7.01136276 2 5 C2 5.66 2 6.32 2 7 C1.34 7 0.68 7 0 7 C0 4.69 0 2.38 0 0 Z " fill="#000000" transform="translate(160,103)"/>
<path d="M0 0 C1.46953125 -0.03867188 1.46953125 -0.03867188 2.96875 -0.078125 C3.8040625 0.03015625 4.639375 0.1384375 5.5 0.25 C7.60209857 3.40314785 7.7434761 4.11103081 7.6953125 7.69921875 C7.68564453 8.97055664 7.68564453 8.97055664 7.67578125 10.26757812 C7.65902344 11.14865234 7.64226563 12.02972656 7.625 12.9375 C7.61597656 13.83017578 7.60695313 14.72285156 7.59765625 15.64257812 C7.57409748 17.84532314 7.54120329 20.04752588 7.5 22.25 C6.84 22.58 6.18 22.91 5.5 23.25 C4.571875 22.71375 3.64375 22.1775 2.6875 21.625 C1.635625 21.17125 0.58375 20.7175 -0.5 20.25 C-3.2667506 21.45968895 -3.2667506 21.45968895 -5.5 23.25 C-6.16 23.25 -6.82 23.25 -7.5 23.25 C-7.5 15.99 -7.5 8.73 -7.5 1.25 C-4.90541894 -0.04729053 -2.89552402 0.0457188 0 0 Z M-5.5 3.25 C-5.57319621 5.94654854 -5.59242537 8.61691458 -5.5625 11.3125 C-5.55798828 12.07111328 -5.55347656 12.82972656 -5.54882812 13.61132812 C-5.5370068 15.49091871 -5.51907078 17.37046899 -5.5 19.25 C-4.406875 19.064375 -3.31375 18.87875 -2.1875 18.6875 C1.5 18.25 1.5 18.25 4.5 19.25 C4.5 13.64 4.5 8.03 4.5 2.25 C-0.78926333 1.67254845 -0.78926333 1.67254845 -5.5 3.25 Z " fill="#000000" transform="translate(45.5,125.75)"/>
<path d="M0 0 C0.84175781 -0.00257812 1.68351562 -0.00515625 2.55078125 -0.0078125 C3.87142578 0.00378906 3.87142578 0.00378906 5.21875 0.015625 C6.09917969 0.00789063 6.97960937 0.00015625 7.88671875 -0.0078125 C8.72847656 -0.00523438 9.57023437 -0.00265625 10.4375 0 C11.59668945 0.00338379 11.59668945 0.00338379 12.77929688 0.00683594 C14.71875 0.265625 14.71875 0.265625 16.71875 2.265625 C16.97753906 4.20507812 16.97753906 4.20507812 16.984375 6.546875 C16.98824219 7.80951172 16.98824219 7.80951172 16.9921875 9.09765625 C16.98445313 9.97808594 16.97671875 10.85851562 16.96875 11.765625 C16.97648437 12.64605469 16.98421875 13.52648437 16.9921875 14.43359375 C16.98960938 15.27535156 16.98703125 16.11710938 16.984375 16.984375 C16.98211914 17.75716797 16.97986328 18.52996094 16.97753906 19.32617188 C16.71875 21.265625 16.71875 21.265625 14.71875 23.265625 C12.77929688 23.52441406 12.77929688 23.52441406 10.4375 23.53125 C9.59574219 23.53382813 8.75398438 23.53640625 7.88671875 23.5390625 C7.00628906 23.53132813 6.12585938 23.52359375 5.21875 23.515625 C3.89810547 23.52722656 3.89810547 23.52722656 2.55078125 23.5390625 C1.70902344 23.53648437 0.86726563 23.53390625 0 23.53125 C-0.77279297 23.52899414 -1.54558594 23.52673828 -2.34179688 23.52441406 C-4.28125 23.265625 -4.28125 23.265625 -6.28125 21.265625 C-6.54003906 19.32617188 -6.54003906 19.32617188 -6.546875 16.984375 C-6.54945312 16.14261719 -6.55203125 15.30085937 -6.5546875 14.43359375 C-6.54308594 13.11294922 -6.54308594 13.11294922 -6.53125 11.765625 C-6.53898437 10.88519531 -6.54671875 10.00476563 -6.5546875 9.09765625 C-6.55210938 8.25589844 -6.54953125 7.41414062 -6.546875 6.546875 C-6.54461914 5.77408203 -6.54236328 5.00128906 -6.54003906 4.20507812 C-5.99493728 0.11990023 -3.52809625 0.01029886 0 0 Z M-4.28125 3.265625 C-4.32217937 5.59859933 -4.32366723 7.93267725 -4.28125 10.265625 C-1.64125 10.265625 0.99875 10.265625 3.71875 10.265625 C3.71875 7.625625 3.71875 4.985625 3.71875 2.265625 C-0.60445086 1.76195999 -0.60445086 1.76195999 -4.28125 3.265625 Z M5.71875 3.265625 C5.67782063 5.59859933 5.67633277 7.93267725 5.71875 10.265625 C8.68875 10.265625 11.65875 10.265625 14.71875 10.265625 C14.76116723 7.93267725 14.75967937 5.59859933 14.71875 3.265625 C13.54156015 1.86129564 13.54156015 1.86129564 10.21875 2.140625 C6.89593985 1.86129564 6.89593985 1.86129564 5.71875 3.265625 Z M-4.28125 13.265625 C-4.32366723 15.59857275 -4.32217937 17.93265067 -4.28125 20.265625 C-3.09700674 21.68139977 -3.09700674 21.68139977 0.28125 21.328125 C1.9828125 21.2971875 1.9828125 21.2971875 3.71875 21.265625 C3.71875 18.625625 3.71875 15.985625 3.71875 13.265625 C1.07875 13.265625 -1.56125 13.265625 -4.28125 13.265625 Z M5.71875 13.265625 C5.67633277 15.59857275 5.67782063 17.93265067 5.71875 20.265625 C6.90299326 21.68139977 6.90299326 21.68139977 10.28125 21.328125 C11.9828125 21.2971875 11.9828125 21.2971875 13.71875 21.265625 C15.07314668 18.55683165 14.78376451 16.25629232 14.71875 13.265625 C11.74875 13.265625 8.77875 13.265625 5.71875 13.265625 Z " fill="#000000" transform="translate(95.28125,125.734375)"/>
<path d="M0 0 C0.66 0 1.32 0 2 0 C2 3.3 2 6.6 2 10 C5.3 10 8.6 10 12 10 C12 10.99 12 11.98 12 13 C8.7 13 5.4 13 2 13 C2 16.3 2 19.6 2 23 C1.01 22.67 0.02 22.34 -1 22 C-0.505 17.545 -0.505 17.545 0 13 C-3.3 13 -6.6 13 -10 13 C-10 12.01 -10 11.02 -10 10 C-6.7 10 -3.4 10 0 10 C-0.185625 8.535625 -0.37125 7.07125 -0.5625 5.5625 C-0.75462854 4.04681929 -0.91062197 2.52519276 -1 1 C-0.67 0.67 -0.34 0.34 0 0 Z " fill="#000000" transform="translate(267,126)"/>
<path d="M0 0 C7.26 0 14.52 0 22 0 C22 0.99 22 1.98 22 3 C14.74 3 7.48 3 0 3 C0 2.01 0 1.02 0 0 Z " fill="#000000" transform="translate(204,136)"/>
<path d="M0 0 C7.26 0 14.52 0 22 0 C22 0.66 22 1.32 22 2 C14.74 2 7.48 2 0 2 C0 1.34 0 0.68 0 0 Z " fill="#000000" transform="translate(145,147)"/>
</svg>
