<?xml version="1.0" encoding="UTF-8"?>
<svg version="1.1" xmlns="http://www.w3.org/2000/svg" width="225" height="225">
<path d="M0 0 C0.72960937 0.54398438 1.45921875 1.08796875 2.2109375 1.6484375 C8.47780526 6.72633431 15.4232093 14.26962789 18 22 C16.77734375 23.84765625 16.77734375 23.84765625 14.9375 26.0625 C8.41135364 35.06987428 6.04261262 45.97583674 3.24609375 56.59375 C2.94509766 57.73585938 2.64410156 58.87796875 2.33398438 60.0546875 C1.75074529 62.29615535 1.17975761 64.54085897 0.62304688 66.7890625 C-1.09751551 73.5062701 -3.03544688 80.2194751 -7 86 C-8.485 86.495 -8.485 86.495 -10 87 C-18.56064114 79.54373826 -20.25171771 64.5594386 -22.875 54 C-27.16610312 35.30318602 -27.16610312 35.30318602 -39 21 C-43.06391504 18.86109735 -46.43727493 18.59976096 -51 19 C-57.65013452 21.30718953 -61.22007261 25.6346728 -64.4296875 31.703125 C-68.94457036 42.00193887 -71.4432043 52.94604251 -74.02099609 63.85742188 C-77.67543712 79.05951121 -77.67543712 79.05951121 -82 85 C-84.15649414 86.26098633 -84.15649414 86.26098633 -86 87 C-89.51303058 83.11084194 -91.25864987 79.2415346 -92.8125 74.3125 C-93.06257813 73.5479248 -93.31265625 72.78334961 -93.5703125 71.99560547 C-95.10585516 67.18568829 -96.45797444 62.34286883 -97.73046875 57.45703125 C-98.02526123 56.32676514 -98.32005371 55.19649902 -98.6237793 54.03198242 C-99.19245664 51.82081152 -99.74810311 49.60623283 -100.28833008 47.38793945 C-102.53604758 38.56535869 -105.45068928 29.54809043 -112 23 C-111.77042617 14.8433769 -102.93662631 7.68771525 -97.4375 2.375 C-69.48584091 -21.7630994 -29.254364 -21.83538985 0 0 Z " fill="#000000" transform="translate(158,52)"/>
<path d="M0 0 C3.72229993 1.44055667 4.86345781 2.96552416 6.4765625 6.57421875 C9.96338573 14.75053953 11.84729972 23.40055202 13.90136719 32.02172852 C16.88005515 44.41962245 20.20749894 57.159575 30 66 C34.02082978 68.22203751 37.45085634 68.46262478 42 68 C47.878367 66.30256457 51.45720602 63.15765357 54.57421875 57.95703125 C60.32678855 46.02635909 63.27124339 32.71223605 66.55249023 19.94750977 C67.996327 14.39315383 69.54186138 9.19105406 72 4 C78.62699518 13.94049277 77.25067089 31.01867952 75.3828125 42.35546875 C71.42379012 61.76859039 60.32506296 78.61744268 44.171875 90 C25.78461222 101.59393909 4.87039809 106.31156799 -16.5625 101.5 C-36.71376319 96.51510366 -53.84630144 83.90985223 -64.8125 66.25 C-74.72488574 48.24873344 -77.28062953 28.63072119 -72.8515625 8.6328125 C-72.57054687 7.76398438 -72.28953125 6.89515625 -72 6 C-71.34 5.67 -70.68 5.34 -70 5 C-65.97940513 14.81284019 -63.15939512 24.60040977 -60.68359375 34.89453125 C-56.25648269 53.74205511 -56.25648269 53.74205511 -43.5625 67.5 C-38.60196768 68.46790875 -34.62347903 68.55198287 -29.875 66.9375 C-16.05519249 57.62415146 -13.70856652 37.90769496 -9.97900391 22.73608398 C-5.65528439 5.65528439 -5.65528439 5.65528439 0 0 Z " fill="#000000" transform="translate(110,84)"/>
</svg>
